<?xml version="1.0" encoding="utf-8" standalone="no"?>
<!DOCTYPE svg PUBLIC "-//W3C//DTD SVG 1.1//EN"
  "http://www.w3.org/Graphics/SVG/1.1/DTD/svg11.dtd">
<svg xmlns:xlink="http://www.w3.org/1999/xlink" width="720pt" height="576pt" viewBox="0 0 720 576" xmlns="http://www.w3.org/2000/svg" version="1.1">
 <metadata>
  <rdf:RDF xmlns:dc="http://purl.org/dc/elements/1.1/" xmlns:cc="http://creativecommons.org/ns#" xmlns:rdf="http://www.w3.org/1999/02/22-rdf-syntax-ns#">
   <cc:Work>
    <dc:type rdf:resource="http://purl.org/dc/dcmitype/StillImage"/>
    <dc:date>2025-10-31T14:54:53.754748</dc:date>
    <dc:format>image/svg+xml</dc:format>
    <dc:creator>
     <cc:Agent>
      <dc:title>Matplotlib v3.10.7, https://matplotlib.org/</dc:title>
     </cc:Agent>
    </dc:creator>
   </cc:Work>
  </rdf:RDF>
 </metadata>
 <defs>
  <style type="text/css">*{stroke-linejoin: round; stroke-linecap: butt}</style>
 </defs>
 <g id="figure_1">
  <g id="patch_1">
   <path d="M 0 576 
L 720 576 
L 720 0 
L 0 0 
z
" style="fill: #ffffff"/>
  </g>
  <g id="axes_1">
   <g id="patch_2">
    <path d="M 57.17 337.013333 
L 657.61 337.013333 
L 657.61 26.88 
L 57.17 26.88 
z
" style="fill: #ffffff"/>
   </g>
   <g id="matplotlib.axis_1">
    <g id="xtick_1">
     <g id="line2d_1">
      <path d="M 84.462727 337.013333 
L 84.462727 26.88 
" clip-path="url(#pf45d7de007)" style="fill: none; stroke: #b0b0b0; stroke-opacity: 0.3; stroke-width: 0.8; stroke-linecap: square"/>
     </g>
     <g id="line2d_2">
      <defs>
       <path id="m86eb77d479" d="M 0 0 
L 0 3.5 
" style="stroke: #000000; stroke-width: 0.8"/>
      </defs>
      <g>
       <use xlink:href="#m86eb77d479" x="84.462727" y="337.013333" style="stroke: #000000; stroke-width: 0.8"/>
      </g>
     </g>
     <g id="text_1">
      <!-- 0 -->
      <g transform="translate(81.281477 351.611771) scale(0.1 -0.1)">
       <defs>
        <path id="DejaVuSans-30" d="M 2034 4250 
Q 1547 4250 1301 3770 
Q 1056 3291 1056 2328 
Q 1056 1369 1301 889 
Q 1547 409 2034 409 
Q 2525 409 2770 889 
Q 3016 1369 3016 2328 
Q 3016 3291 2770 3770 
Q 2525 4250 2034 4250 
z
M 2034 4750 
Q 2819 4750 3233 4129 
Q 3647 3509 3647 2328 
Q 3647 1150 3233 529 
Q 2819 -91 2034 -91 
Q 1250 -91 836 529 
Q 422 1150 422 2328 
Q 422 3509 836 4129 
Q 1250 4750 2034 4750 
z
" transform="scale(0.015625)"/>
       </defs>
       <use xlink:href="#DejaVuSans-30"/>
      </g>
     </g>
    </g>
    <g id="xtick_2">
     <g id="line2d_3">
      <path d="M 152.720996 337.013333 
L 152.720996 26.88 
" clip-path="url(#pf45d7de007)" style="fill: none; stroke: #b0b0b0; stroke-opacity: 0.3; stroke-width: 0.8; stroke-linecap: square"/>
     </g>
     <g id="line2d_4">
      <g>
       <use xlink:href="#m86eb77d479" x="152.720996" y="337.013333" style="stroke: #000000; stroke-width: 0.8"/>
      </g>
     </g>
     <g id="text_2">
      <!-- 1 -->
      <g transform="translate(149.539746 351.611771) scale(0.1 -0.1)">
       <defs>
        <path id="DejaVuSans-31" d="M 794 531 
L 1825 531 
L 1825 4091 
L 703 3866 
L 703 4441 
L 1819 4666 
L 2450 4666 
L 2450 531 
L 3481 531 
L 3481 0 
L 794 0 
L 794 531 
z
" transform="scale(0.015625)"/>
       </defs>
       <use xlink:href="#DejaVuSans-31"/>
      </g>
     </g>
    </g>
    <g id="xtick_3">
     <g id="line2d_5">
      <path d="M 220.979264 337.013333 
L 220.979264 26.88 
" clip-path="url(#pf45d7de007)" style="fill: none; stroke: #b0b0b0; stroke-opacity: 0.3; stroke-width: 0.8; stroke-linecap: square"/>
     </g>
     <g id="line2d_6">
      <g>
       <use xlink:href="#m86eb77d479" x="220.979264" y="337.013333" style="stroke: #000000; stroke-width: 0.8"/>
      </g>
     </g>
     <g id="text_3">
      <!-- 2 -->
      <g transform="translate(217.798014 351.611771) scale(0.1 -0.1)">
       <defs>
        <path id="DejaVuSans-32" d="M 1228 531 
L 3431 531 
L 3431 0 
L 469 0 
L 469 531 
Q 828 903 1448 1529 
Q 2069 2156 2228 2338 
Q 2531 2678 2651 2914 
Q 2772 3150 2772 3378 
Q 2772 3750 2511 3984 
Q 2250 4219 1831 4219 
Q 1534 4219 1204 4116 
Q 875 4013 500 3803 
L 500 4441 
Q 881 4594 1212 4672 
Q 1544 4750 1819 4750 
Q 2544 4750 2975 4387 
Q 3406 4025 3406 3419 
Q 3406 3131 3298 2873 
Q 3191 2616 2906 2266 
Q 2828 2175 2409 1742 
Q 1991 1309 1228 531 
z
" transform="scale(0.015625)"/>
       </defs>
       <use xlink:href="#DejaVuSans-32"/>
      </g>
     </g>
    </g>
    <g id="xtick_4">
     <g id="line2d_7">
      <path d="M 289.237532 337.013333 
L 289.237532 26.88 
" clip-path="url(#pf45d7de007)" style="fill: none; stroke: #b0b0b0; stroke-opacity: 0.3; stroke-width: 0.8; stroke-linecap: square"/>
     </g>
     <g id="line2d_8">
      <g>
       <use xlink:href="#m86eb77d479" x="289.237532" y="337.013333" style="stroke: #000000; stroke-width: 0.8"/>
      </g>
     </g>
     <g id="text_4">
      <!-- 3 -->
      <g transform="translate(286.056282 351.611771) scale(0.1 -0.1)">
       <defs>
        <path id="DejaVuSans-33" d="M 2597 2516 
Q 3050 2419 3304 2112 
Q 3559 1806 3559 1356 
Q 3559 666 3084 287 
Q 2609 -91 1734 -91 
Q 1441 -91 1130 -33 
Q 819 25 488 141 
L 488 750 
Q 750 597 1062 519 
Q 1375 441 1716 441 
Q 2309 441 2620 675 
Q 2931 909 2931 1356 
Q 2931 1769 2642 2001 
Q 2353 2234 1838 2234 
L 1294 2234 
L 1294 2753 
L 1863 2753 
Q 2328 2753 2575 2939 
Q 2822 3125 2822 3475 
Q 2822 3834 2567 4026 
Q 2313 4219 1838 4219 
Q 1578 4219 1281 4162 
Q 984 4106 628 3988 
L 628 4550 
Q 988 4650 1302 4700 
Q 1616 4750 1894 4750 
Q 2613 4750 3031 4423 
Q 3450 4097 3450 3541 
Q 3450 3153 3228 2886 
Q 3006 2619 2597 2516 
z
" transform="scale(0.015625)"/>
       </defs>
       <use xlink:href="#DejaVuSans-33"/>
      </g>
     </g>
    </g>
    <g id="xtick_5">
     <g id="line2d_9">
      <path d="M 357.4958 337.013333 
L 357.4958 26.88 
" clip-path="url(#pf45d7de007)" style="fill: none; stroke: #b0b0b0; stroke-opacity: 0.3; stroke-width: 0.8; stroke-linecap: square"/>
     </g>
     <g id="line2d_10">
      <g>
       <use xlink:href="#m86eb77d479" x="357.4958" y="337.013333" style="stroke: #000000; stroke-width: 0.8"/>
      </g>
     </g>
     <g id="text_5">
      <!-- 4 -->
      <g transform="translate(354.31455 351.611771) scale(0.1 -0.1)">
       <defs>
        <path id="DejaVuSans-34" d="M 2419 4116 
L 825 1625 
L 2419 1625 
L 2419 4116 
z
M 2253 4666 
L 3047 4666 
L 3047 1625 
L 3713 1625 
L 3713 1100 
L 3047 1100 
L 3047 0 
L 2419 0 
L 2419 1100 
L 313 1100 
L 313 1709 
L 2253 4666 
z
" transform="scale(0.015625)"/>
       </defs>
       <use xlink:href="#DejaVuSans-34"/>
      </g>
     </g>
    </g>
    <g id="xtick_6">
     <g id="line2d_11">
      <path d="M 425.754069 337.013333 
L 425.754069 26.88 
" clip-path="url(#pf45d7de007)" style="fill: none; stroke: #b0b0b0; stroke-opacity: 0.3; stroke-width: 0.8; stroke-linecap: square"/>
     </g>
     <g id="line2d_12">
      <g>
       <use xlink:href="#m86eb77d479" x="425.754069" y="337.013333" style="stroke: #000000; stroke-width: 0.8"/>
      </g>
     </g>
     <g id="text_6">
      <!-- 5 -->
      <g transform="translate(422.572819 351.611771) scale(0.1 -0.1)">
       <defs>
        <path id="DejaVuSans-35" d="M 691 4666 
L 3169 4666 
L 3169 4134 
L 1269 4134 
L 1269 2991 
Q 1406 3038 1543 3061 
Q 1681 3084 1819 3084 
Q 2600 3084 3056 2656 
Q 3513 2228 3513 1497 
Q 3513 744 3044 326 
Q 2575 -91 1722 -91 
Q 1428 -91 1123 -41 
Q 819 9 494 109 
L 494 744 
Q 775 591 1075 516 
Q 1375 441 1709 441 
Q 2250 441 2565 725 
Q 2881 1009 2881 1497 
Q 2881 1984 2565 2268 
Q 2250 2553 1709 2553 
Q 1456 2553 1204 2497 
Q 953 2441 691 2322 
L 691 4666 
z
" transform="scale(0.015625)"/>
       </defs>
       <use xlink:href="#DejaVuSans-35"/>
      </g>
     </g>
    </g>
    <g id="xtick_7">
     <g id="line2d_13">
      <path d="M 494.012337 337.013333 
L 494.012337 26.88 
" clip-path="url(#pf45d7de007)" style="fill: none; stroke: #b0b0b0; stroke-opacity: 0.3; stroke-width: 0.8; stroke-linecap: square"/>
     </g>
     <g id="line2d_14">
      <g>
       <use xlink:href="#m86eb77d479" x="494.012337" y="337.013333" style="stroke: #000000; stroke-width: 0.8"/>
      </g>
     </g>
     <g id="text_7">
      <!-- 6 -->
      <g transform="translate(490.831087 351.611771) scale(0.1 -0.1)">
       <defs>
        <path id="DejaVuSans-36" d="M 2113 2584 
Q 1688 2584 1439 2293 
Q 1191 2003 1191 1497 
Q 1191 994 1439 701 
Q 1688 409 2113 409 
Q 2538 409 2786 701 
Q 3034 994 3034 1497 
Q 3034 2003 2786 2293 
Q 2538 2584 2113 2584 
z
M 3366 4563 
L 3366 3988 
Q 3128 4100 2886 4159 
Q 2644 4219 2406 4219 
Q 1781 4219 1451 3797 
Q 1122 3375 1075 2522 
Q 1259 2794 1537 2939 
Q 1816 3084 2150 3084 
Q 2853 3084 3261 2657 
Q 3669 2231 3669 1497 
Q 3669 778 3244 343 
Q 2819 -91 2113 -91 
Q 1303 -91 875 529 
Q 447 1150 447 2328 
Q 447 3434 972 4092 
Q 1497 4750 2381 4750 
Q 2619 4750 2861 4703 
Q 3103 4656 3366 4563 
z
" transform="scale(0.015625)"/>
       </defs>
       <use xlink:href="#DejaVuSans-36"/>
      </g>
     </g>
    </g>
    <g id="xtick_8">
     <g id="line2d_15">
      <path d="M 562.270605 337.013333 
L 562.270605 26.88 
" clip-path="url(#pf45d7de007)" style="fill: none; stroke: #b0b0b0; stroke-opacity: 0.3; stroke-width: 0.8; stroke-linecap: square"/>
     </g>
     <g id="line2d_16">
      <g>
       <use xlink:href="#m86eb77d479" x="562.270605" y="337.013333" style="stroke: #000000; stroke-width: 0.8"/>
      </g>
     </g>
     <g id="text_8">
      <!-- 7 -->
      <g transform="translate(559.089355 351.611771) scale(0.1 -0.1)">
       <defs>
        <path id="DejaVuSans-37" d="M 525 4666 
L 3525 4666 
L 3525 4397 
L 1831 0 
L 1172 0 
L 2766 4134 
L 525 4134 
L 525 4666 
z
" transform="scale(0.015625)"/>
       </defs>
       <use xlink:href="#DejaVuSans-37"/>
      </g>
     </g>
    </g>
    <g id="xtick_9">
     <g id="line2d_17">
      <path d="M 630.528873 337.013333 
L 630.528873 26.88 
" clip-path="url(#pf45d7de007)" style="fill: none; stroke: #b0b0b0; stroke-opacity: 0.3; stroke-width: 0.8; stroke-linecap: square"/>
     </g>
     <g id="line2d_18">
      <g>
       <use xlink:href="#m86eb77d479" x="630.528873" y="337.013333" style="stroke: #000000; stroke-width: 0.8"/>
      </g>
     </g>
     <g id="text_9">
      <!-- 8 -->
      <g transform="translate(627.347623 351.611771) scale(0.1 -0.1)">
       <defs>
        <path id="DejaVuSans-38" d="M 2034 2216 
Q 1584 2216 1326 1975 
Q 1069 1734 1069 1313 
Q 1069 891 1326 650 
Q 1584 409 2034 409 
Q 2484 409 2743 651 
Q 3003 894 3003 1313 
Q 3003 1734 2745 1975 
Q 2488 2216 2034 2216 
z
M 1403 2484 
Q 997 2584 770 2862 
Q 544 3141 544 3541 
Q 544 4100 942 4425 
Q 1341 4750 2034 4750 
Q 2731 4750 3128 4425 
Q 3525 4100 3525 3541 
Q 3525 3141 3298 2862 
Q 3072 2584 2669 2484 
Q 3125 2378 3379 2068 
Q 3634 1759 3634 1313 
Q 3634 634 3220 271 
Q 2806 -91 2034 -91 
Q 1263 -91 848 271 
Q 434 634 434 1313 
Q 434 1759 690 2068 
Q 947 2378 1403 2484 
z
M 1172 3481 
Q 1172 3119 1398 2916 
Q 1625 2713 2034 2713 
Q 2441 2713 2670 2916 
Q 2900 3119 2900 3481 
Q 2900 3844 2670 4047 
Q 2441 4250 2034 4250 
Q 1625 4250 1398 4047 
Q 1172 3844 1172 3481 
z
" transform="scale(0.015625)"/>
       </defs>
       <use xlink:href="#DejaVuSans-38"/>
      </g>
     </g>
    </g>
    <g id="text_10">
     <!-- Time (s) -->
     <g transform="translate(337.061094 365.289896) scale(0.1 -0.1)">
      <defs>
       <path id="DejaVuSans-54" d="M -19 4666 
L 3928 4666 
L 3928 4134 
L 2272 4134 
L 2272 0 
L 1638 0 
L 1638 4134 
L -19 4134 
L -19 4666 
z
" transform="scale(0.015625)"/>
       <path id="DejaVuSans-69" d="M 603 3500 
L 1178 3500 
L 1178 0 
L 603 0 
L 603 3500 
z
M 603 4863 
L 1178 4863 
L 1178 4134 
L 603 4134 
L 603 4863 
z
" transform="scale(0.015625)"/>
       <path id="DejaVuSans-6d" d="M 3328 2828 
Q 3544 3216 3844 3400 
Q 4144 3584 4550 3584 
Q 5097 3584 5394 3201 
Q 5691 2819 5691 2113 
L 5691 0 
L 5113 0 
L 5113 2094 
Q 5113 2597 4934 2840 
Q 4756 3084 4391 3084 
Q 3944 3084 3684 2787 
Q 3425 2491 3425 1978 
L 3425 0 
L 2847 0 
L 2847 2094 
Q 2847 2600 2669 2842 
Q 2491 3084 2119 3084 
Q 1678 3084 1418 2786 
Q 1159 2488 1159 1978 
L 1159 0 
L 581 0 
L 581 3500 
L 1159 3500 
L 1159 2956 
Q 1356 3278 1631 3431 
Q 1906 3584 2284 3584 
Q 2666 3584 2933 3390 
Q 3200 3197 3328 2828 
z
" transform="scale(0.015625)"/>
       <path id="DejaVuSans-65" d="M 3597 1894 
L 3597 1613 
L 953 1613 
Q 991 1019 1311 708 
Q 1631 397 2203 397 
Q 2534 397 2845 478 
Q 3156 559 3463 722 
L 3463 178 
Q 3153 47 2828 -22 
Q 2503 -91 2169 -91 
Q 1331 -91 842 396 
Q 353 884 353 1716 
Q 353 2575 817 3079 
Q 1281 3584 2069 3584 
Q 2775 3584 3186 3129 
Q 3597 2675 3597 1894 
z
M 3022 2063 
Q 3016 2534 2758 2815 
Q 2500 3097 2075 3097 
Q 1594 3097 1305 2825 
Q 1016 2553 972 2059 
L 3022 2063 
z
" transform="scale(0.015625)"/>
       <path id="DejaVuSans-20" transform="scale(0.015625)"/>
       <path id="DejaVuSans-28" d="M 1984 4856 
Q 1566 4138 1362 3434 
Q 1159 2731 1159 2009 
Q 1159 1288 1364 580 
Q 1569 -128 1984 -844 
L 1484 -844 
Q 1016 -109 783 600 
Q 550 1309 550 2009 
Q 550 2706 781 3412 
Q 1013 4119 1484 4856 
L 1984 4856 
z
" transform="scale(0.015625)"/>
       <path id="DejaVuSans-73" d="M 2834 3397 
L 2834 2853 
Q 2591 2978 2328 3040 
Q 2066 3103 1784 3103 
Q 1356 3103 1142 2972 
Q 928 2841 928 2578 
Q 928 2378 1081 2264 
Q 1234 2150 1697 2047 
L 1894 2003 
Q 2506 1872 2764 1633 
Q 3022 1394 3022 966 
Q 3022 478 2636 193 
Q 2250 -91 1575 -91 
Q 1294 -91 989 -36 
Q 684 19 347 128 
L 347 722 
Q 666 556 975 473 
Q 1284 391 1588 391 
Q 1994 391 2212 530 
Q 2431 669 2431 922 
Q 2431 1156 2273 1281 
Q 2116 1406 1581 1522 
L 1381 1569 
Q 847 1681 609 1914 
Q 372 2147 372 2553 
Q 372 3047 722 3315 
Q 1072 3584 1716 3584 
Q 2034 3584 2315 3537 
Q 2597 3491 2834 3397 
z
" transform="scale(0.015625)"/>
       <path id="DejaVuSans-29" d="M 513 4856 
L 1013 4856 
Q 1481 4119 1714 3412 
Q 1947 2706 1947 2009 
Q 1947 1309 1714 600 
Q 1481 -109 1013 -844 
L 513 -844 
Q 928 -128 1133 580 
Q 1338 1288 1338 2009 
Q 1338 2731 1133 3434 
Q 928 4138 513 4856 
z
" transform="scale(0.015625)"/>
      </defs>
      <use xlink:href="#DejaVuSans-54"/>
      <use xlink:href="#DejaVuSans-69" transform="translate(57.958984 0)"/>
      <use xlink:href="#DejaVuSans-6d" transform="translate(85.742188 0)"/>
      <use xlink:href="#DejaVuSans-65" transform="translate(183.154297 0)"/>
      <use xlink:href="#DejaVuSans-20" transform="translate(244.677734 0)"/>
      <use xlink:href="#DejaVuSans-28" transform="translate(276.464844 0)"/>
      <use xlink:href="#DejaVuSans-73" transform="translate(315.478516 0)"/>
      <use xlink:href="#DejaVuSans-29" transform="translate(367.578125 0)"/>
     </g>
    </g>
   </g>
   <g id="matplotlib.axis_2">
    <g id="ytick_1">
     <g id="line2d_19">
      <path d="M 57.17 306.683489 
L 657.61 306.683489 
" clip-path="url(#pf45d7de007)" style="fill: none; stroke: #b0b0b0; stroke-opacity: 0.3; stroke-width: 0.8; stroke-linecap: square"/>
     </g>
     <g id="line2d_20">
      <defs>
       <path id="m4b80ac9d1a" d="M 0 0 
L -3.5 0 
" style="stroke: #000000; stroke-width: 0.8"/>
      </defs>
      <g>
       <use xlink:href="#m4b80ac9d1a" x="57.17" y="306.683489" style="stroke: #000000; stroke-width: 0.8"/>
      </g>
     </g>
     <g id="text_11">
      <!-- 3300 -->
      <g style="fill: #0000ff" transform="translate(24.72 310.482708) scale(0.1 -0.1)">
       <use xlink:href="#DejaVuSans-33"/>
       <use xlink:href="#DejaVuSans-33" transform="translate(63.623047 0)"/>
       <use xlink:href="#DejaVuSans-30" transform="translate(127.246094 0)"/>
       <use xlink:href="#DejaVuSans-30" transform="translate(190.869141 0)"/>
      </g>
     </g>
    </g>
    <g id="ytick_2">
     <g id="line2d_21">
      <path d="M 57.17 263.965399 
L 657.61 263.965399 
" clip-path="url(#pf45d7de007)" style="fill: none; stroke: #b0b0b0; stroke-opacity: 0.3; stroke-width: 0.8; stroke-linecap: square"/>
     </g>
     <g id="line2d_22">
      <g>
       <use xlink:href="#m4b80ac9d1a" x="57.17" y="263.965399" style="stroke: #000000; stroke-width: 0.8"/>
      </g>
     </g>
     <g id="text_12">
      <!-- 3400 -->
      <g style="fill: #0000ff" transform="translate(24.72 267.764618) scale(0.1 -0.1)">
       <use xlink:href="#DejaVuSans-33"/>
       <use xlink:href="#DejaVuSans-34" transform="translate(63.623047 0)"/>
       <use xlink:href="#DejaVuSans-30" transform="translate(127.246094 0)"/>
       <use xlink:href="#DejaVuSans-30" transform="translate(190.869141 0)"/>
      </g>
     </g>
    </g>
    <g id="ytick_3">
     <g id="line2d_23">
      <path d="M 57.17 221.247309 
L 657.61 221.247309 
" clip-path="url(#pf45d7de007)" style="fill: none; stroke: #b0b0b0; stroke-opacity: 0.3; stroke-width: 0.8; stroke-linecap: square"/>
     </g>
     <g id="line2d_24">
      <g>
       <use xlink:href="#m4b80ac9d1a" x="57.17" y="221.247309" style="stroke: #000000; stroke-width: 0.8"/>
      </g>
     </g>
     <g id="text_13">
      <!-- 3500 -->
      <g style="fill: #0000ff" transform="translate(24.72 225.046528) scale(0.1 -0.1)">
       <use xlink:href="#DejaVuSans-33"/>
       <use xlink:href="#DejaVuSans-35" transform="translate(63.623047 0)"/>
       <use xlink:href="#DejaVuSans-30" transform="translate(127.246094 0)"/>
       <use xlink:href="#DejaVuSans-30" transform="translate(190.869141 0)"/>
      </g>
     </g>
    </g>
    <g id="ytick_4">
     <g id="line2d_25">
      <path d="M 57.17 178.529219 
L 657.61 178.529219 
" clip-path="url(#pf45d7de007)" style="fill: none; stroke: #b0b0b0; stroke-opacity: 0.3; stroke-width: 0.8; stroke-linecap: square"/>
     </g>
     <g id="line2d_26">
      <g>
       <use xlink:href="#m4b80ac9d1a" x="57.17" y="178.529219" style="stroke: #000000; stroke-width: 0.8"/>
      </g>
     </g>
     <g id="text_14">
      <!-- 3600 -->
      <g style="fill: #0000ff" transform="translate(24.72 182.328438) scale(0.1 -0.1)">
       <use xlink:href="#DejaVuSans-33"/>
       <use xlink:href="#DejaVuSans-36" transform="translate(63.623047 0)"/>
       <use xlink:href="#DejaVuSans-30" transform="translate(127.246094 0)"/>
       <use xlink:href="#DejaVuSans-30" transform="translate(190.869141 0)"/>
      </g>
     </g>
    </g>
    <g id="ytick_5">
     <g id="line2d_27">
      <path d="M 57.17 135.811129 
L 657.61 135.811129 
" clip-path="url(#pf45d7de007)" style="fill: none; stroke: #b0b0b0; stroke-opacity: 0.3; stroke-width: 0.8; stroke-linecap: square"/>
     </g>
     <g id="line2d_28">
      <g>
       <use xlink:href="#m4b80ac9d1a" x="57.17" y="135.811129" style="stroke: #000000; stroke-width: 0.8"/>
      </g>
     </g>
     <g id="text_15">
      <!-- 3700 -->
      <g style="fill: #0000ff" transform="translate(24.72 139.610348) scale(0.1 -0.1)">
       <use xlink:href="#DejaVuSans-33"/>
       <use xlink:href="#DejaVuSans-37" transform="translate(63.623047 0)"/>
       <use xlink:href="#DejaVuSans-30" transform="translate(127.246094 0)"/>
       <use xlink:href="#DejaVuSans-30" transform="translate(190.869141 0)"/>
      </g>
     </g>
    </g>
    <g id="ytick_6">
     <g id="line2d_29">
      <path d="M 57.17 93.093039 
L 657.61 93.093039 
" clip-path="url(#pf45d7de007)" style="fill: none; stroke: #b0b0b0; stroke-opacity: 0.3; stroke-width: 0.8; stroke-linecap: square"/>
     </g>
     <g id="line2d_30">
      <g>
       <use xlink:href="#m4b80ac9d1a" x="57.17" y="93.093039" style="stroke: #000000; stroke-width: 0.8"/>
      </g>
     </g>
     <g id="text_16">
      <!-- 3800 -->
      <g style="fill: #0000ff" transform="translate(24.72 96.892258) scale(0.1 -0.1)">
       <use xlink:href="#DejaVuSans-33"/>
       <use xlink:href="#DejaVuSans-38" transform="translate(63.623047 0)"/>
       <use xlink:href="#DejaVuSans-30" transform="translate(127.246094 0)"/>
       <use xlink:href="#DejaVuSans-30" transform="translate(190.869141 0)"/>
      </g>
     </g>
    </g>
    <g id="ytick_7">
     <g id="line2d_31">
      <path d="M 57.17 50.374949 
L 657.61 50.374949 
" clip-path="url(#pf45d7de007)" style="fill: none; stroke: #b0b0b0; stroke-opacity: 0.3; stroke-width: 0.8; stroke-linecap: square"/>
     </g>
     <g id="line2d_32">
      <g>
       <use xlink:href="#m4b80ac9d1a" x="57.17" y="50.374949" style="stroke: #000000; stroke-width: 0.8"/>
      </g>
     </g>
     <g id="text_17">
      <!-- 3900 -->
      <g style="fill: #0000ff" transform="translate(24.72 54.174168) scale(0.1 -0.1)">
       <defs>
        <path id="DejaVuSans-39" d="M 703 97 
L 703 672 
Q 941 559 1184 500 
Q 1428 441 1663 441 
Q 2288 441 2617 861 
Q 2947 1281 2994 2138 
Q 2813 1869 2534 1725 
Q 2256 1581 1919 1581 
Q 1219 1581 811 2004 
Q 403 2428 403 3163 
Q 403 3881 828 4315 
Q 1253 4750 1959 4750 
Q 2769 4750 3195 4129 
Q 3622 3509 3622 2328 
Q 3622 1225 3098 567 
Q 2575 -91 1691 -91 
Q 1453 -91 1209 -44 
Q 966 3 703 97 
z
M 1959 2075 
Q 2384 2075 2632 2365 
Q 2881 2656 2881 3163 
Q 2881 3666 2632 3958 
Q 2384 4250 1959 4250 
Q 1534 4250 1286 3958 
Q 1038 3666 1038 3163 
Q 1038 2656 1286 2365 
Q 1534 2075 1959 2075 
z
" transform="scale(0.015625)"/>
       </defs>
       <use xlink:href="#DejaVuSans-33"/>
       <use xlink:href="#DejaVuSans-39" transform="translate(63.623047 0)"/>
       <use xlink:href="#DejaVuSans-30" transform="translate(127.246094 0)"/>
       <use xlink:href="#DejaVuSans-30" transform="translate(190.869141 0)"/>
      </g>
     </g>
    </g>
    <g id="text_18">
     <!-- Telemetry -->
     <g style="fill: #0000ff" transform="translate(18.640312 206.614635) rotate(-90) scale(0.1 -0.1)">
      <defs>
       <path id="DejaVuSans-6c" d="M 603 4863 
L 1178 4863 
L 1178 0 
L 603 0 
L 603 4863 
z
" transform="scale(0.015625)"/>
       <path id="DejaVuSans-74" d="M 1172 4494 
L 1172 3500 
L 2356 3500 
L 2356 3053 
L 1172 3053 
L 1172 1153 
Q 1172 725 1289 603 
Q 1406 481 1766 481 
L 2356 481 
L 2356 0 
L 1766 0 
Q 1100 0 847 248 
Q 594 497 594 1153 
L 594 3053 
L 172 3053 
L 172 3500 
L 594 3500 
L 594 4494 
L 1172 4494 
z
" transform="scale(0.015625)"/>
       <path id="DejaVuSans-72" d="M 2631 2963 
Q 2534 3019 2420 3045 
Q 2306 3072 2169 3072 
Q 1681 3072 1420 2755 
Q 1159 2438 1159 1844 
L 1159 0 
L 581 0 
L 581 3500 
L 1159 3500 
L 1159 2956 
Q 1341 3275 1631 3429 
Q 1922 3584 2338 3584 
Q 2397 3584 2469 3576 
Q 2541 3569 2628 3553 
L 2631 2963 
z
" transform="scale(0.015625)"/>
       <path id="DejaVuSans-79" d="M 2059 -325 
Q 1816 -950 1584 -1140 
Q 1353 -1331 966 -1331 
L 506 -1331 
L 506 -850 
L 844 -850 
Q 1081 -850 1212 -737 
Q 1344 -625 1503 -206 
L 1606 56 
L 191 3500 
L 800 3500 
L 1894 763 
L 2988 3500 
L 3597 3500 
L 2059 -325 
z
" transform="scale(0.015625)"/>
      </defs>
      <use xlink:href="#DejaVuSans-54"/>
      <use xlink:href="#DejaVuSans-65" transform="translate(44.083984 0)"/>
      <use xlink:href="#DejaVuSans-6c" transform="translate(105.607422 0)"/>
      <use xlink:href="#DejaVuSans-65" transform="translate(133.390625 0)"/>
      <use xlink:href="#DejaVuSans-6d" transform="translate(194.914062 0)"/>
      <use xlink:href="#DejaVuSans-65" transform="translate(292.326172 0)"/>
      <use xlink:href="#DejaVuSans-74" transform="translate(353.849609 0)"/>
      <use xlink:href="#DejaVuSans-72" transform="translate(393.058594 0)"/>
      <use xlink:href="#DejaVuSans-79" transform="translate(434.171875 0)"/>
     </g>
    </g>
   </g>
   <g id="line2d_33">
    <path d="M 84.462727 221.247309 
L 84.783541 221.247309 
L 85.124832 220.820129 
L 85.466124 218.257043 
L 85.807415 213.558053 
L 86.489998 198.606722 
L 87.172581 181.519486 
L 87.513872 181.092305 
L 87.855163 181.519486 
L 88.196455 181.519486 
L 88.537746 180.665124 
L 88.879037 179.383581 
L 89.56162 174.25741 
L 91.950659 149.480918 
L 96.046155 104.199743 
L 98.776486 77.714527 
L 101.499991 57.637025 
L 102.1894 53.792397 
L 103.206448 49.093407 
L 104.571613 44.394417 
L 105.254196 42.685693 
L 106.27807 41.404151 
L 108.325818 41.404151 
L 108.667109 41.831331 
L 109.008401 42.685693 
L 110.714857 49.093407 
L 112.080023 56.782663 
L 113.103897 63.617557 
L 114.469062 74.29708 
L 116.509984 93.093039 
L 120.264189 135.383949 
L 126.407433 213.558053 
L 127.431307 226.800661 
L 131.526803 272.509017 
L 134.598425 298.567052 
L 135.281008 303.266042 
L 136.646173 311.382479 
L 137.32193 314.372746 
L 139.028387 320.353278 
L 139.369678 321.20764 
L 140.393552 322.489183 
L 140.734844 322.489183 
L 141.082961 322.916364 
L 141.758718 322.916364 
L 142.100009 322.489183 
L 142.448126 322.489183 
L 143.123883 320.780459 
L 143.465174 319.498916 
L 143.813292 318.644555 
L 146.878088 302.41168 
L 147.56067 297.712691 
L 148.584544 290.023434 
L 152.680041 248.159706 
L 154.775569 223.383214 
L 156.42742 202.45135 
L 157.451294 189.208742 
L 158.133876 180.665124 
L 163.935829 109.325914 
L 165.642286 90.957135 
L 166.66616 81.559155 
L 168.031325 70.452452 
L 169.737782 58.064206 
L 170.75483 52.083673 
L 171.437413 49.520588 
L 172.119995 46.530321 
L 172.461287 45.67596 
L 173.143869 43.540055 
L 173.485161 42.685693 
L 174.509035 41.404151 
L 174.850326 41.404151 
L 175.191617 40.97697 
L 175.8742 40.97697 
L 176.215491 41.404151 
L 176.604564 41.404151 
L 176.898074 42.258512 
L 177.239365 42.685693 
L 179.287114 50.80213 
L 180.310988 56.355482 
L 183.041318 77.287346 
L 184.747775 93.093039 
L 186.11294 107.61719 
L 187.136814 119.151074 
L 188.50198 135.383949 
L 195.320981 222.101671 
L 196.344855 234.917098 
L 199.757768 272.509017 
L 202.82939 298.567052 
L 204.877138 310.955298 
L 205.901012 315.654288 
L 206.924886 319.498916 
L 207.607469 321.20764 
L 208.624517 322.489183 
L 208.965809 322.489183 
L 209.3071 322.916364 
L 209.989683 322.916364 
L 210.330974 322.489183 
L 210.672265 322.489183 
L 211.696139 319.926097 
L 212.720013 315.654288 
L 214.767761 304.974766 
L 215.450344 300.702957 
L 216.474218 292.58652 
L 217.156801 287.033168 
L 218.180675 277.208007 
L 220.911006 249.014068 
L 231.832328 113.597723 
L 233.873251 91.384316 
L 235.238416 78.568889 
L 238.310038 55.928301 
L 240.016495 47.811864 
L 240.357786 46.957502 
L 241.38166 43.540055 
L 241.722952 43.112874 
L 242.398708 41.831331 
L 242.746826 41.404151 
L 243.088117 41.404151 
L 243.429408 40.97697 
L 244.111991 40.97697 
L 244.453282 41.404151 
L 244.794574 41.404151 
L 245.135865 41.831331 
L 245.818448 43.540055 
L 247.176787 49.093407 
L 248.541953 56.355482 
L 249.565827 63.190376 
L 250.930992 73.869899 
L 252.97874 92.665859 
L 254.002614 103.772562 
L 257.074236 139.228577 
L 263.210654 217.402681 
L 264.234528 230.218108 
L 267.988733 271.654656 
L 269.353899 284.897264 
L 270.036481 290.450615 
L 271.060355 298.567052 
L 273.108103 310.955298 
L 274.131977 315.654288 
L 275.497143 320.353278 
L 275.838434 321.20764 
L 276.862308 322.489183 
L 277.544891 322.489183 
L 277.886182 322.916364 
L 278.227473 322.916364 
L 278.568765 322.489183 
L 278.910056 322.489183 
L 279.251347 321.634821 
L 279.592639 321.20764 
L 280.616513 317.363012 
L 282.998726 304.974766 
L 284.363892 296.003967 
L 286.752931 274.217741 
L 288.800679 252.858696 
L 290.507136 232.781194 
L 300.397759 110.180275 
L 302.104216 91.384316 
L 305.175838 65.326281 
L 307.223586 52.510854 
L 308.588751 46.957502 
L 309.271334 44.821598 
L 310.295208 42.258512 
L 310.636499 42.258512 
L 310.97779 41.404151 
L 311.319082 41.404151 
L 311.660373 40.97697 
L 312.342956 40.97697 
L 312.684247 41.404151 
L 313.025539 41.404151 
L 313.36683 41.831331 
L 314.049413 43.540055 
L 315.073287 47.384683 
L 316.772917 56.355482 
L 317.796791 63.190376 
L 319.161957 73.869899 
L 321.216531 92.665859 
L 322.916162 111.034637 
L 325.305201 138.801396 
L 331.448445 216.9755 
L 332.465493 230.218108 
L 336.902281 278.062369 
L 339.29132 298.139871 
L 339.973903 302.838861 
L 341.339068 310.955298 
L 342.362942 315.654288 
L 343.728108 320.353278 
L 344.069399 321.20764 
L 345.093273 322.489183 
L 345.775856 322.489183 
L 346.117147 322.916364 
L 346.79973 322.916364 
L 347.141021 322.489183 
L 347.482312 321.634821 
L 347.823604 321.20764 
L 349.53006 314.372746 
L 350.8884 307.11067 
L 352.936148 293.013701 
L 353.618731 287.460349 
L 357.714227 245.596621 
L 368.294258 114.024904 
L 369.318132 102.9182 
L 370.683298 88.39405 
L 373.113292 67.889366 
L 374.771968 56.355482 
L 375.454551 52.510854 
L 377.84359 43.967236 
L 378.532999 42.258512 
L 378.87429 42.258512 
L 379.215581 41.404151 
L 379.550047 41.404151 
L 379.891338 40.97697 
L 380.915212 40.97697 
L 381.597795 41.831331 
L 382.280378 43.540055 
L 383.986834 50.374949 
L 385.010708 55.928301 
L 385.693291 60.627291 
L 387.734213 76.432984 
L 389.44067 92.238678 
L 390.805835 106.762828 
L 393.536166 138.374215 
L 399.338119 212.276511 
L 400.703284 229.790927 
L 404.791954 274.644922 
L 405.815828 284.042902 
L 406.505237 290.450615 
L 407.870402 300.702957 
L 408.546159 304.547585 
L 409.570033 310.528118 
L 410.600733 315.227107 
L 411.617781 319.071736 
L 412.641655 321.634821 
L 413.331064 322.489183 
L 414.006821 322.489183 
L 414.348112 322.916364 
L 414.689403 322.489183 
L 415.371986 322.489183 
L 415.713277 322.062002 
L 416.054569 321.20764 
L 416.39586 319.926097 
L 416.784932 319.071736 
L 417.078443 317.363012 
L 418.102317 313.091203 
L 419.126191 307.11067 
L 419.808773 303.266042 
L 420.491356 298.567052 
L 421.856521 287.88753 
L 425.6039 249.86843 
L 425.6039 249.86843 
" clip-path="url(#pf45d7de007)" style="fill: none; stroke: #0000ff; stroke-width: 1.5; stroke-linecap: square"/>
   </g>
   <g id="patch_3">
    <path d="M 57.17 337.013333 
L 57.17 26.88 
" style="fill: none; stroke: #000000; stroke-width: 0.8; stroke-linejoin: miter; stroke-linecap: square"/>
   </g>
   <g id="patch_4">
    <path d="M 657.61 337.013333 
L 657.61 26.88 
" style="fill: none; stroke: #000000; stroke-width: 0.8; stroke-linejoin: miter; stroke-linecap: square"/>
   </g>
   <g id="patch_5">
    <path d="M 57.17 337.013333 
L 657.61 337.013333 
" style="fill: none; stroke: #000000; stroke-width: 0.8; stroke-linejoin: miter; stroke-linecap: square"/>
   </g>
   <g id="patch_6">
    <path d="M 57.17 26.88 
L 657.61 26.88 
" style="fill: none; stroke: #000000; stroke-width: 0.8; stroke-linejoin: miter; stroke-linecap: square"/>
   </g>
   <g id="text_19">
    <!-- Telemetry and Encoder vs Time -->
    <g transform="translate(262.98375 20.88) scale(0.12 -0.12)">
     <defs>
      <path id="DejaVuSans-61" d="M 2194 1759 
Q 1497 1759 1228 1600 
Q 959 1441 959 1056 
Q 959 750 1161 570 
Q 1363 391 1709 391 
Q 2188 391 2477 730 
Q 2766 1069 2766 1631 
L 2766 1759 
L 2194 1759 
z
M 3341 1997 
L 3341 0 
L 2766 0 
L 2766 531 
Q 2569 213 2275 61 
Q 1981 -91 1556 -91 
Q 1019 -91 701 211 
Q 384 513 384 1019 
Q 384 1609 779 1909 
Q 1175 2209 1959 2209 
L 2766 2209 
L 2766 2266 
Q 2766 2663 2505 2880 
Q 2244 3097 1772 3097 
Q 1472 3097 1187 3025 
Q 903 2953 641 2809 
L 641 3341 
Q 956 3463 1253 3523 
Q 1550 3584 1831 3584 
Q 2591 3584 2966 3190 
Q 3341 2797 3341 1997 
z
" transform="scale(0.015625)"/>
      <path id="DejaVuSans-6e" d="M 3513 2113 
L 3513 0 
L 2938 0 
L 2938 2094 
Q 2938 2591 2744 2837 
Q 2550 3084 2163 3084 
Q 1697 3084 1428 2787 
Q 1159 2491 1159 1978 
L 1159 0 
L 581 0 
L 581 3500 
L 1159 3500 
L 1159 2956 
Q 1366 3272 1645 3428 
Q 1925 3584 2291 3584 
Q 2894 3584 3203 3211 
Q 3513 2838 3513 2113 
z
" transform="scale(0.015625)"/>
      <path id="DejaVuSans-64" d="M 2906 2969 
L 2906 4863 
L 3481 4863 
L 3481 0 
L 2906 0 
L 2906 525 
Q 2725 213 2448 61 
Q 2172 -91 1784 -91 
Q 1150 -91 751 415 
Q 353 922 353 1747 
Q 353 2572 751 3078 
Q 1150 3584 1784 3584 
Q 2172 3584 2448 3432 
Q 2725 3281 2906 2969 
z
M 947 1747 
Q 947 1113 1208 752 
Q 1469 391 1925 391 
Q 2381 391 2643 752 
Q 2906 1113 2906 1747 
Q 2906 2381 2643 2742 
Q 2381 3103 1925 3103 
Q 1469 3103 1208 2742 
Q 947 2381 947 1747 
z
" transform="scale(0.015625)"/>
      <path id="DejaVuSans-45" d="M 628 4666 
L 3578 4666 
L 3578 4134 
L 1259 4134 
L 1259 2753 
L 3481 2753 
L 3481 2222 
L 1259 2222 
L 1259 531 
L 3634 531 
L 3634 0 
L 628 0 
L 628 4666 
z
" transform="scale(0.015625)"/>
      <path id="DejaVuSans-63" d="M 3122 3366 
L 3122 2828 
Q 2878 2963 2633 3030 
Q 2388 3097 2138 3097 
Q 1578 3097 1268 2742 
Q 959 2388 959 1747 
Q 959 1106 1268 751 
Q 1578 397 2138 397 
Q 2388 397 2633 464 
Q 2878 531 3122 666 
L 3122 134 
Q 2881 22 2623 -34 
Q 2366 -91 2075 -91 
Q 1284 -91 818 406 
Q 353 903 353 1747 
Q 353 2603 823 3093 
Q 1294 3584 2113 3584 
Q 2378 3584 2631 3529 
Q 2884 3475 3122 3366 
z
" transform="scale(0.015625)"/>
      <path id="DejaVuSans-6f" d="M 1959 3097 
Q 1497 3097 1228 2736 
Q 959 2375 959 1747 
Q 959 1119 1226 758 
Q 1494 397 1959 397 
Q 2419 397 2687 759 
Q 2956 1122 2956 1747 
Q 2956 2369 2687 2733 
Q 2419 3097 1959 3097 
z
M 1959 3584 
Q 2709 3584 3137 3096 
Q 3566 2609 3566 1747 
Q 3566 888 3137 398 
Q 2709 -91 1959 -91 
Q 1206 -91 779 398 
Q 353 888 353 1747 
Q 353 2609 779 3096 
Q 1206 3584 1959 3584 
z
" transform="scale(0.015625)"/>
      <path id="DejaVuSans-76" d="M 191 3500 
L 800 3500 
L 1894 563 
L 2988 3500 
L 3597 3500 
L 2284 0 
L 1503 0 
L 191 3500 
z
" transform="scale(0.015625)"/>
     </defs>
     <use xlink:href="#DejaVuSans-54"/>
     <use xlink:href="#DejaVuSans-65" transform="translate(44.083984 0)"/>
     <use xlink:href="#DejaVuSans-6c" transform="translate(105.607422 0)"/>
     <use xlink:href="#DejaVuSans-65" transform="translate(133.390625 0)"/>
     <use xlink:href="#DejaVuSans-6d" transform="translate(194.914062 0)"/>
     <use xlink:href="#DejaVuSans-65" transform="translate(292.326172 0)"/>
     <use xlink:href="#DejaVuSans-74" transform="translate(353.849609 0)"/>
     <use xlink:href="#DejaVuSans-72" transform="translate(393.058594 0)"/>
     <use xlink:href="#DejaVuSans-79" transform="translate(434.171875 0)"/>
     <use xlink:href="#DejaVuSans-20" transform="translate(493.351562 0)"/>
     <use xlink:href="#DejaVuSans-61" transform="translate(525.138672 0)"/>
     <use xlink:href="#DejaVuSans-6e" transform="translate(586.417969 0)"/>
     <use xlink:href="#DejaVuSans-64" transform="translate(649.796875 0)"/>
     <use xlink:href="#DejaVuSans-20" transform="translate(713.273438 0)"/>
     <use xlink:href="#DejaVuSans-45" transform="translate(745.060547 0)"/>
     <use xlink:href="#DejaVuSans-6e" transform="translate(808.244141 0)"/>
     <use xlink:href="#DejaVuSans-63" transform="translate(871.623047 0)"/>
     <use xlink:href="#DejaVuSans-6f" transform="translate(926.603516 0)"/>
     <use xlink:href="#DejaVuSans-64" transform="translate(987.785156 0)"/>
     <use xlink:href="#DejaVuSans-65" transform="translate(1051.261719 0)"/>
     <use xlink:href="#DejaVuSans-72" transform="translate(1112.785156 0)"/>
     <use xlink:href="#DejaVuSans-20" transform="translate(1153.898438 0)"/>
     <use xlink:href="#DejaVuSans-76" transform="translate(1185.685547 0)"/>
     <use xlink:href="#DejaVuSans-73" transform="translate(1244.865234 0)"/>
     <use xlink:href="#DejaVuSans-20" transform="translate(1296.964844 0)"/>
     <use xlink:href="#DejaVuSans-54" transform="translate(1328.751953 0)"/>
     <use xlink:href="#DejaVuSans-69" transform="translate(1386.710938 0)"/>
     <use xlink:href="#DejaVuSans-6d" transform="translate(1414.494141 0)"/>
     <use xlink:href="#DejaVuSans-65" transform="translate(1511.90625 0)"/>
    </g>
   </g>
  </g>
  <g id="axes_2">
   <g id="patch_7">
    <path d="M 57.17 534.04 
L 657.61 534.04 
L 657.61 378.973333 
L 57.17 378.973333 
z
" style="fill: #ffffff"/>
   </g>
   <g id="matplotlib.axis_3">
    <g id="xtick_10">
     <g id="line2d_34">
      <path d="M 57.17 534.04 
L 57.17 378.973333 
" clip-path="url(#p2f0feac051)" style="fill: none; stroke: #b0b0b0; stroke-opacity: 0.3; stroke-width: 0.8; stroke-linecap: square"/>
     </g>
     <g id="line2d_35">
      <g>
       <use xlink:href="#m86eb77d479" x="57.17" y="534.04" style="stroke: #000000; stroke-width: 0.8"/>
      </g>
     </g>
     <g id="text_20">
      <!-- 0 -->
      <g transform="translate(53.98875 548.638438) scale(0.1 -0.1)">
       <use xlink:href="#DejaVuSans-30"/>
      </g>
     </g>
    </g>
    <g id="xtick_11">
     <g id="line2d_36">
      <path d="M 81.1876 534.04 
L 81.1876 378.973333 
" clip-path="url(#p2f0feac051)" style="fill: none; stroke: #b0b0b0; stroke-opacity: 0.3; stroke-width: 0.8; stroke-linecap: square"/>
     </g>
     <g id="line2d_37">
      <g>
       <use xlink:href="#m86eb77d479" x="81.1876" y="534.04" style="stroke: #000000; stroke-width: 0.8"/>
      </g>
     </g>
     <g id="text_21">
      <!-- 1 -->
      <g transform="translate(78.00635 548.638438) scale(0.1 -0.1)">
       <use xlink:href="#DejaVuSans-31"/>
      </g>
     </g>
    </g>
    <g id="xtick_12">
     <g id="line2d_38">
      <path d="M 105.2052 534.04 
L 105.2052 378.973333 
" clip-path="url(#p2f0feac051)" style="fill: none; stroke: #b0b0b0; stroke-opacity: 0.3; stroke-width: 0.8; stroke-linecap: square"/>
     </g>
     <g id="line2d_39">
      <g>
       <use xlink:href="#m86eb77d479" x="105.2052" y="534.04" style="stroke: #000000; stroke-width: 0.8"/>
      </g>
     </g>
     <g id="text_22">
      <!-- 2 -->
      <g transform="translate(102.02395 548.638438) scale(0.1 -0.1)">
       <use xlink:href="#DejaVuSans-32"/>
      </g>
     </g>
    </g>
    <g id="xtick_13">
     <g id="line2d_40">
      <path d="M 129.2228 534.04 
L 129.2228 378.973333 
" clip-path="url(#p2f0feac051)" style="fill: none; stroke: #b0b0b0; stroke-opacity: 0.3; stroke-width: 0.8; stroke-linecap: square"/>
     </g>
     <g id="line2d_41">
      <g>
       <use xlink:href="#m86eb77d479" x="129.2228" y="534.04" style="stroke: #000000; stroke-width: 0.8"/>
      </g>
     </g>
     <g id="text_23">
      <!-- 3 -->
      <g transform="translate(126.04155 548.638438) scale(0.1 -0.1)">
       <use xlink:href="#DejaVuSans-33"/>
      </g>
     </g>
    </g>
    <g id="xtick_14">
     <g id="line2d_42">
      <path d="M 153.2404 534.04 
L 153.2404 378.973333 
" clip-path="url(#p2f0feac051)" style="fill: none; stroke: #b0b0b0; stroke-opacity: 0.3; stroke-width: 0.8; stroke-linecap: square"/>
     </g>
     <g id="line2d_43">
      <g>
       <use xlink:href="#m86eb77d479" x="153.2404" y="534.04" style="stroke: #000000; stroke-width: 0.8"/>
      </g>
     </g>
     <g id="text_24">
      <!-- 4 -->
      <g transform="translate(150.05915 548.638438) scale(0.1 -0.1)">
       <use xlink:href="#DejaVuSans-34"/>
      </g>
     </g>
    </g>
    <g id="xtick_15">
     <g id="line2d_44">
      <path d="M 177.258 534.04 
L 177.258 378.973333 
" clip-path="url(#p2f0feac051)" style="fill: none; stroke: #b0b0b0; stroke-opacity: 0.3; stroke-width: 0.8; stroke-linecap: square"/>
     </g>
     <g id="line2d_45">
      <g>
       <use xlink:href="#m86eb77d479" x="177.258" y="534.04" style="stroke: #000000; stroke-width: 0.8"/>
      </g>
     </g>
     <g id="text_25">
      <!-- 5 -->
      <g transform="translate(174.07675 548.638438) scale(0.1 -0.1)">
       <use xlink:href="#DejaVuSans-35"/>
      </g>
     </g>
    </g>
    <g id="xtick_16">
     <g id="line2d_46">
      <path d="M 201.2756 534.04 
L 201.2756 378.973333 
" clip-path="url(#p2f0feac051)" style="fill: none; stroke: #b0b0b0; stroke-opacity: 0.3; stroke-width: 0.8; stroke-linecap: square"/>
     </g>
     <g id="line2d_47">
      <g>
       <use xlink:href="#m86eb77d479" x="201.2756" y="534.04" style="stroke: #000000; stroke-width: 0.8"/>
      </g>
     </g>
     <g id="text_26">
      <!-- 6 -->
      <g transform="translate(198.09435 548.638438) scale(0.1 -0.1)">
       <use xlink:href="#DejaVuSans-36"/>
      </g>
     </g>
    </g>
    <g id="xtick_17">
     <g id="line2d_48">
      <path d="M 225.2932 534.04 
L 225.2932 378.973333 
" clip-path="url(#p2f0feac051)" style="fill: none; stroke: #b0b0b0; stroke-opacity: 0.3; stroke-width: 0.8; stroke-linecap: square"/>
     </g>
     <g id="line2d_49">
      <g>
       <use xlink:href="#m86eb77d479" x="225.2932" y="534.04" style="stroke: #000000; stroke-width: 0.8"/>
      </g>
     </g>
     <g id="text_27">
      <!-- 7 -->
      <g transform="translate(222.11195 548.638438) scale(0.1 -0.1)">
       <use xlink:href="#DejaVuSans-37"/>
      </g>
     </g>
    </g>
    <g id="xtick_18">
     <g id="line2d_50">
      <path d="M 249.3108 534.04 
L 249.3108 378.973333 
" clip-path="url(#p2f0feac051)" style="fill: none; stroke: #b0b0b0; stroke-opacity: 0.3; stroke-width: 0.8; stroke-linecap: square"/>
     </g>
     <g id="line2d_51">
      <g>
       <use xlink:href="#m86eb77d479" x="249.3108" y="534.04" style="stroke: #000000; stroke-width: 0.8"/>
      </g>
     </g>
     <g id="text_28">
      <!-- 8 -->
      <g transform="translate(246.12955 548.638438) scale(0.1 -0.1)">
       <use xlink:href="#DejaVuSans-38"/>
      </g>
     </g>
    </g>
    <g id="xtick_19">
     <g id="line2d_52">
      <path d="M 273.3284 534.04 
L 273.3284 378.973333 
" clip-path="url(#p2f0feac051)" style="fill: none; stroke: #b0b0b0; stroke-opacity: 0.3; stroke-width: 0.8; stroke-linecap: square"/>
     </g>
     <g id="line2d_53">
      <g>
       <use xlink:href="#m86eb77d479" x="273.3284" y="534.04" style="stroke: #000000; stroke-width: 0.8"/>
      </g>
     </g>
     <g id="text_29">
      <!-- 9 -->
      <g transform="translate(270.14715 548.638438) scale(0.1 -0.1)">
       <use xlink:href="#DejaVuSans-39"/>
      </g>
     </g>
    </g>
    <g id="xtick_20">
     <g id="line2d_54">
      <path d="M 297.346 534.04 
L 297.346 378.973333 
" clip-path="url(#p2f0feac051)" style="fill: none; stroke: #b0b0b0; stroke-opacity: 0.3; stroke-width: 0.8; stroke-linecap: square"/>
     </g>
     <g id="line2d_55">
      <g>
       <use xlink:href="#m86eb77d479" x="297.346" y="534.04" style="stroke: #000000; stroke-width: 0.8"/>
      </g>
     </g>
     <g id="text_30">
      <!-- 10 -->
      <g transform="translate(290.9835 548.638438) scale(0.1 -0.1)">
       <use xlink:href="#DejaVuSans-31"/>
       <use xlink:href="#DejaVuSans-30" transform="translate(63.623047 0)"/>
      </g>
     </g>
    </g>
    <g id="xtick_21">
     <g id="line2d_56">
      <path d="M 321.3636 534.04 
L 321.3636 378.973333 
" clip-path="url(#p2f0feac051)" style="fill: none; stroke: #b0b0b0; stroke-opacity: 0.3; stroke-width: 0.8; stroke-linecap: square"/>
     </g>
     <g id="line2d_57">
      <g>
       <use xlink:href="#m86eb77d479" x="321.3636" y="534.04" style="stroke: #000000; stroke-width: 0.8"/>
      </g>
     </g>
     <g id="text_31">
      <!-- 11 -->
      <g transform="translate(315.0011 548.638438) scale(0.1 -0.1)">
       <use xlink:href="#DejaVuSans-31"/>
       <use xlink:href="#DejaVuSans-31" transform="translate(63.623047 0)"/>
      </g>
     </g>
    </g>
    <g id="xtick_22">
     <g id="line2d_58">
      <path d="M 345.3812 534.04 
L 345.3812 378.973333 
" clip-path="url(#p2f0feac051)" style="fill: none; stroke: #b0b0b0; stroke-opacity: 0.3; stroke-width: 0.8; stroke-linecap: square"/>
     </g>
     <g id="line2d_59">
      <g>
       <use xlink:href="#m86eb77d479" x="345.3812" y="534.04" style="stroke: #000000; stroke-width: 0.8"/>
      </g>
     </g>
     <g id="text_32">
      <!-- 12 -->
      <g transform="translate(339.0187 548.638438) scale(0.1 -0.1)">
       <use xlink:href="#DejaVuSans-31"/>
       <use xlink:href="#DejaVuSans-32" transform="translate(63.623047 0)"/>
      </g>
     </g>
    </g>
    <g id="xtick_23">
     <g id="line2d_60">
      <path d="M 369.3988 534.04 
L 369.3988 378.973333 
" clip-path="url(#p2f0feac051)" style="fill: none; stroke: #b0b0b0; stroke-opacity: 0.3; stroke-width: 0.8; stroke-linecap: square"/>
     </g>
     <g id="line2d_61">
      <g>
       <use xlink:href="#m86eb77d479" x="369.3988" y="534.04" style="stroke: #000000; stroke-width: 0.8"/>
      </g>
     </g>
     <g id="text_33">
      <!-- 13 -->
      <g transform="translate(363.0363 548.638438) scale(0.1 -0.1)">
       <use xlink:href="#DejaVuSans-31"/>
       <use xlink:href="#DejaVuSans-33" transform="translate(63.623047 0)"/>
      </g>
     </g>
    </g>
    <g id="xtick_24">
     <g id="line2d_62">
      <path d="M 393.4164 534.04 
L 393.4164 378.973333 
" clip-path="url(#p2f0feac051)" style="fill: none; stroke: #b0b0b0; stroke-opacity: 0.3; stroke-width: 0.8; stroke-linecap: square"/>
     </g>
     <g id="line2d_63">
      <g>
       <use xlink:href="#m86eb77d479" x="393.4164" y="534.04" style="stroke: #000000; stroke-width: 0.8"/>
      </g>
     </g>
     <g id="text_34">
      <!-- 14 -->
      <g transform="translate(387.0539 548.638438) scale(0.1 -0.1)">
       <use xlink:href="#DejaVuSans-31"/>
       <use xlink:href="#DejaVuSans-34" transform="translate(63.623047 0)"/>
      </g>
     </g>
    </g>
    <g id="xtick_25">
     <g id="line2d_64">
      <path d="M 417.434 534.04 
L 417.434 378.973333 
" clip-path="url(#p2f0feac051)" style="fill: none; stroke: #b0b0b0; stroke-opacity: 0.3; stroke-width: 0.8; stroke-linecap: square"/>
     </g>
     <g id="line2d_65">
      <g>
       <use xlink:href="#m86eb77d479" x="417.434" y="534.04" style="stroke: #000000; stroke-width: 0.8"/>
      </g>
     </g>
     <g id="text_35">
      <!-- 15 -->
      <g transform="translate(411.0715 548.638438) scale(0.1 -0.1)">
       <use xlink:href="#DejaVuSans-31"/>
       <use xlink:href="#DejaVuSans-35" transform="translate(63.623047 0)"/>
      </g>
     </g>
    </g>
    <g id="xtick_26">
     <g id="line2d_66">
      <path d="M 441.4516 534.04 
L 441.4516 378.973333 
" clip-path="url(#p2f0feac051)" style="fill: none; stroke: #b0b0b0; stroke-opacity: 0.3; stroke-width: 0.8; stroke-linecap: square"/>
     </g>
     <g id="line2d_67">
      <g>
       <use xlink:href="#m86eb77d479" x="441.4516" y="534.04" style="stroke: #000000; stroke-width: 0.8"/>
      </g>
     </g>
     <g id="text_36">
      <!-- 16 -->
      <g transform="translate(435.0891 548.638438) scale(0.1 -0.1)">
       <use xlink:href="#DejaVuSans-31"/>
       <use xlink:href="#DejaVuSans-36" transform="translate(63.623047 0)"/>
      </g>
     </g>
    </g>
    <g id="xtick_27">
     <g id="line2d_68">
      <path d="M 465.4692 534.04 
L 465.4692 378.973333 
" clip-path="url(#p2f0feac051)" style="fill: none; stroke: #b0b0b0; stroke-opacity: 0.3; stroke-width: 0.8; stroke-linecap: square"/>
     </g>
     <g id="line2d_69">
      <g>
       <use xlink:href="#m86eb77d479" x="465.4692" y="534.04" style="stroke: #000000; stroke-width: 0.8"/>
      </g>
     </g>
     <g id="text_37">
      <!-- 17 -->
      <g transform="translate(459.1067 548.638438) scale(0.1 -0.1)">
       <use xlink:href="#DejaVuSans-31"/>
       <use xlink:href="#DejaVuSans-37" transform="translate(63.623047 0)"/>
      </g>
     </g>
    </g>
    <g id="xtick_28">
     <g id="line2d_70">
      <path d="M 489.4868 534.04 
L 489.4868 378.973333 
" clip-path="url(#p2f0feac051)" style="fill: none; stroke: #b0b0b0; stroke-opacity: 0.3; stroke-width: 0.8; stroke-linecap: square"/>
     </g>
     <g id="line2d_71">
      <g>
       <use xlink:href="#m86eb77d479" x="489.4868" y="534.04" style="stroke: #000000; stroke-width: 0.8"/>
      </g>
     </g>
     <g id="text_38">
      <!-- 18 -->
      <g transform="translate(483.1243 548.638438) scale(0.1 -0.1)">
       <use xlink:href="#DejaVuSans-31"/>
       <use xlink:href="#DejaVuSans-38" transform="translate(63.623047 0)"/>
      </g>
     </g>
    </g>
    <g id="xtick_29">
     <g id="line2d_72">
      <path d="M 513.5044 534.04 
L 513.5044 378.973333 
" clip-path="url(#p2f0feac051)" style="fill: none; stroke: #b0b0b0; stroke-opacity: 0.3; stroke-width: 0.8; stroke-linecap: square"/>
     </g>
     <g id="line2d_73">
      <g>
       <use xlink:href="#m86eb77d479" x="513.5044" y="534.04" style="stroke: #000000; stroke-width: 0.8"/>
      </g>
     </g>
     <g id="text_39">
      <!-- 19 -->
      <g transform="translate(507.1419 548.638438) scale(0.1 -0.1)">
       <use xlink:href="#DejaVuSans-31"/>
       <use xlink:href="#DejaVuSans-39" transform="translate(63.623047 0)"/>
      </g>
     </g>
    </g>
    <g id="xtick_30">
     <g id="line2d_74">
      <path d="M 537.522 534.04 
L 537.522 378.973333 
" clip-path="url(#p2f0feac051)" style="fill: none; stroke: #b0b0b0; stroke-opacity: 0.3; stroke-width: 0.8; stroke-linecap: square"/>
     </g>
     <g id="line2d_75">
      <g>
       <use xlink:href="#m86eb77d479" x="537.522" y="534.04" style="stroke: #000000; stroke-width: 0.8"/>
      </g>
     </g>
     <g id="text_40">
      <!-- 20 -->
      <g transform="translate(531.1595 548.638438) scale(0.1 -0.1)">
       <use xlink:href="#DejaVuSans-32"/>
       <use xlink:href="#DejaVuSans-30" transform="translate(63.623047 0)"/>
      </g>
     </g>
    </g>
    <g id="xtick_31">
     <g id="line2d_76">
      <path d="M 561.5396 534.04 
L 561.5396 378.973333 
" clip-path="url(#p2f0feac051)" style="fill: none; stroke: #b0b0b0; stroke-opacity: 0.3; stroke-width: 0.8; stroke-linecap: square"/>
     </g>
     <g id="line2d_77">
      <g>
       <use xlink:href="#m86eb77d479" x="561.5396" y="534.04" style="stroke: #000000; stroke-width: 0.8"/>
      </g>
     </g>
     <g id="text_41">
      <!-- 21 -->
      <g transform="translate(555.1771 548.638438) scale(0.1 -0.1)">
       <use xlink:href="#DejaVuSans-32"/>
       <use xlink:href="#DejaVuSans-31" transform="translate(63.623047 0)"/>
      </g>
     </g>
    </g>
    <g id="xtick_32">
     <g id="line2d_78">
      <path d="M 585.5572 534.04 
L 585.5572 378.973333 
" clip-path="url(#p2f0feac051)" style="fill: none; stroke: #b0b0b0; stroke-opacity: 0.3; stroke-width: 0.8; stroke-linecap: square"/>
     </g>
     <g id="line2d_79">
      <g>
       <use xlink:href="#m86eb77d479" x="585.5572" y="534.04" style="stroke: #000000; stroke-width: 0.8"/>
      </g>
     </g>
     <g id="text_42">
      <!-- 22 -->
      <g transform="translate(579.1947 548.638438) scale(0.1 -0.1)">
       <use xlink:href="#DejaVuSans-32"/>
       <use xlink:href="#DejaVuSans-32" transform="translate(63.623047 0)"/>
      </g>
     </g>
    </g>
    <g id="xtick_33">
     <g id="line2d_80">
      <path d="M 609.5748 534.04 
L 609.5748 378.973333 
" clip-path="url(#p2f0feac051)" style="fill: none; stroke: #b0b0b0; stroke-opacity: 0.3; stroke-width: 0.8; stroke-linecap: square"/>
     </g>
     <g id="line2d_81">
      <g>
       <use xlink:href="#m86eb77d479" x="609.5748" y="534.04" style="stroke: #000000; stroke-width: 0.8"/>
      </g>
     </g>
     <g id="text_43">
      <!-- 23 -->
      <g transform="translate(603.2123 548.638438) scale(0.1 -0.1)">
       <use xlink:href="#DejaVuSans-32"/>
       <use xlink:href="#DejaVuSans-33" transform="translate(63.623047 0)"/>
      </g>
     </g>
    </g>
    <g id="xtick_34">
     <g id="line2d_82">
      <path d="M 633.5924 534.04 
L 633.5924 378.973333 
" clip-path="url(#p2f0feac051)" style="fill: none; stroke: #b0b0b0; stroke-opacity: 0.3; stroke-width: 0.8; stroke-linecap: square"/>
     </g>
     <g id="line2d_83">
      <g>
       <use xlink:href="#m86eb77d479" x="633.5924" y="534.04" style="stroke: #000000; stroke-width: 0.8"/>
      </g>
     </g>
     <g id="text_44">
      <!-- 24 -->
      <g transform="translate(627.2299 548.638438) scale(0.1 -0.1)">
       <use xlink:href="#DejaVuSans-32"/>
       <use xlink:href="#DejaVuSans-34" transform="translate(63.623047 0)"/>
      </g>
     </g>
    </g>
    <g id="xtick_35">
     <g id="line2d_84">
      <path d="M 657.61 534.04 
L 657.61 378.973333 
" clip-path="url(#p2f0feac051)" style="fill: none; stroke: #b0b0b0; stroke-opacity: 0.3; stroke-width: 0.8; stroke-linecap: square"/>
     </g>
     <g id="line2d_85">
      <g>
       <use xlink:href="#m86eb77d479" x="657.61" y="534.04" style="stroke: #000000; stroke-width: 0.8"/>
      </g>
     </g>
     <g id="text_45">
      <!-- 25 -->
      <g transform="translate(651.2475 548.638438) scale(0.1 -0.1)">
       <use xlink:href="#DejaVuSans-32"/>
       <use xlink:href="#DejaVuSans-35" transform="translate(63.623047 0)"/>
      </g>
     </g>
    </g>
    <g id="text_46">
     <!-- Frequency (Hz) -->
     <g transform="translate(319.685313 562.316562) scale(0.1 -0.1)">
      <defs>
       <path id="DejaVuSans-46" d="M 628 4666 
L 3309 4666 
L 3309 4134 
L 1259 4134 
L 1259 2759 
L 3109 2759 
L 3109 2228 
L 1259 2228 
L 1259 0 
L 628 0 
L 628 4666 
z
" transform="scale(0.015625)"/>
       <path id="DejaVuSans-71" d="M 947 1747 
Q 947 1113 1208 752 
Q 1469 391 1925 391 
Q 2381 391 2643 752 
Q 2906 1113 2906 1747 
Q 2906 2381 2643 2742 
Q 2381 3103 1925 3103 
Q 1469 3103 1208 2742 
Q 947 2381 947 1747 
z
M 2906 525 
Q 2725 213 2448 61 
Q 2172 -91 1784 -91 
Q 1150 -91 751 415 
Q 353 922 353 1747 
Q 353 2572 751 3078 
Q 1150 3584 1784 3584 
Q 2172 3584 2448 3432 
Q 2725 3281 2906 2969 
L 2906 3500 
L 3481 3500 
L 3481 -1331 
L 2906 -1331 
L 2906 525 
z
" transform="scale(0.015625)"/>
       <path id="DejaVuSans-75" d="M 544 1381 
L 544 3500 
L 1119 3500 
L 1119 1403 
Q 1119 906 1312 657 
Q 1506 409 1894 409 
Q 2359 409 2629 706 
Q 2900 1003 2900 1516 
L 2900 3500 
L 3475 3500 
L 3475 0 
L 2900 0 
L 2900 538 
Q 2691 219 2414 64 
Q 2138 -91 1772 -91 
Q 1169 -91 856 284 
Q 544 659 544 1381 
z
M 1991 3584 
L 1991 3584 
z
" transform="scale(0.015625)"/>
       <path id="DejaVuSans-48" d="M 628 4666 
L 1259 4666 
L 1259 2753 
L 3553 2753 
L 3553 4666 
L 4184 4666 
L 4184 0 
L 3553 0 
L 3553 2222 
L 1259 2222 
L 1259 0 
L 628 0 
L 628 4666 
z
" transform="scale(0.015625)"/>
       <path id="DejaVuSans-7a" d="M 353 3500 
L 3084 3500 
L 3084 2975 
L 922 459 
L 3084 459 
L 3084 0 
L 275 0 
L 275 525 
L 2438 3041 
L 353 3041 
L 353 3500 
z
" transform="scale(0.015625)"/>
      </defs>
      <use xlink:href="#DejaVuSans-46"/>
      <use xlink:href="#DejaVuSans-72" transform="translate(50.269531 0)"/>
      <use xlink:href="#DejaVuSans-65" transform="translate(89.132812 0)"/>
      <use xlink:href="#DejaVuSans-71" transform="translate(150.65625 0)"/>
      <use xlink:href="#DejaVuSans-75" transform="translate(214.132812 0)"/>
      <use xlink:href="#DejaVuSans-65" transform="translate(277.511719 0)"/>
      <use xlink:href="#DejaVuSans-6e" transform="translate(339.035156 0)"/>
      <use xlink:href="#DejaVuSans-63" transform="translate(402.414062 0)"/>
      <use xlink:href="#DejaVuSans-79" transform="translate(457.394531 0)"/>
      <use xlink:href="#DejaVuSans-20" transform="translate(516.574219 0)"/>
      <use xlink:href="#DejaVuSans-28" transform="translate(548.361328 0)"/>
      <use xlink:href="#DejaVuSans-48" transform="translate(587.375 0)"/>
      <use xlink:href="#DejaVuSans-7a" transform="translate(662.570312 0)"/>
      <use xlink:href="#DejaVuSans-29" transform="translate(715.060547 0)"/>
     </g>
    </g>
   </g>
   <g id="matplotlib.axis_4">
    <g id="ytick_8">
     <g id="line2d_86">
      <path d="M 57.17 526.991515 
L 657.61 526.991515 
" clip-path="url(#p2f0feac051)" style="fill: none; stroke: #b0b0b0; stroke-opacity: 0.3; stroke-width: 0.8; stroke-linecap: square"/>
     </g>
     <g id="line2d_87">
      <g>
       <use xlink:href="#m4b80ac9d1a" x="57.17" y="526.991515" style="stroke: #000000; stroke-width: 0.8"/>
      </g>
     </g>
     <g id="text_47">
      <!-- 0 -->
      <g transform="translate(43.8075 530.790734) scale(0.1 -0.1)">
       <use xlink:href="#DejaVuSans-30"/>
      </g>
     </g>
    </g>
    <g id="ytick_9">
     <g id="line2d_88">
      <path d="M 57.17 487.748624 
L 657.61 487.748624 
" clip-path="url(#p2f0feac051)" style="fill: none; stroke: #b0b0b0; stroke-opacity: 0.3; stroke-width: 0.8; stroke-linecap: square"/>
     </g>
     <g id="line2d_89">
      <g>
       <use xlink:href="#m4b80ac9d1a" x="57.17" y="487.748624" style="stroke: #000000; stroke-width: 0.8"/>
      </g>
     </g>
     <g id="text_48">
      <!-- 1000 -->
      <g transform="translate(24.72 491.547843) scale(0.1 -0.1)">
       <use xlink:href="#DejaVuSans-31"/>
       <use xlink:href="#DejaVuSans-30" transform="translate(63.623047 0)"/>
       <use xlink:href="#DejaVuSans-30" transform="translate(127.246094 0)"/>
       <use xlink:href="#DejaVuSans-30" transform="translate(190.869141 0)"/>
      </g>
     </g>
    </g>
    <g id="ytick_10">
     <g id="line2d_90">
      <path d="M 57.17 448.505733 
L 657.61 448.505733 
" clip-path="url(#p2f0feac051)" style="fill: none; stroke: #b0b0b0; stroke-opacity: 0.3; stroke-width: 0.8; stroke-linecap: square"/>
     </g>
     <g id="line2d_91">
      <g>
       <use xlink:href="#m4b80ac9d1a" x="57.17" y="448.505733" style="stroke: #000000; stroke-width: 0.8"/>
      </g>
     </g>
     <g id="text_49">
      <!-- 2000 -->
      <g transform="translate(24.72 452.304951) scale(0.1 -0.1)">
       <use xlink:href="#DejaVuSans-32"/>
       <use xlink:href="#DejaVuSans-30" transform="translate(63.623047 0)"/>
       <use xlink:href="#DejaVuSans-30" transform="translate(127.246094 0)"/>
       <use xlink:href="#DejaVuSans-30" transform="translate(190.869141 0)"/>
      </g>
     </g>
    </g>
    <g id="ytick_11">
     <g id="line2d_92">
      <path d="M 57.17 409.262841 
L 657.61 409.262841 
" clip-path="url(#p2f0feac051)" style="fill: none; stroke: #b0b0b0; stroke-opacity: 0.3; stroke-width: 0.8; stroke-linecap: square"/>
     </g>
     <g id="line2d_93">
      <g>
       <use xlink:href="#m4b80ac9d1a" x="57.17" y="409.262841" style="stroke: #000000; stroke-width: 0.8"/>
      </g>
     </g>
     <g id="text_50">
      <!-- 3000 -->
      <g transform="translate(24.72 413.06206) scale(0.1 -0.1)">
       <use xlink:href="#DejaVuSans-33"/>
       <use xlink:href="#DejaVuSans-30" transform="translate(63.623047 0)"/>
       <use xlink:href="#DejaVuSans-30" transform="translate(127.246094 0)"/>
       <use xlink:href="#DejaVuSans-30" transform="translate(190.869141 0)"/>
      </g>
     </g>
    </g>
    <g id="text_51">
     <!-- Amplitude -->
     <g transform="translate(18.640312 482.129323) rotate(-90) scale(0.1 -0.1)">
      <defs>
       <path id="DejaVuSans-41" d="M 2188 4044 
L 1331 1722 
L 3047 1722 
L 2188 4044 
z
M 1831 4666 
L 2547 4666 
L 4325 0 
L 3669 0 
L 3244 1197 
L 1141 1197 
L 716 0 
L 50 0 
L 1831 4666 
z
" transform="scale(0.015625)"/>
       <path id="DejaVuSans-70" d="M 1159 525 
L 1159 -1331 
L 581 -1331 
L 581 3500 
L 1159 3500 
L 1159 2969 
Q 1341 3281 1617 3432 
Q 1894 3584 2278 3584 
Q 2916 3584 3314 3078 
Q 3713 2572 3713 1747 
Q 3713 922 3314 415 
Q 2916 -91 2278 -91 
Q 1894 -91 1617 61 
Q 1341 213 1159 525 
z
M 3116 1747 
Q 3116 2381 2855 2742 
Q 2594 3103 2138 3103 
Q 1681 3103 1420 2742 
Q 1159 2381 1159 1747 
Q 1159 1113 1420 752 
Q 1681 391 2138 391 
Q 2594 391 2855 752 
Q 3116 1113 3116 1747 
z
" transform="scale(0.015625)"/>
      </defs>
      <use xlink:href="#DejaVuSans-41"/>
      <use xlink:href="#DejaVuSans-6d" transform="translate(68.408203 0)"/>
      <use xlink:href="#DejaVuSans-70" transform="translate(165.820312 0)"/>
      <use xlink:href="#DejaVuSans-6c" transform="translate(229.296875 0)"/>
      <use xlink:href="#DejaVuSans-69" transform="translate(257.080078 0)"/>
      <use xlink:href="#DejaVuSans-74" transform="translate(284.863281 0)"/>
      <use xlink:href="#DejaVuSans-75" transform="translate(324.072266 0)"/>
      <use xlink:href="#DejaVuSans-64" transform="translate(387.451172 0)"/>
      <use xlink:href="#DejaVuSans-65" transform="translate(450.927734 0)"/>
     </g>
    </g>
   </g>
   <g id="line2d_94">
    <path d="M 57.17 386.021818 
L 66.771667 526.944075 
L 71.572501 526.974893 
L 81.174168 520.527088 
L 90.775836 526.987221 
L 364.423353 526.989492 
L 638.070871 526.990057 
L 721 526.990749 
L 721 526.990749 
" clip-path="url(#p2f0feac051)" style="fill: none; stroke: #0000ff; stroke-width: 1.5; stroke-linecap: square"/>
   </g>
   <g id="line2d_95">
    <path d="M 57.17 526.982079 
L 132.224993 526.991344 
L 660.612142 526.991511 
L 660.612142 526.991511 
" clip-path="url(#p2f0feac051)" style="fill: none; stroke: #ff0000; stroke-width: 1.5; stroke-linecap: square"/>
   </g>
   <g id="patch_8">
    <path d="M 57.17 534.04 
L 57.17 378.973333 
" style="fill: none; stroke: #000000; stroke-width: 0.8; stroke-linejoin: miter; stroke-linecap: square"/>
   </g>
   <g id="patch_9">
    <path d="M 657.61 534.04 
L 657.61 378.973333 
" style="fill: none; stroke: #000000; stroke-width: 0.8; stroke-linejoin: miter; stroke-linecap: square"/>
   </g>
   <g id="patch_10">
    <path d="M 57.17 534.04 
L 657.61 534.04 
" style="fill: none; stroke: #000000; stroke-width: 0.8; stroke-linejoin: miter; stroke-linecap: square"/>
   </g>
   <g id="patch_11">
    <path d="M 57.17 378.973333 
L 657.61 378.973333 
" style="fill: none; stroke: #000000; stroke-width: 0.8; stroke-linejoin: miter; stroke-linecap: square"/>
   </g>
   <g id="legend_1">
    <g id="patch_12">
     <path d="M 569.274063 416.329583 
L 650.61 416.329583 
Q 652.61 416.329583 652.61 414.329583 
L 652.61 385.973333 
Q 652.61 383.973333 650.61 383.973333 
L 569.274063 383.973333 
Q 567.274063 383.973333 567.274063 385.973333 
L 567.274063 414.329583 
Q 567.274063 416.329583 569.274063 416.329583 
z
" style="fill: #ffffff; opacity: 0.8; stroke: #cccccc; stroke-linejoin: miter"/>
    </g>
    <g id="line2d_96">
     <path d="M 571.274063 392.071771 
L 581.274063 392.071771 
L 591.274063 392.071771 
" style="fill: none; stroke: #0000ff; stroke-width: 1.5; stroke-linecap: square"/>
    </g>
    <g id="text_52">
     <!-- Telemetry -->
     <g transform="translate(599.274063 395.571771) scale(0.1 -0.1)">
      <use xlink:href="#DejaVuSans-54"/>
      <use xlink:href="#DejaVuSans-65" transform="translate(44.083984 0)"/>
      <use xlink:href="#DejaVuSans-6c" transform="translate(105.607422 0)"/>
      <use xlink:href="#DejaVuSans-65" transform="translate(133.390625 0)"/>
      <use xlink:href="#DejaVuSans-6d" transform="translate(194.914062 0)"/>
      <use xlink:href="#DejaVuSans-65" transform="translate(292.326172 0)"/>
      <use xlink:href="#DejaVuSans-74" transform="translate(353.849609 0)"/>
      <use xlink:href="#DejaVuSans-72" transform="translate(393.058594 0)"/>
      <use xlink:href="#DejaVuSans-79" transform="translate(434.171875 0)"/>
     </g>
    </g>
    <g id="line2d_97">
     <path d="M 571.274063 406.749896 
L 581.274063 406.749896 
L 591.274063 406.749896 
" style="fill: none; stroke: #ff0000; stroke-width: 1.5; stroke-linecap: square"/>
    </g>
    <g id="text_53">
     <!-- Encoder -->
     <g transform="translate(599.274063 410.249896) scale(0.1 -0.1)">
      <use xlink:href="#DejaVuSans-45"/>
      <use xlink:href="#DejaVuSans-6e" transform="translate(63.183594 0)"/>
      <use xlink:href="#DejaVuSans-63" transform="translate(126.5625 0)"/>
      <use xlink:href="#DejaVuSans-6f" transform="translate(181.542969 0)"/>
      <use xlink:href="#DejaVuSans-64" transform="translate(242.724609 0)"/>
      <use xlink:href="#DejaVuSans-65" transform="translate(306.201172 0)"/>
      <use xlink:href="#DejaVuSans-72" transform="translate(367.724609 0)"/>
     </g>
    </g>
   </g>
  </g>
  <g id="axes_3">
   <g id="matplotlib.axis_5">
    <g id="ytick_12">
     <g id="line2d_98">
      <defs>
       <path id="m4e8327634c" d="M 0 0 
L 3.5 0 
" style="stroke: #000000; stroke-width: 0.8"/>
      </defs>
      <g>
       <use xlink:href="#m4e8327634c" x="657.61" y="326.229908" style="stroke: #000000; stroke-width: 0.8"/>
      </g>
     </g>
     <g id="text_54">
      <!-- 1.25 -->
      <g style="fill: #ff0000" transform="translate(664.61 330.029127) scale(0.1 -0.1)">
       <defs>
        <path id="DejaVuSans-2212" d="M 678 2272 
L 4684 2272 
L 4684 1741 
L 678 1741 
L 678 2272 
z
" transform="scale(0.015625)"/>
        <path id="DejaVuSans-2e" d="M 684 794 
L 1344 794 
L 1344 0 
L 684 0 
L 684 794 
z
" transform="scale(0.015625)"/>
       </defs>
       <use xlink:href="#DejaVuSans-2212"/>
       <use xlink:href="#DejaVuSans-31" transform="translate(83.789062 0)"/>
       <use xlink:href="#DejaVuSans-2e" transform="translate(147.412109 0)"/>
       <use xlink:href="#DejaVuSans-32" transform="translate(179.199219 0)"/>
       <use xlink:href="#DejaVuSans-35" transform="translate(242.822266 0)"/>
      </g>
     </g>
    </g>
    <g id="ytick_13">
     <g id="line2d_99">
      <g>
       <use xlink:href="#m4e8327634c" x="657.61" y="290.213123" style="stroke: #000000; stroke-width: 0.8"/>
      </g>
     </g>
     <g id="text_55">
      <!-- 1.00 -->
      <g style="fill: #ff0000" transform="translate(664.61 294.012341) scale(0.1 -0.1)">
       <use xlink:href="#DejaVuSans-2212"/>
       <use xlink:href="#DejaVuSans-31" transform="translate(83.789062 0)"/>
       <use xlink:href="#DejaVuSans-2e" transform="translate(147.412109 0)"/>
       <use xlink:href="#DejaVuSans-30" transform="translate(179.199219 0)"/>
       <use xlink:href="#DejaVuSans-30" transform="translate(242.822266 0)"/>
      </g>
     </g>
    </g>
    <g id="ytick_14">
     <g id="line2d_100">
      <g>
       <use xlink:href="#m4e8327634c" x="657.61" y="254.196338" style="stroke: #000000; stroke-width: 0.8"/>
      </g>
     </g>
     <g id="text_56">
      <!-- 0.75 -->
      <g style="fill: #ff0000" transform="translate(664.61 257.995556) scale(0.1 -0.1)">
       <use xlink:href="#DejaVuSans-2212"/>
       <use xlink:href="#DejaVuSans-30" transform="translate(83.789062 0)"/>
       <use xlink:href="#DejaVuSans-2e" transform="translate(147.412109 0)"/>
       <use xlink:href="#DejaVuSans-37" transform="translate(179.199219 0)"/>
       <use xlink:href="#DejaVuSans-35" transform="translate(242.822266 0)"/>
      </g>
     </g>
    </g>
    <g id="ytick_15">
     <g id="line2d_101">
      <g>
       <use xlink:href="#m4e8327634c" x="657.61" y="218.179552" style="stroke: #000000; stroke-width: 0.8"/>
      </g>
     </g>
     <g id="text_57">
      <!-- 0.50 -->
      <g style="fill: #ff0000" transform="translate(664.61 221.978771) scale(0.1 -0.1)">
       <use xlink:href="#DejaVuSans-2212"/>
       <use xlink:href="#DejaVuSans-30" transform="translate(83.789062 0)"/>
       <use xlink:href="#DejaVuSans-2e" transform="translate(147.412109 0)"/>
       <use xlink:href="#DejaVuSans-35" transform="translate(179.199219 0)"/>
       <use xlink:href="#DejaVuSans-30" transform="translate(242.822266 0)"/>
      </g>
     </g>
    </g>
    <g id="ytick_16">
     <g id="line2d_102">
      <g>
       <use xlink:href="#m4e8327634c" x="657.61" y="182.162767" style="stroke: #000000; stroke-width: 0.8"/>
      </g>
     </g>
     <g id="text_58">
      <!-- 0.25 -->
      <g style="fill: #ff0000" transform="translate(664.61 185.961986) scale(0.1 -0.1)">
       <use xlink:href="#DejaVuSans-2212"/>
       <use xlink:href="#DejaVuSans-30" transform="translate(83.789062 0)"/>
       <use xlink:href="#DejaVuSans-2e" transform="translate(147.412109 0)"/>
       <use xlink:href="#DejaVuSans-32" transform="translate(179.199219 0)"/>
       <use xlink:href="#DejaVuSans-35" transform="translate(242.822266 0)"/>
      </g>
     </g>
    </g>
    <g id="ytick_17">
     <g id="line2d_103">
      <g>
       <use xlink:href="#m4e8327634c" x="657.61" y="146.145982" style="stroke: #000000; stroke-width: 0.8"/>
      </g>
     </g>
     <g id="text_59">
      <!-- 0.00 -->
      <g style="fill: #ff0000" transform="translate(664.61 149.945201) scale(0.1 -0.1)">
       <use xlink:href="#DejaVuSans-30"/>
       <use xlink:href="#DejaVuSans-2e" transform="translate(63.623047 0)"/>
       <use xlink:href="#DejaVuSans-30" transform="translate(95.410156 0)"/>
       <use xlink:href="#DejaVuSans-30" transform="translate(159.033203 0)"/>
      </g>
     </g>
    </g>
    <g id="ytick_18">
     <g id="line2d_104">
      <g>
       <use xlink:href="#m4e8327634c" x="657.61" y="110.129197" style="stroke: #000000; stroke-width: 0.8"/>
      </g>
     </g>
     <g id="text_60">
      <!-- 0.25 -->
      <g style="fill: #ff0000" transform="translate(664.61 113.928416) scale(0.1 -0.1)">
       <use xlink:href="#DejaVuSans-30"/>
       <use xlink:href="#DejaVuSans-2e" transform="translate(63.623047 0)"/>
       <use xlink:href="#DejaVuSans-32" transform="translate(95.410156 0)"/>
       <use xlink:href="#DejaVuSans-35" transform="translate(159.033203 0)"/>
      </g>
     </g>
    </g>
    <g id="ytick_19">
     <g id="line2d_105">
      <g>
       <use xlink:href="#m4e8327634c" x="657.61" y="74.112412" style="stroke: #000000; stroke-width: 0.8"/>
      </g>
     </g>
     <g id="text_61">
      <!-- 0.50 -->
      <g style="fill: #ff0000" transform="translate(664.61 77.911631) scale(0.1 -0.1)">
       <use xlink:href="#DejaVuSans-30"/>
       <use xlink:href="#DejaVuSans-2e" transform="translate(63.623047 0)"/>
       <use xlink:href="#DejaVuSans-35" transform="translate(95.410156 0)"/>
       <use xlink:href="#DejaVuSans-30" transform="translate(159.033203 0)"/>
      </g>
     </g>
    </g>
    <g id="ytick_20">
     <g id="line2d_106">
      <g>
       <use xlink:href="#m4e8327634c" x="657.61" y="38.095627" style="stroke: #000000; stroke-width: 0.8"/>
      </g>
     </g>
     <g id="text_62">
      <!-- 0.75 -->
      <g style="fill: #ff0000" transform="translate(664.61 41.894846) scale(0.1 -0.1)">
       <use xlink:href="#DejaVuSans-30"/>
       <use xlink:href="#DejaVuSans-2e" transform="translate(63.623047 0)"/>
       <use xlink:href="#DejaVuSans-37" transform="translate(95.410156 0)"/>
       <use xlink:href="#DejaVuSans-35" transform="translate(159.033203 0)"/>
      </g>
     </g>
    </g>
    <g id="text_63">
     <!-- Encoder -->
     <g style="fill: #ff0000" transform="translate(706.85375 202.389635) rotate(-90) scale(0.1 -0.1)">
      <use xlink:href="#DejaVuSans-45"/>
      <use xlink:href="#DejaVuSans-6e" transform="translate(63.183594 0)"/>
      <use xlink:href="#DejaVuSans-63" transform="translate(126.5625 0)"/>
      <use xlink:href="#DejaVuSans-6f" transform="translate(181.542969 0)"/>
      <use xlink:href="#DejaVuSans-64" transform="translate(242.724609 0)"/>
      <use xlink:href="#DejaVuSans-65" transform="translate(306.201172 0)"/>
      <use xlink:href="#DejaVuSans-72" transform="translate(367.724609 0)"/>
     </g>
    </g>
   </g>
   <g id="line2d_107">
    <path d="M 84.462727 146.145982 
L 84.892754 146.145982 
L 85.104355 146.722251 
L 85.315956 146.866318 
L 85.745983 146.866318 
L 85.957583 147.874788 
L 86.169184 151.476466 
L 86.810812 173.086538 
L 87.022412 176.256015 
L 87.240839 176.400082 
L 87.452439 176.256015 
L 88.094067 176.256015 
L 88.305668 176.544149 
L 88.517268 177.120417 
L 89.158896 181.730566 
L 90.653752 197.866086 
L 97.261153 273.069133 
L 98.756009 286.611444 
L 99.17921 289.636854 
L 100.039264 296.696144 
L 101.315694 305.628307 
L 102.380523 311.53506 
L 103.445352 316.145208 
L 104.728607 320.179088 
L 105.370235 321.331625 
L 106.223463 322.340095 
L 106.435064 322.340095 
L 106.865091 322.628229 
L 108.353121 322.628229 
L 108.564722 322.484162 
L 108.783148 322.484162 
L 108.994749 322.196028 
L 109.424776 322.196028 
L 109.847977 321.475692 
L 110.271179 320.467222 
L 110.912806 318.018081 
L 111.766035 312.975731 
L 112.619263 307.357112 
L 113.472491 301.018158 
L 114.32572 293.958868 
L 114.755747 290.501257 
L 117.103831 267.594582 
L 118.591861 250.450592 
L 119.233489 243.247235 
L 123.499631 189.654259 
L 124.782886 172.654336 
L 126.059316 156.662884 
L 127.342571 140.527364 
L 131.608713 92.264872 
L 133.31517 75.697151 
L 134.379999 66.909055 
L 136.298056 54.375214 
L 137.362885 49.188797 
L 138.216114 45.587118 
L 139.069342 43.137977 
L 139.71097 41.98544 
L 139.92257 41.841373 
L 140.140997 41.553238 
L 140.352597 41.553238 
L 140.564198 41.409171 
L 140.775799 41.409171 
L 140.994225 41.121037 
L 141.629027 41.121037 
L 142.270655 41.553238 
L 142.693856 42.273574 
L 142.912282 42.417641 
L 143.55391 43.137977 
L 144.407138 43.714245 
L 144.618739 43.714245 
L 144.83034 43.858313 
L 145.04194 43.858313 
L 145.260367 44.00238 
L 146.536796 44.00238 
L 147.178424 47.892192 
L 149.738109 71.231069 
L 152.297794 99.90043 
L 163.178162 246.560779 
L 166.591076 282.721631 
L 167.867505 293.094466 
L 169.785563 306.780844 
L 170.638791 311.246925 
L 171.710446 315.713007 
L 172.775275 319.602819 
L 173.410077 321.043491 
L 173.840104 321.907894 
L 174.051704 322.051961 
L 174.481731 322.484162 
L 174.904933 322.772296 
L 175.123359 322.772296 
L 175.33496 322.916364 
L 176.611389 322.916364 
L 176.829816 322.772296 
L 177.041417 322.484162 
L 177.253017 322.484162 
L 178.317846 320.899424 
L 178.959474 319.026551 
L 180.45433 310.382522 
L 181.519159 302.746964 
L 185.143673 269.899656 
L 191.334698 195.12881 
L 193.252755 170.349262 
L 199.225354 98.315692 
L 201.355012 77.425956 
L 203.273069 62.587041 
L 204.133123 57.544691 
L 205.409553 50.341334 
L 206.262781 46.739655 
L 206.904409 44.578648 
L 207.32761 43.137977 
L 208.610866 41.409171 
L 208.822466 41.409171 
L 209.034067 41.265104 
L 210.317322 41.265104 
L 210.528923 41.409171 
L 211.812178 42.99391 
L 212.23538 43.282044 
L 212.44698 43.570178 
L 212.665407 43.570178 
L 212.877007 43.714245 
L 213.300209 43.714245 
L 213.518635 43.858313 
L 214.583464 43.858313 
L 214.795065 44.00238 
L 215.218266 46.451521 
L 216.931548 60.426034 
L 217.996377 71.663271 
L 219.914435 92.264872 
L 222.262519 122.374904 
L 231.43643 245.840443 
L 233.98929 274.365737 
L 235.914173 291.221593 
L 238.043831 306.348642 
L 238.897059 310.958791 
L 240.180315 316.433342 
L 241.033543 319.458752 
L 241.675171 321.043491 
L 242.9516 322.628229 
L 243.593228 322.628229 
L 243.804829 322.772296 
L 244.869658 322.772296 
L 245.088084 322.484162 
L 245.299685 322.484162 
L 245.511285 322.340095 
L 245.722886 322.340095 
L 246.364514 321.331625 
L 247.217742 318.738417 
L 248.924199 308.941851 
L 249.777427 302.602897 
L 252.125512 282.721631 
L 254.473596 257.798016 
L 257.456482 222.213432 
L 264.070709 137.934155 
L 267.906823 94.425879 
L 269.401679 79.73103 
L 270.043307 73.968345 
L 271.319737 64.171779 
L 272.814593 54.663348 
L 273.45622 51.349804 
L 275.374278 43.714245 
L 276.015905 42.273574 
L 276.439107 41.841373 
L 276.869134 41.553238 
L 277.292335 41.553238 
L 277.503936 41.265104 
L 278.145563 41.265104 
L 278.36399 41.409171 
L 278.575591 41.409171 
L 278.787191 41.553238 
L 279.217218 42.273574 
L 279.428819 42.417641 
L 280.070447 43.137977 
L 280.705249 43.570178 
L 280.916849 43.570178 
L 281.135276 43.714245 
L 281.346876 43.714245 
L 281.558477 43.858313 
L 281.988504 43.858313 
L 282.200105 44.00238 
L 283.053333 44.00238 
L 283.48336 46.307454 
L 284.336588 52.790475 
L 286.896273 78.146292 
L 288.172703 92.120805 
L 290.520787 122.230837 
L 292.015644 142.112102 
L 295.210131 187.06105 
L 297.346614 216.162613 
L 300.1179 250.738726 
L 302.465984 276.670812 
L 303.319213 284.30637 
L 305.878898 304.331703 
L 307.155327 311.679127 
L 308.008556 315.280805 
L 309.503412 320.035021 
L 309.933439 320.899424 
L 310.14504 321.331625 
L 310.35664 321.475692 
L 310.786667 322.196028 
L 310.998268 322.340095 
L 311.421469 322.772296 
L 313.127926 322.772296 
L 314.411181 321.907894 
L 315.045983 320.467222 
L 315.47601 318.882484 
L 316.117638 315.424872 
L 317.824095 304.47577 
L 321.448609 272.060663 
L 322.731864 257.509882 
L 324.861522 233.306602 
L 332.540577 135.340947 
L 335.100262 105.086847 
L 336.595119 89.959797 
L 338.083149 75.553083 
L 341.284462 53.078609 
L 342.13769 48.900662 
L 344.062573 42.705775 
L 344.274174 42.129507 
L 344.697375 41.841373 
L 344.915801 41.409171 
L 345.127402 41.265104 
L 345.550603 41.265104 
L 345.762204 40.97697 
L 346.403832 40.97697 
L 347.045459 41.409171 
L 347.25706 41.841373 
L 347.475487 41.98544 
L 348.321889 42.99391 
L 348.751916 43.282044 
L 348.963517 43.282044 
L 349.393544 43.570178 
L 349.816745 43.570178 
L 350.035172 43.714245 
L 350.246772 43.714245 
L 350.458373 43.858313 
L 350.881574 43.858313 
L 351.100001 43.714245 
L 351.311601 44.00238 
L 351.953229 47.892192 
L 353.659686 62.731108 
L 354.724515 73.680211 
L 357.2842 102.493639 
L 360.273912 142.544304 
L 364.751654 205.069443 
L 367.311339 238.637086 
L 369.440997 263.416635 
L 370.935853 278.975886 
L 372.000682 288.34025 
L 372.64231 293.3826 
L 374.137166 303.899501 
L 376.055223 313.840134 
L 376.908452 317.009611 
L 377.55008 319.314685 
L 377.973281 320.323155 
L 378.403308 321.187558 
L 379.468137 322.484162 
L 379.679738 322.628229 
L 381.386194 322.628229 
L 381.604621 322.484162 
L 381.816221 322.196028 
L 382.239423 322.196028 
L 382.88105 321.187558 
L 383.304252 320.179088 
L 383.734279 318.738417 
L 384.587507 314.272335 
L 385.229135 310.382522 
L 387.577219 292.230063 
L 389.495276 274.509804 
L 392.054962 245.552309 
L 393.973019 222.213432 
L 398.880788 160.120495 
L 400.368819 140.671431 
L 401.652074 124.968113 
L 404.211759 96.586886 
L 406.341417 75.409016 
L 408.907928 57.256557 
L 410.395958 49.620998 
L 411.890814 43.858313 
L 412.744043 42.129507 
L 413.38567 41.697305 
L 413.597271 41.697305 
L 414.027298 41.409171 
L 415.092127 41.409171 
L 416.156956 42.705775 
L 416.368557 42.849843 
L 416.798584 43.282044 
L 417.433386 43.714245 
L 417.651812 43.714245 
L 417.863413 43.858313 
L 418.29344 43.858313 
L 418.50504 44.00238 
L 419.358269 44.00238 
L 419.569869 44.146447 
L 419.999897 46.595588 
L 422.129555 64.892115 
L 424.477639 89.959797 
L 426.184096 110.9936 
L 435.569608 237.628616 
L 438.982521 276.23861 
L 440.258951 287.475847 
L 440.900578 292.806331 
L 441.542206 297.560547 
L 442.818636 306.348642 
L 443.671864 310.958791 
L 444.743519 315.568939 
L 446.019948 319.746887 
L 446.873177 321.475692 
L 447.084777 321.619759 
L 447.514804 322.051961 
L 447.726405 322.196028 
L 447.938006 322.484162 
L 449.644462 322.484162 
L 450.497691 322.051961 
L 450.716117 322.051961 
L 451.569346 320.179088 
L 451.992547 318.738417 
L 452.634175 315.424872 
L 454.129031 305.628307 
L 454.982259 299.43342 
L 457.753545 274.077603 
L 459.029974 259.959023 
L 460.52483 243.247235 
L 463.084515 211.552464 
L 466.074228 173.662806 
L 470.121943 122.518971 
L 472.258427 98.459759 
L 474.176484 79.442896 
L 474.818112 73.824278 
L 475.882941 65.612451 
L 478.654226 49.188797 
L 479.507455 45.731185 
L 480.360683 43.137977 
L 481.002311 41.98544 
L 481.432338 41.697305 
L 481.643939 41.409171 
L 481.855539 41.409171 
L 482.285566 41.121037 
L 483.138795 41.121037 
L 483.561996 41.409171 
L 484.626825 42.705775 
L 485.056852 42.99391 
L 485.268453 43.282044 
L 485.480053 43.282044 
L 485.69848 43.426111 
L 485.91008 43.426111 
L 486.121681 43.570178 
L 486.333282 43.570178 
L 486.551708 43.714245 
L 486.974909 43.714245 
L 487.18651 43.858313 
L 487.404936 43.858313 
L 487.616537 43.714245 
L 487.828138 43.714245 
L 488.258165 46.307454 
L 489.534594 56.536221 
L 490.599423 66.909055 
L 492.094279 82.612373 
L 493.800736 102.349572 
L 504.251077 243.535369 
L 507.66399 280.560624 
L 509.800474 298.136815 
L 511.076904 306.924911 
L 512.360159 313.263865 
L 513.636589 318.162148 
L 514.278217 320.035021 
L 515.131445 321.619759 
L 515.984673 322.628229 
L 517.902731 322.628229 
L 518.974386 322.051961 
L 519.609187 320.755357 
L 520.250815 318.594349 
L 521.957272 308.797784 
L 523.240527 299.43342 
L 526.223414 272.060663 
L 531.131183 214.145673 
L 537.745409 130.010463 
L 540.728296 96.442819 
L 543.718008 68.781928 
L 544.35281 64.171779 
L 546.059266 53.510811 
L 547.130921 48.180327 
L 548.837378 42.705775 
L 549.260579 41.98544 
L 549.690606 41.553238 
L 549.902207 41.409171 
L 550.113808 41.409171 
L 550.325408 41.265104 
L 550.543835 40.97697 
L 551.178637 40.97697 
L 551.397063 41.121037 
L 551.608664 41.121037 
L 553.10352 42.99391 
L 553.738322 43.426111 
L 553.956748 43.426111 
L 554.168349 43.570178 
L 554.59155 43.570178 
L 554.809976 43.714245 
L 555.874805 43.714245 
L 556.086406 44.146447 
L 556.728034 48.180327 
L 557.151235 51.493871 
L 558.857692 67.053122 
L 560.352548 82.75644 
L 562.489032 108.544459 
L 572.509345 243.967571 
L 575.710658 278.831819 
L 577.205514 291.221593 
L 579.335172 306.348642 
L 580.406827 312.111328 
L 581.894857 317.729947 
L 582.748086 320.179088 
L 583.601314 321.763827 
L 584.031341 322.051961 
L 584.242942 322.484162 
L 584.884569 322.484162 
L 585.09617 322.628229 
L 585.949398 322.628229 
L 586.160999 322.484162 
L 586.591026 322.051961 
L 587.232654 322.051961 
L 587.444254 321.907894 
L 588.085882 320.467222 
L 588.720684 317.585879 
L 589.792339 311.390992 
L 590.645567 305.628307 
L 592.352024 292.085996 
L 594.270081 274.365737 
L 597.682995 236.043878 
L 605.150449 140.815498 
L 608.133336 105.230914 
L 612.187877 67.053122 
L 614.959162 50.485401 
L 615.812391 46.883722 
L 617.095646 42.849843 
L 617.518847 42.129507 
L 617.730448 41.98544 
L 617.948875 41.553238 
L 618.372076 41.553238 
L 618.802103 41.121037 
L 619.655331 41.121037 
L 619.866932 41.265104 
L 621.143361 42.849843 
L 621.361788 42.99391 
L 621.784989 43.426111 
L 621.99659 43.570178 
L 622.426617 43.570178 
L 622.638218 43.714245 
L 622.849818 43.714245 
L 623.068245 43.858313 
L 623.279845 43.858313 
L 623.491446 44.00238 
L 623.921473 44.00238 
L 624.133074 43.858313 
L 624.344674 43.858313 
L 624.774701 46.307454 
L 626.051131 56.680288 
L 628.187615 78.002225 
L 630.317273 102.637706 
L 630.317273 102.637706 
" clip-path="url(#pf45d7de007)" style="fill: none; stroke: #ff0000; stroke-width: 1.5; stroke-linecap: square"/>
   </g>
   <g id="patch_13">
    <path d="M 57.17 337.013333 
L 57.17 26.88 
" style="fill: none; stroke: #000000; stroke-width: 0.8; stroke-linejoin: miter; stroke-linecap: square"/>
   </g>
   <g id="patch_14">
    <path d="M 657.61 337.013333 
L 657.61 26.88 
" style="fill: none; stroke: #000000; stroke-width: 0.8; stroke-linejoin: miter; stroke-linecap: square"/>
   </g>
   <g id="patch_15">
    <path d="M 57.17 337.013333 
L 657.61 337.013333 
" style="fill: none; stroke: #000000; stroke-width: 0.8; stroke-linejoin: miter; stroke-linecap: square"/>
   </g>
   <g id="patch_16">
    <path d="M 57.17 26.88 
L 657.61 26.88 
" style="fill: none; stroke: #000000; stroke-width: 0.8; stroke-linejoin: miter; stroke-linecap: square"/>
   </g>
  </g>
 </g>
 <defs>
  <clipPath id="pf45d7de007">
   <rect x="57.17" y="26.88" width="600.44" height="310.133333"/>
  </clipPath>
  <clipPath id="p2f0feac051">
   <rect x="57.17" y="378.973333" width="600.44" height="155.066667"/>
  </clipPath>
 </defs>
</svg>
