<?xml version="1.0" encoding="utf-8" standalone="no"?>
<!DOCTYPE svg PUBLIC "-//W3C//DTD SVG 1.1//EN"
  "http://www.w3.org/Graphics/SVG/1.1/DTD/svg11.dtd">
<svg xmlns:xlink="http://www.w3.org/1999/xlink" width="720pt" height="576pt" viewBox="0 0 720 576" xmlns="http://www.w3.org/2000/svg" version="1.1">
 <metadata>
  <rdf:RDF xmlns:dc="http://purl.org/dc/elements/1.1/" xmlns:cc="http://creativecommons.org/ns#" xmlns:rdf="http://www.w3.org/1999/02/22-rdf-syntax-ns#">
   <cc:Work>
    <dc:type rdf:resource="http://purl.org/dc/dcmitype/StillImage"/>
    <dc:date>2025-10-31T14:55:57.178803</dc:date>
    <dc:format>image/svg+xml</dc:format>
    <dc:creator>
     <cc:Agent>
      <dc:title>Matplotlib v3.10.7, https://matplotlib.org/</dc:title>
     </cc:Agent>
    </dc:creator>
   </cc:Work>
  </rdf:RDF>
 </metadata>
 <defs>
  <style type="text/css">*{stroke-linejoin: round; stroke-linecap: butt}</style>
 </defs>
 <g id="figure_1">
  <g id="patch_1">
   <path d="M 0 576 
L 720 576 
L 720 0 
L 0 0 
z
" style="fill: #ffffff"/>
  </g>
  <g id="axes_1">
   <g id="patch_2">
    <path d="M 57.17 337.013333 
L 663.91 337.013333 
L 663.91 26.88 
L 57.17 26.88 
z
" style="fill: #ffffff"/>
   </g>
   <g id="matplotlib.axis_1">
    <g id="xtick_1">
     <g id="line2d_1">
      <path d="M 84.749091 337.013333 
L 84.749091 26.88 
" clip-path="url(#p09ad1d1935)" style="fill: none; stroke: #b0b0b0; stroke-opacity: 0.3; stroke-width: 0.8; stroke-linecap: square"/>
     </g>
     <g id="line2d_2">
      <defs>
       <path id="me50a121fc1" d="M 0 0 
L 0 3.5 
" style="stroke: #000000; stroke-width: 0.8"/>
      </defs>
      <g>
       <use xlink:href="#me50a121fc1" x="84.749091" y="337.013333" style="stroke: #000000; stroke-width: 0.8"/>
      </g>
     </g>
     <g id="text_1">
      <!-- 0 -->
      <g transform="translate(81.567841 351.611771) scale(0.1 -0.1)">
       <defs>
        <path id="DejaVuSans-30" d="M 2034 4250 
Q 1547 4250 1301 3770 
Q 1056 3291 1056 2328 
Q 1056 1369 1301 889 
Q 1547 409 2034 409 
Q 2525 409 2770 889 
Q 3016 1369 3016 2328 
Q 3016 3291 2770 3770 
Q 2525 4250 2034 4250 
z
M 2034 4750 
Q 2819 4750 3233 4129 
Q 3647 3509 3647 2328 
Q 3647 1150 3233 529 
Q 2819 -91 2034 -91 
Q 1250 -91 836 529 
Q 422 1150 422 2328 
Q 422 3509 836 4129 
Q 1250 4750 2034 4750 
z
" transform="scale(0.015625)"/>
       </defs>
       <use xlink:href="#DejaVuSans-30"/>
      </g>
     </g>
    </g>
    <g id="xtick_2">
     <g id="line2d_3">
      <path d="M 153.723546 337.013333 
L 153.723546 26.88 
" clip-path="url(#p09ad1d1935)" style="fill: none; stroke: #b0b0b0; stroke-opacity: 0.3; stroke-width: 0.8; stroke-linecap: square"/>
     </g>
     <g id="line2d_4">
      <g>
       <use xlink:href="#me50a121fc1" x="153.723546" y="337.013333" style="stroke: #000000; stroke-width: 0.8"/>
      </g>
     </g>
     <g id="text_2">
      <!-- 1 -->
      <g transform="translate(150.542296 351.611771) scale(0.1 -0.1)">
       <defs>
        <path id="DejaVuSans-31" d="M 794 531 
L 1825 531 
L 1825 4091 
L 703 3866 
L 703 4441 
L 1819 4666 
L 2450 4666 
L 2450 531 
L 3481 531 
L 3481 0 
L 794 0 
L 794 531 
z
" transform="scale(0.015625)"/>
       </defs>
       <use xlink:href="#DejaVuSans-31"/>
      </g>
     </g>
    </g>
    <g id="xtick_3">
     <g id="line2d_5">
      <path d="M 222.698001 337.013333 
L 222.698001 26.88 
" clip-path="url(#p09ad1d1935)" style="fill: none; stroke: #b0b0b0; stroke-opacity: 0.3; stroke-width: 0.8; stroke-linecap: square"/>
     </g>
     <g id="line2d_6">
      <g>
       <use xlink:href="#me50a121fc1" x="222.698001" y="337.013333" style="stroke: #000000; stroke-width: 0.8"/>
      </g>
     </g>
     <g id="text_3">
      <!-- 2 -->
      <g transform="translate(219.516751 351.611771) scale(0.1 -0.1)">
       <defs>
        <path id="DejaVuSans-32" d="M 1228 531 
L 3431 531 
L 3431 0 
L 469 0 
L 469 531 
Q 828 903 1448 1529 
Q 2069 2156 2228 2338 
Q 2531 2678 2651 2914 
Q 2772 3150 2772 3378 
Q 2772 3750 2511 3984 
Q 2250 4219 1831 4219 
Q 1534 4219 1204 4116 
Q 875 4013 500 3803 
L 500 4441 
Q 881 4594 1212 4672 
Q 1544 4750 1819 4750 
Q 2544 4750 2975 4387 
Q 3406 4025 3406 3419 
Q 3406 3131 3298 2873 
Q 3191 2616 2906 2266 
Q 2828 2175 2409 1742 
Q 1991 1309 1228 531 
z
" transform="scale(0.015625)"/>
       </defs>
       <use xlink:href="#DejaVuSans-32"/>
      </g>
     </g>
    </g>
    <g id="xtick_4">
     <g id="line2d_7">
      <path d="M 291.672456 337.013333 
L 291.672456 26.88 
" clip-path="url(#p09ad1d1935)" style="fill: none; stroke: #b0b0b0; stroke-opacity: 0.3; stroke-width: 0.8; stroke-linecap: square"/>
     </g>
     <g id="line2d_8">
      <g>
       <use xlink:href="#me50a121fc1" x="291.672456" y="337.013333" style="stroke: #000000; stroke-width: 0.8"/>
      </g>
     </g>
     <g id="text_4">
      <!-- 3 -->
      <g transform="translate(288.491206 351.611771) scale(0.1 -0.1)">
       <defs>
        <path id="DejaVuSans-33" d="M 2597 2516 
Q 3050 2419 3304 2112 
Q 3559 1806 3559 1356 
Q 3559 666 3084 287 
Q 2609 -91 1734 -91 
Q 1441 -91 1130 -33 
Q 819 25 488 141 
L 488 750 
Q 750 597 1062 519 
Q 1375 441 1716 441 
Q 2309 441 2620 675 
Q 2931 909 2931 1356 
Q 2931 1769 2642 2001 
Q 2353 2234 1838 2234 
L 1294 2234 
L 1294 2753 
L 1863 2753 
Q 2328 2753 2575 2939 
Q 2822 3125 2822 3475 
Q 2822 3834 2567 4026 
Q 2313 4219 1838 4219 
Q 1578 4219 1281 4162 
Q 984 4106 628 3988 
L 628 4550 
Q 988 4650 1302 4700 
Q 1616 4750 1894 4750 
Q 2613 4750 3031 4423 
Q 3450 4097 3450 3541 
Q 3450 3153 3228 2886 
Q 3006 2619 2597 2516 
z
" transform="scale(0.015625)"/>
       </defs>
       <use xlink:href="#DejaVuSans-33"/>
      </g>
     </g>
    </g>
    <g id="xtick_5">
     <g id="line2d_9">
      <path d="M 360.64691 337.013333 
L 360.64691 26.88 
" clip-path="url(#p09ad1d1935)" style="fill: none; stroke: #b0b0b0; stroke-opacity: 0.3; stroke-width: 0.8; stroke-linecap: square"/>
     </g>
     <g id="line2d_10">
      <g>
       <use xlink:href="#me50a121fc1" x="360.64691" y="337.013333" style="stroke: #000000; stroke-width: 0.8"/>
      </g>
     </g>
     <g id="text_5">
      <!-- 4 -->
      <g transform="translate(357.46566 351.611771) scale(0.1 -0.1)">
       <defs>
        <path id="DejaVuSans-34" d="M 2419 4116 
L 825 1625 
L 2419 1625 
L 2419 4116 
z
M 2253 4666 
L 3047 4666 
L 3047 1625 
L 3713 1625 
L 3713 1100 
L 3047 1100 
L 3047 0 
L 2419 0 
L 2419 1100 
L 313 1100 
L 313 1709 
L 2253 4666 
z
" transform="scale(0.015625)"/>
       </defs>
       <use xlink:href="#DejaVuSans-34"/>
      </g>
     </g>
    </g>
    <g id="xtick_6">
     <g id="line2d_11">
      <path d="M 429.621365 337.013333 
L 429.621365 26.88 
" clip-path="url(#p09ad1d1935)" style="fill: none; stroke: #b0b0b0; stroke-opacity: 0.3; stroke-width: 0.8; stroke-linecap: square"/>
     </g>
     <g id="line2d_12">
      <g>
       <use xlink:href="#me50a121fc1" x="429.621365" y="337.013333" style="stroke: #000000; stroke-width: 0.8"/>
      </g>
     </g>
     <g id="text_6">
      <!-- 5 -->
      <g transform="translate(426.440115 351.611771) scale(0.1 -0.1)">
       <defs>
        <path id="DejaVuSans-35" d="M 691 4666 
L 3169 4666 
L 3169 4134 
L 1269 4134 
L 1269 2991 
Q 1406 3038 1543 3061 
Q 1681 3084 1819 3084 
Q 2600 3084 3056 2656 
Q 3513 2228 3513 1497 
Q 3513 744 3044 326 
Q 2575 -91 1722 -91 
Q 1428 -91 1123 -41 
Q 819 9 494 109 
L 494 744 
Q 775 591 1075 516 
Q 1375 441 1709 441 
Q 2250 441 2565 725 
Q 2881 1009 2881 1497 
Q 2881 1984 2565 2268 
Q 2250 2553 1709 2553 
Q 1456 2553 1204 2497 
Q 953 2441 691 2322 
L 691 4666 
z
" transform="scale(0.015625)"/>
       </defs>
       <use xlink:href="#DejaVuSans-35"/>
      </g>
     </g>
    </g>
    <g id="xtick_7">
     <g id="line2d_13">
      <path d="M 498.59582 337.013333 
L 498.59582 26.88 
" clip-path="url(#p09ad1d1935)" style="fill: none; stroke: #b0b0b0; stroke-opacity: 0.3; stroke-width: 0.8; stroke-linecap: square"/>
     </g>
     <g id="line2d_14">
      <g>
       <use xlink:href="#me50a121fc1" x="498.59582" y="337.013333" style="stroke: #000000; stroke-width: 0.8"/>
      </g>
     </g>
     <g id="text_7">
      <!-- 6 -->
      <g transform="translate(495.41457 351.611771) scale(0.1 -0.1)">
       <defs>
        <path id="DejaVuSans-36" d="M 2113 2584 
Q 1688 2584 1439 2293 
Q 1191 2003 1191 1497 
Q 1191 994 1439 701 
Q 1688 409 2113 409 
Q 2538 409 2786 701 
Q 3034 994 3034 1497 
Q 3034 2003 2786 2293 
Q 2538 2584 2113 2584 
z
M 3366 4563 
L 3366 3988 
Q 3128 4100 2886 4159 
Q 2644 4219 2406 4219 
Q 1781 4219 1451 3797 
Q 1122 3375 1075 2522 
Q 1259 2794 1537 2939 
Q 1816 3084 2150 3084 
Q 2853 3084 3261 2657 
Q 3669 2231 3669 1497 
Q 3669 778 3244 343 
Q 2819 -91 2113 -91 
Q 1303 -91 875 529 
Q 447 1150 447 2328 
Q 447 3434 972 4092 
Q 1497 4750 2381 4750 
Q 2619 4750 2861 4703 
Q 3103 4656 3366 4563 
z
" transform="scale(0.015625)"/>
       </defs>
       <use xlink:href="#DejaVuSans-36"/>
      </g>
     </g>
    </g>
    <g id="xtick_8">
     <g id="line2d_15">
      <path d="M 567.570275 337.013333 
L 567.570275 26.88 
" clip-path="url(#p09ad1d1935)" style="fill: none; stroke: #b0b0b0; stroke-opacity: 0.3; stroke-width: 0.8; stroke-linecap: square"/>
     </g>
     <g id="line2d_16">
      <g>
       <use xlink:href="#me50a121fc1" x="567.570275" y="337.013333" style="stroke: #000000; stroke-width: 0.8"/>
      </g>
     </g>
     <g id="text_8">
      <!-- 7 -->
      <g transform="translate(564.389025 351.611771) scale(0.1 -0.1)">
       <defs>
        <path id="DejaVuSans-37" d="M 525 4666 
L 3525 4666 
L 3525 4397 
L 1831 0 
L 1172 0 
L 2766 4134 
L 525 4134 
L 525 4666 
z
" transform="scale(0.015625)"/>
       </defs>
       <use xlink:href="#DejaVuSans-37"/>
      </g>
     </g>
    </g>
    <g id="xtick_9">
     <g id="line2d_17">
      <path d="M 636.54473 337.013333 
L 636.54473 26.88 
" clip-path="url(#p09ad1d1935)" style="fill: none; stroke: #b0b0b0; stroke-opacity: 0.3; stroke-width: 0.8; stroke-linecap: square"/>
     </g>
     <g id="line2d_18">
      <g>
       <use xlink:href="#me50a121fc1" x="636.54473" y="337.013333" style="stroke: #000000; stroke-width: 0.8"/>
      </g>
     </g>
     <g id="text_9">
      <!-- 8 -->
      <g transform="translate(633.36348 351.611771) scale(0.1 -0.1)">
       <defs>
        <path id="DejaVuSans-38" d="M 2034 2216 
Q 1584 2216 1326 1975 
Q 1069 1734 1069 1313 
Q 1069 891 1326 650 
Q 1584 409 2034 409 
Q 2484 409 2743 651 
Q 3003 894 3003 1313 
Q 3003 1734 2745 1975 
Q 2488 2216 2034 2216 
z
M 1403 2484 
Q 997 2584 770 2862 
Q 544 3141 544 3541 
Q 544 4100 942 4425 
Q 1341 4750 2034 4750 
Q 2731 4750 3128 4425 
Q 3525 4100 3525 3541 
Q 3525 3141 3298 2862 
Q 3072 2584 2669 2484 
Q 3125 2378 3379 2068 
Q 3634 1759 3634 1313 
Q 3634 634 3220 271 
Q 2806 -91 2034 -91 
Q 1263 -91 848 271 
Q 434 634 434 1313 
Q 434 1759 690 2068 
Q 947 2378 1403 2484 
z
M 1172 3481 
Q 1172 3119 1398 2916 
Q 1625 2713 2034 2713 
Q 2441 2713 2670 2916 
Q 2900 3119 2900 3481 
Q 2900 3844 2670 4047 
Q 2441 4250 2034 4250 
Q 1625 4250 1398 4047 
Q 1172 3844 1172 3481 
z
" transform="scale(0.015625)"/>
       </defs>
       <use xlink:href="#DejaVuSans-38"/>
      </g>
     </g>
    </g>
    <g id="text_10">
     <!-- Time (s) -->
     <g transform="translate(340.211094 365.289896) scale(0.1 -0.1)">
      <defs>
       <path id="DejaVuSans-54" d="M -19 4666 
L 3928 4666 
L 3928 4134 
L 2272 4134 
L 2272 0 
L 1638 0 
L 1638 4134 
L -19 4134 
L -19 4666 
z
" transform="scale(0.015625)"/>
       <path id="DejaVuSans-69" d="M 603 3500 
L 1178 3500 
L 1178 0 
L 603 0 
L 603 3500 
z
M 603 4863 
L 1178 4863 
L 1178 4134 
L 603 4134 
L 603 4863 
z
" transform="scale(0.015625)"/>
       <path id="DejaVuSans-6d" d="M 3328 2828 
Q 3544 3216 3844 3400 
Q 4144 3584 4550 3584 
Q 5097 3584 5394 3201 
Q 5691 2819 5691 2113 
L 5691 0 
L 5113 0 
L 5113 2094 
Q 5113 2597 4934 2840 
Q 4756 3084 4391 3084 
Q 3944 3084 3684 2787 
Q 3425 2491 3425 1978 
L 3425 0 
L 2847 0 
L 2847 2094 
Q 2847 2600 2669 2842 
Q 2491 3084 2119 3084 
Q 1678 3084 1418 2786 
Q 1159 2488 1159 1978 
L 1159 0 
L 581 0 
L 581 3500 
L 1159 3500 
L 1159 2956 
Q 1356 3278 1631 3431 
Q 1906 3584 2284 3584 
Q 2666 3584 2933 3390 
Q 3200 3197 3328 2828 
z
" transform="scale(0.015625)"/>
       <path id="DejaVuSans-65" d="M 3597 1894 
L 3597 1613 
L 953 1613 
Q 991 1019 1311 708 
Q 1631 397 2203 397 
Q 2534 397 2845 478 
Q 3156 559 3463 722 
L 3463 178 
Q 3153 47 2828 -22 
Q 2503 -91 2169 -91 
Q 1331 -91 842 396 
Q 353 884 353 1716 
Q 353 2575 817 3079 
Q 1281 3584 2069 3584 
Q 2775 3584 3186 3129 
Q 3597 2675 3597 1894 
z
M 3022 2063 
Q 3016 2534 2758 2815 
Q 2500 3097 2075 3097 
Q 1594 3097 1305 2825 
Q 1016 2553 972 2059 
L 3022 2063 
z
" transform="scale(0.015625)"/>
       <path id="DejaVuSans-20" transform="scale(0.015625)"/>
       <path id="DejaVuSans-28" d="M 1984 4856 
Q 1566 4138 1362 3434 
Q 1159 2731 1159 2009 
Q 1159 1288 1364 580 
Q 1569 -128 1984 -844 
L 1484 -844 
Q 1016 -109 783 600 
Q 550 1309 550 2009 
Q 550 2706 781 3412 
Q 1013 4119 1484 4856 
L 1984 4856 
z
" transform="scale(0.015625)"/>
       <path id="DejaVuSans-73" d="M 2834 3397 
L 2834 2853 
Q 2591 2978 2328 3040 
Q 2066 3103 1784 3103 
Q 1356 3103 1142 2972 
Q 928 2841 928 2578 
Q 928 2378 1081 2264 
Q 1234 2150 1697 2047 
L 1894 2003 
Q 2506 1872 2764 1633 
Q 3022 1394 3022 966 
Q 3022 478 2636 193 
Q 2250 -91 1575 -91 
Q 1294 -91 989 -36 
Q 684 19 347 128 
L 347 722 
Q 666 556 975 473 
Q 1284 391 1588 391 
Q 1994 391 2212 530 
Q 2431 669 2431 922 
Q 2431 1156 2273 1281 
Q 2116 1406 1581 1522 
L 1381 1569 
Q 847 1681 609 1914 
Q 372 2147 372 2553 
Q 372 3047 722 3315 
Q 1072 3584 1716 3584 
Q 2034 3584 2315 3537 
Q 2597 3491 2834 3397 
z
" transform="scale(0.015625)"/>
       <path id="DejaVuSans-29" d="M 513 4856 
L 1013 4856 
Q 1481 4119 1714 3412 
Q 1947 2706 1947 2009 
Q 1947 1309 1714 600 
Q 1481 -109 1013 -844 
L 513 -844 
Q 928 -128 1133 580 
Q 1338 1288 1338 2009 
Q 1338 2731 1133 3434 
Q 928 4138 513 4856 
z
" transform="scale(0.015625)"/>
      </defs>
      <use xlink:href="#DejaVuSans-54"/>
      <use xlink:href="#DejaVuSans-69" transform="translate(57.958984 0)"/>
      <use xlink:href="#DejaVuSans-6d" transform="translate(85.742188 0)"/>
      <use xlink:href="#DejaVuSans-65" transform="translate(183.154297 0)"/>
      <use xlink:href="#DejaVuSans-20" transform="translate(244.677734 0)"/>
      <use xlink:href="#DejaVuSans-28" transform="translate(276.464844 0)"/>
      <use xlink:href="#DejaVuSans-73" transform="translate(315.478516 0)"/>
      <use xlink:href="#DejaVuSans-29" transform="translate(367.578125 0)"/>
     </g>
    </g>
   </g>
   <g id="matplotlib.axis_2">
    <g id="ytick_1">
     <g id="line2d_19">
      <path d="M 57.17 306.732531 
L 663.91 306.732531 
" clip-path="url(#p09ad1d1935)" style="fill: none; stroke: #b0b0b0; stroke-opacity: 0.3; stroke-width: 0.8; stroke-linecap: square"/>
     </g>
     <g id="line2d_20">
      <defs>
       <path id="ma2f55ac669" d="M 0 0 
L -3.5 0 
" style="stroke: #000000; stroke-width: 0.8"/>
      </defs>
      <g>
       <use xlink:href="#ma2f55ac669" x="57.17" y="306.732531" style="stroke: #000000; stroke-width: 0.8"/>
      </g>
     </g>
     <g id="text_11">
      <!-- 3300 -->
      <g style="fill: #0000ff" transform="translate(24.72 310.53175) scale(0.1 -0.1)">
       <use xlink:href="#DejaVuSans-33"/>
       <use xlink:href="#DejaVuSans-33" transform="translate(63.623047 0)"/>
       <use xlink:href="#DejaVuSans-30" transform="translate(127.246094 0)"/>
       <use xlink:href="#DejaVuSans-30" transform="translate(190.869141 0)"/>
      </g>
     </g>
    </g>
    <g id="ytick_2">
     <g id="line2d_21">
      <path d="M 57.17 264.143499 
L 663.91 264.143499 
" clip-path="url(#p09ad1d1935)" style="fill: none; stroke: #b0b0b0; stroke-opacity: 0.3; stroke-width: 0.8; stroke-linecap: square"/>
     </g>
     <g id="line2d_22">
      <g>
       <use xlink:href="#ma2f55ac669" x="57.17" y="264.143499" style="stroke: #000000; stroke-width: 0.8"/>
      </g>
     </g>
     <g id="text_12">
      <!-- 3400 -->
      <g style="fill: #0000ff" transform="translate(24.72 267.942718) scale(0.1 -0.1)">
       <use xlink:href="#DejaVuSans-33"/>
       <use xlink:href="#DejaVuSans-34" transform="translate(63.623047 0)"/>
       <use xlink:href="#DejaVuSans-30" transform="translate(127.246094 0)"/>
       <use xlink:href="#DejaVuSans-30" transform="translate(190.869141 0)"/>
      </g>
     </g>
    </g>
    <g id="ytick_3">
     <g id="line2d_23">
      <path d="M 57.17 221.554467 
L 663.91 221.554467 
" clip-path="url(#p09ad1d1935)" style="fill: none; stroke: #b0b0b0; stroke-opacity: 0.3; stroke-width: 0.8; stroke-linecap: square"/>
     </g>
     <g id="line2d_24">
      <g>
       <use xlink:href="#ma2f55ac669" x="57.17" y="221.554467" style="stroke: #000000; stroke-width: 0.8"/>
      </g>
     </g>
     <g id="text_13">
      <!-- 3500 -->
      <g style="fill: #0000ff" transform="translate(24.72 225.353685) scale(0.1 -0.1)">
       <use xlink:href="#DejaVuSans-33"/>
       <use xlink:href="#DejaVuSans-35" transform="translate(63.623047 0)"/>
       <use xlink:href="#DejaVuSans-30" transform="translate(127.246094 0)"/>
       <use xlink:href="#DejaVuSans-30" transform="translate(190.869141 0)"/>
      </g>
     </g>
    </g>
    <g id="ytick_4">
     <g id="line2d_25">
      <path d="M 57.17 178.965434 
L 663.91 178.965434 
" clip-path="url(#p09ad1d1935)" style="fill: none; stroke: #b0b0b0; stroke-opacity: 0.3; stroke-width: 0.8; stroke-linecap: square"/>
     </g>
     <g id="line2d_26">
      <g>
       <use xlink:href="#ma2f55ac669" x="57.17" y="178.965434" style="stroke: #000000; stroke-width: 0.8"/>
      </g>
     </g>
     <g id="text_14">
      <!-- 3600 -->
      <g style="fill: #0000ff" transform="translate(24.72 182.764653) scale(0.1 -0.1)">
       <use xlink:href="#DejaVuSans-33"/>
       <use xlink:href="#DejaVuSans-36" transform="translate(63.623047 0)"/>
       <use xlink:href="#DejaVuSans-30" transform="translate(127.246094 0)"/>
       <use xlink:href="#DejaVuSans-30" transform="translate(190.869141 0)"/>
      </g>
     </g>
    </g>
    <g id="ytick_5">
     <g id="line2d_27">
      <path d="M 57.17 136.376402 
L 663.91 136.376402 
" clip-path="url(#p09ad1d1935)" style="fill: none; stroke: #b0b0b0; stroke-opacity: 0.3; stroke-width: 0.8; stroke-linecap: square"/>
     </g>
     <g id="line2d_28">
      <g>
       <use xlink:href="#ma2f55ac669" x="57.17" y="136.376402" style="stroke: #000000; stroke-width: 0.8"/>
      </g>
     </g>
     <g id="text_15">
      <!-- 3700 -->
      <g style="fill: #0000ff" transform="translate(24.72 140.175621) scale(0.1 -0.1)">
       <use xlink:href="#DejaVuSans-33"/>
       <use xlink:href="#DejaVuSans-37" transform="translate(63.623047 0)"/>
       <use xlink:href="#DejaVuSans-30" transform="translate(127.246094 0)"/>
       <use xlink:href="#DejaVuSans-30" transform="translate(190.869141 0)"/>
      </g>
     </g>
    </g>
    <g id="ytick_6">
     <g id="line2d_29">
      <path d="M 57.17 93.78737 
L 663.91 93.78737 
" clip-path="url(#p09ad1d1935)" style="fill: none; stroke: #b0b0b0; stroke-opacity: 0.3; stroke-width: 0.8; stroke-linecap: square"/>
     </g>
     <g id="line2d_30">
      <g>
       <use xlink:href="#ma2f55ac669" x="57.17" y="93.78737" style="stroke: #000000; stroke-width: 0.8"/>
      </g>
     </g>
     <g id="text_16">
      <!-- 3800 -->
      <g style="fill: #0000ff" transform="translate(24.72 97.586589) scale(0.1 -0.1)">
       <use xlink:href="#DejaVuSans-33"/>
       <use xlink:href="#DejaVuSans-38" transform="translate(63.623047 0)"/>
       <use xlink:href="#DejaVuSans-30" transform="translate(127.246094 0)"/>
       <use xlink:href="#DejaVuSans-30" transform="translate(190.869141 0)"/>
      </g>
     </g>
    </g>
    <g id="ytick_7">
     <g id="line2d_31">
      <path d="M 57.17 51.198337 
L 663.91 51.198337 
" clip-path="url(#p09ad1d1935)" style="fill: none; stroke: #b0b0b0; stroke-opacity: 0.3; stroke-width: 0.8; stroke-linecap: square"/>
     </g>
     <g id="line2d_32">
      <g>
       <use xlink:href="#ma2f55ac669" x="57.17" y="51.198337" style="stroke: #000000; stroke-width: 0.8"/>
      </g>
     </g>
     <g id="text_17">
      <!-- 3900 -->
      <g style="fill: #0000ff" transform="translate(24.72 54.997556) scale(0.1 -0.1)">
       <defs>
        <path id="DejaVuSans-39" d="M 703 97 
L 703 672 
Q 941 559 1184 500 
Q 1428 441 1663 441 
Q 2288 441 2617 861 
Q 2947 1281 2994 2138 
Q 2813 1869 2534 1725 
Q 2256 1581 1919 1581 
Q 1219 1581 811 2004 
Q 403 2428 403 3163 
Q 403 3881 828 4315 
Q 1253 4750 1959 4750 
Q 2769 4750 3195 4129 
Q 3622 3509 3622 2328 
Q 3622 1225 3098 567 
Q 2575 -91 1691 -91 
Q 1453 -91 1209 -44 
Q 966 3 703 97 
z
M 1959 2075 
Q 2384 2075 2632 2365 
Q 2881 2656 2881 3163 
Q 2881 3666 2632 3958 
Q 2384 4250 1959 4250 
Q 1534 4250 1286 3958 
Q 1038 3666 1038 3163 
Q 1038 2656 1286 2365 
Q 1534 2075 1959 2075 
z
" transform="scale(0.015625)"/>
       </defs>
       <use xlink:href="#DejaVuSans-33"/>
       <use xlink:href="#DejaVuSans-39" transform="translate(63.623047 0)"/>
       <use xlink:href="#DejaVuSans-30" transform="translate(127.246094 0)"/>
       <use xlink:href="#DejaVuSans-30" transform="translate(190.869141 0)"/>
      </g>
     </g>
    </g>
    <g id="text_18">
     <!-- Telemetry -->
     <g style="fill: #0000ff" transform="translate(18.640312 206.614635) rotate(-90) scale(0.1 -0.1)">
      <defs>
       <path id="DejaVuSans-6c" d="M 603 4863 
L 1178 4863 
L 1178 0 
L 603 0 
L 603 4863 
z
" transform="scale(0.015625)"/>
       <path id="DejaVuSans-74" d="M 1172 4494 
L 1172 3500 
L 2356 3500 
L 2356 3053 
L 1172 3053 
L 1172 1153 
Q 1172 725 1289 603 
Q 1406 481 1766 481 
L 2356 481 
L 2356 0 
L 1766 0 
Q 1100 0 847 248 
Q 594 497 594 1153 
L 594 3053 
L 172 3053 
L 172 3500 
L 594 3500 
L 594 4494 
L 1172 4494 
z
" transform="scale(0.015625)"/>
       <path id="DejaVuSans-72" d="M 2631 2963 
Q 2534 3019 2420 3045 
Q 2306 3072 2169 3072 
Q 1681 3072 1420 2755 
Q 1159 2438 1159 1844 
L 1159 0 
L 581 0 
L 581 3500 
L 1159 3500 
L 1159 2956 
Q 1341 3275 1631 3429 
Q 1922 3584 2338 3584 
Q 2397 3584 2469 3576 
Q 2541 3569 2628 3553 
L 2631 2963 
z
" transform="scale(0.015625)"/>
       <path id="DejaVuSans-79" d="M 2059 -325 
Q 1816 -950 1584 -1140 
Q 1353 -1331 966 -1331 
L 506 -1331 
L 506 -850 
L 844 -850 
Q 1081 -850 1212 -737 
Q 1344 -625 1503 -206 
L 1606 56 
L 191 3500 
L 800 3500 
L 1894 763 
L 2988 3500 
L 3597 3500 
L 2059 -325 
z
" transform="scale(0.015625)"/>
      </defs>
      <use xlink:href="#DejaVuSans-54"/>
      <use xlink:href="#DejaVuSans-65" transform="translate(44.083984 0)"/>
      <use xlink:href="#DejaVuSans-6c" transform="translate(105.607422 0)"/>
      <use xlink:href="#DejaVuSans-65" transform="translate(133.390625 0)"/>
      <use xlink:href="#DejaVuSans-6d" transform="translate(194.914062 0)"/>
      <use xlink:href="#DejaVuSans-65" transform="translate(292.326172 0)"/>
      <use xlink:href="#DejaVuSans-74" transform="translate(353.849609 0)"/>
      <use xlink:href="#DejaVuSans-72" transform="translate(393.058594 0)"/>
      <use xlink:href="#DejaVuSans-79" transform="translate(434.171875 0)"/>
     </g>
    </g>
   </g>
   <g id="line2d_33">
    <path d="M 84.749091 221.554467 
L 85.362964 221.554467 
L 85.707836 219.850905 
L 86.052708 215.592002 
L 86.39758 209.629538 
L 87.087325 192.168034 
L 87.777069 168.744067 
L 88.811686 122.747912 
L 90.191175 50.346557 
L 90.88092 57.160802 
L 91.570664 59.716144 
L 92.260409 59.716144 
L 92.950154 58.012583 
L 93.977873 53.327789 
L 96.391979 44.384092 
L 96.736851 43.958202 
L 97.426596 42.254641 
L 97.771468 41.82875 
L 98.11634 41.82875 
L 98.461213 41.40286 
L 99.150957 41.40286 
L 99.495829 40.97697 
L 99.840702 41.40286 
L 100.185574 41.40286 
L 100.875318 42.254641 
L 101.220191 43.106421 
L 103.289424 51.198337 
L 105.70353 66.530389 
L 106.738147 74.622305 
L 108.807381 93.361479 
L 109.8351 104.008738 
L 111.221487 119.766679 
L 113.628695 148.301331 
L 122.595374 258.181035 
L 125.699225 287.993357 
L 127.761561 302.899518 
L 129.485922 312.694996 
L 131.555156 320.361022 
L 131.900028 320.786912 
L 132.244901 321.638693 
L 132.934645 322.490473 
L 133.279517 322.490473 
L 133.62439 322.916364 
L 134.659006 322.916364 
L 135.003879 322.490473 
L 135.348751 321.638693 
L 135.693623 321.212802 
L 137.417985 314.824447 
L 138.452601 308.861983 
L 139.142346 305.02897 
L 140.176963 298.214725 
L 141.21158 290.122809 
L 142.935941 274.364867 
L 145.005175 253.070351 
L 147.074408 229.220493 
L 157.068807 106.98997 
L 160.172657 77.177647 
L 161.552146 66.104499 
L 162.579866 58.864363 
L 164.649099 48.642996 
L 164.993972 47.791215 
L 165.683716 45.661763 
L 166.718333 43.106421 
L 167.408078 42.254641 
L 169.477311 42.254641 
L 170.167056 43.106421 
L 172.236289 51.198337 
L 174.305523 63.975047 
L 175.685012 74.622305 
L 177.754246 93.361479 
L 179.133735 107.84175 
L 181.892713 139.357634 
L 188.093517 217.295563 
L 189.128133 230.072273 
L 190.852495 250.089118 
L 192.576856 268.402402 
L 194.652987 287.993357 
L 196.715324 302.899518 
L 197.405068 306.732531 
L 198.439685 312.694996 
L 200.508919 320.361022 
L 200.853791 320.786912 
L 201.198663 321.638693 
L 201.888408 322.490473 
L 202.23328 322.490473 
L 202.571255 322.916364 
L 203.267897 322.916364 
L 203.612769 322.490473 
L 203.950744 322.490473 
L 204.295616 321.638693 
L 204.640488 321.212802 
L 206.36485 314.824447 
L 207.399467 309.287873 
L 209.123828 298.214725 
L 210.158445 290.122809 
L 211.882806 274.364867 
L 213.95204 253.496241 
L 216.021273 229.220493 
L 217.05589 216.869673 
L 226.015672 107.41586 
L 227.740033 89.102576 
L 228.77465 79.732989 
L 231.878501 57.160802 
L 233.602862 49.068886 
L 234.982351 44.384092 
L 235.327223 43.958202 
L 235.672096 43.106421 
L 236.016968 42.680531 
L 236.36184 42.680531 
L 236.706712 42.254641 
L 237.051585 42.254641 
L 237.396457 41.82875 
L 237.741329 41.82875 
L 238.086202 42.254641 
L 238.431074 42.254641 
L 238.775946 42.680531 
L 239.803665 45.235873 
L 240.838282 49.494776 
L 241.872899 55.03135 
L 243.59726 66.104499 
L 244.287005 71.641073 
L 247.045983 96.342712 
L 248.0806 107.41586 
L 249.115217 119.340789 
L 249.804961 127.006815 
L 251.184451 143.190647 
L 256.695509 212.61077 
L 258.074999 230.072273 
L 261.868594 271.383635 
L 263.592955 287.567467 
L 263.937827 290.122809 
L 264.2827 293.529931 
L 265.317316 300.344177 
L 266.007061 305.02897 
L 268.421167 316.528009 
L 269.455784 320.361022 
L 269.800656 320.786912 
L 270.145528 321.638693 
L 270.835273 322.490473 
L 271.525017 322.490473 
L 271.86989 322.916364 
L 272.214762 322.490473 
L 272.904506 322.490473 
L 273.249379 322.064583 
L 273.932226 320.361022 
L 275.311715 314.824447 
L 276.346332 309.287873 
L 278.415565 296.085273 
L 279.10531 290.548699 
L 280.829671 274.790757 
L 282.905802 253.496241 
L 285.657883 221.128576 
L 294.962537 107.41586 
L 296.686898 89.528467 
L 297.721515 80.158879 
L 298.756132 72.066963 
L 300.825366 57.160802 
L 302.549727 49.068886 
L 303.584344 45.661763 
L 304.618961 43.106421 
L 305.308705 42.254641 
L 305.653578 42.254641 
L 305.99845 41.82875 
L 306.688194 41.82875 
L 307.033067 42.254641 
L 307.377939 42.254641 
L 307.722811 42.680531 
L 308.757428 45.235873 
L 309.785147 49.494776 
L 311.164636 56.734912 
L 312.544126 65.678608 
L 315.992848 95.916821 
L 320.131316 142.764757 
L 321.165932 155.541467 
L 325.649272 212.18488 
L 327.028761 229.646383 
L 331.160331 274.364867 
L 332.194948 283.734454 
L 332.89159 290.122809 
L 334.609054 302.899518 
L 335.643671 308.436093 
L 336.333415 312.269106 
L 337.02316 315.250338 
L 338.402649 319.935131 
L 338.747521 320.786912 
L 339.092393 321.212802 
L 339.437266 322.064583 
L 339.782138 322.490473 
L 340.471882 322.490473 
L 340.816755 322.916364 
L 341.506499 322.916364 
L 341.851371 322.490473 
L 342.885988 319.935131 
L 344.265477 314.398557 
L 344.948324 311.417325 
L 345.989839 305.880751 
L 347.017558 299.066506 
L 350.121409 271.383635 
L 352.190642 250.089118 
L 353.915004 230.072273 
L 363.571427 111.674763 
L 367.358125 74.622305 
L 369.427359 59.716144 
L 370.461975 53.753679 
L 371.158617 50.772447 
L 372.531209 45.661763 
L 373.220954 43.958202 
L 373.565826 43.532312 
L 373.910698 42.680531 
L 374.25557 42.680531 
L 374.945315 41.82875 
L 375.635059 41.82875 
L 375.979932 42.254641 
L 376.324804 42.254641 
L 376.669676 42.680531 
L 377.704293 45.235873 
L 378.73891 49.068886 
L 379.428654 52.901899 
L 380.118399 56.734912 
L 381.497888 65.678608 
L 383.222249 79.732989 
L 383.567122 82.288331 
L 385.97433 106.98997 
L 388.733308 138.505854 
L 398.734604 260.736376 
L 401.14871 283.734454 
L 402.528199 295.659383 
L 404.935408 310.565544 
L 405.970025 315.250338 
L 407.349514 319.935131 
L 408.039258 321.638693 
L 408.729003 322.490473 
L 409.418747 322.490473 
L 409.76362 322.916364 
L 410.108492 322.916364 
L 410.453364 322.490473 
L 410.798237 322.490473 
L 411.143109 321.638693 
L 411.487981 321.212802 
L 413.557215 313.120886 
L 414.936704 305.880751 
L 415.971321 299.066506 
L 417.005937 291.40048 
L 419.420043 268.402402 
L 420.102891 261.588157 
L 421.137507 250.515009 
L 422.516996 234.331176 
L 429.414442 148.301331 
L 429.414442 148.301331 
" clip-path="url(#p09ad1d1935)" style="fill: none; stroke: #0000ff; stroke-width: 1.5; stroke-linecap: square"/>
   </g>
   <g id="patch_3">
    <path d="M 57.17 337.013333 
L 57.17 26.88 
" style="fill: none; stroke: #000000; stroke-width: 0.8; stroke-linejoin: miter; stroke-linecap: square"/>
   </g>
   <g id="patch_4">
    <path d="M 663.91 337.013333 
L 663.91 26.88 
" style="fill: none; stroke: #000000; stroke-width: 0.8; stroke-linejoin: miter; stroke-linecap: square"/>
   </g>
   <g id="patch_5">
    <path d="M 57.17 337.013333 
L 663.91 337.013333 
" style="fill: none; stroke: #000000; stroke-width: 0.8; stroke-linejoin: miter; stroke-linecap: square"/>
   </g>
   <g id="patch_6">
    <path d="M 57.17 26.88 
L 663.91 26.88 
" style="fill: none; stroke: #000000; stroke-width: 0.8; stroke-linejoin: miter; stroke-linecap: square"/>
   </g>
   <g id="text_19">
    <!-- Telemetry and Encoder vs Time -->
    <g transform="translate(266.13375 20.88) scale(0.12 -0.12)">
     <defs>
      <path id="DejaVuSans-61" d="M 2194 1759 
Q 1497 1759 1228 1600 
Q 959 1441 959 1056 
Q 959 750 1161 570 
Q 1363 391 1709 391 
Q 2188 391 2477 730 
Q 2766 1069 2766 1631 
L 2766 1759 
L 2194 1759 
z
M 3341 1997 
L 3341 0 
L 2766 0 
L 2766 531 
Q 2569 213 2275 61 
Q 1981 -91 1556 -91 
Q 1019 -91 701 211 
Q 384 513 384 1019 
Q 384 1609 779 1909 
Q 1175 2209 1959 2209 
L 2766 2209 
L 2766 2266 
Q 2766 2663 2505 2880 
Q 2244 3097 1772 3097 
Q 1472 3097 1187 3025 
Q 903 2953 641 2809 
L 641 3341 
Q 956 3463 1253 3523 
Q 1550 3584 1831 3584 
Q 2591 3584 2966 3190 
Q 3341 2797 3341 1997 
z
" transform="scale(0.015625)"/>
      <path id="DejaVuSans-6e" d="M 3513 2113 
L 3513 0 
L 2938 0 
L 2938 2094 
Q 2938 2591 2744 2837 
Q 2550 3084 2163 3084 
Q 1697 3084 1428 2787 
Q 1159 2491 1159 1978 
L 1159 0 
L 581 0 
L 581 3500 
L 1159 3500 
L 1159 2956 
Q 1366 3272 1645 3428 
Q 1925 3584 2291 3584 
Q 2894 3584 3203 3211 
Q 3513 2838 3513 2113 
z
" transform="scale(0.015625)"/>
      <path id="DejaVuSans-64" d="M 2906 2969 
L 2906 4863 
L 3481 4863 
L 3481 0 
L 2906 0 
L 2906 525 
Q 2725 213 2448 61 
Q 2172 -91 1784 -91 
Q 1150 -91 751 415 
Q 353 922 353 1747 
Q 353 2572 751 3078 
Q 1150 3584 1784 3584 
Q 2172 3584 2448 3432 
Q 2725 3281 2906 2969 
z
M 947 1747 
Q 947 1113 1208 752 
Q 1469 391 1925 391 
Q 2381 391 2643 752 
Q 2906 1113 2906 1747 
Q 2906 2381 2643 2742 
Q 2381 3103 1925 3103 
Q 1469 3103 1208 2742 
Q 947 2381 947 1747 
z
" transform="scale(0.015625)"/>
      <path id="DejaVuSans-45" d="M 628 4666 
L 3578 4666 
L 3578 4134 
L 1259 4134 
L 1259 2753 
L 3481 2753 
L 3481 2222 
L 1259 2222 
L 1259 531 
L 3634 531 
L 3634 0 
L 628 0 
L 628 4666 
z
" transform="scale(0.015625)"/>
      <path id="DejaVuSans-63" d="M 3122 3366 
L 3122 2828 
Q 2878 2963 2633 3030 
Q 2388 3097 2138 3097 
Q 1578 3097 1268 2742 
Q 959 2388 959 1747 
Q 959 1106 1268 751 
Q 1578 397 2138 397 
Q 2388 397 2633 464 
Q 2878 531 3122 666 
L 3122 134 
Q 2881 22 2623 -34 
Q 2366 -91 2075 -91 
Q 1284 -91 818 406 
Q 353 903 353 1747 
Q 353 2603 823 3093 
Q 1294 3584 2113 3584 
Q 2378 3584 2631 3529 
Q 2884 3475 3122 3366 
z
" transform="scale(0.015625)"/>
      <path id="DejaVuSans-6f" d="M 1959 3097 
Q 1497 3097 1228 2736 
Q 959 2375 959 1747 
Q 959 1119 1226 758 
Q 1494 397 1959 397 
Q 2419 397 2687 759 
Q 2956 1122 2956 1747 
Q 2956 2369 2687 2733 
Q 2419 3097 1959 3097 
z
M 1959 3584 
Q 2709 3584 3137 3096 
Q 3566 2609 3566 1747 
Q 3566 888 3137 398 
Q 2709 -91 1959 -91 
Q 1206 -91 779 398 
Q 353 888 353 1747 
Q 353 2609 779 3096 
Q 1206 3584 1959 3584 
z
" transform="scale(0.015625)"/>
      <path id="DejaVuSans-76" d="M 191 3500 
L 800 3500 
L 1894 563 
L 2988 3500 
L 3597 3500 
L 2284 0 
L 1503 0 
L 191 3500 
z
" transform="scale(0.015625)"/>
     </defs>
     <use xlink:href="#DejaVuSans-54"/>
     <use xlink:href="#DejaVuSans-65" transform="translate(44.083984 0)"/>
     <use xlink:href="#DejaVuSans-6c" transform="translate(105.607422 0)"/>
     <use xlink:href="#DejaVuSans-65" transform="translate(133.390625 0)"/>
     <use xlink:href="#DejaVuSans-6d" transform="translate(194.914062 0)"/>
     <use xlink:href="#DejaVuSans-65" transform="translate(292.326172 0)"/>
     <use xlink:href="#DejaVuSans-74" transform="translate(353.849609 0)"/>
     <use xlink:href="#DejaVuSans-72" transform="translate(393.058594 0)"/>
     <use xlink:href="#DejaVuSans-79" transform="translate(434.171875 0)"/>
     <use xlink:href="#DejaVuSans-20" transform="translate(493.351562 0)"/>
     <use xlink:href="#DejaVuSans-61" transform="translate(525.138672 0)"/>
     <use xlink:href="#DejaVuSans-6e" transform="translate(586.417969 0)"/>
     <use xlink:href="#DejaVuSans-64" transform="translate(649.796875 0)"/>
     <use xlink:href="#DejaVuSans-20" transform="translate(713.273438 0)"/>
     <use xlink:href="#DejaVuSans-45" transform="translate(745.060547 0)"/>
     <use xlink:href="#DejaVuSans-6e" transform="translate(808.244141 0)"/>
     <use xlink:href="#DejaVuSans-63" transform="translate(871.623047 0)"/>
     <use xlink:href="#DejaVuSans-6f" transform="translate(926.603516 0)"/>
     <use xlink:href="#DejaVuSans-64" transform="translate(987.785156 0)"/>
     <use xlink:href="#DejaVuSans-65" transform="translate(1051.261719 0)"/>
     <use xlink:href="#DejaVuSans-72" transform="translate(1112.785156 0)"/>
     <use xlink:href="#DejaVuSans-20" transform="translate(1153.898438 0)"/>
     <use xlink:href="#DejaVuSans-76" transform="translate(1185.685547 0)"/>
     <use xlink:href="#DejaVuSans-73" transform="translate(1244.865234 0)"/>
     <use xlink:href="#DejaVuSans-20" transform="translate(1296.964844 0)"/>
     <use xlink:href="#DejaVuSans-54" transform="translate(1328.751953 0)"/>
     <use xlink:href="#DejaVuSans-69" transform="translate(1386.710938 0)"/>
     <use xlink:href="#DejaVuSans-6d" transform="translate(1414.494141 0)"/>
     <use xlink:href="#DejaVuSans-65" transform="translate(1511.90625 0)"/>
    </g>
   </g>
  </g>
  <g id="axes_2">
   <g id="patch_7">
    <path d="M 57.17 534.04 
L 663.91 534.04 
L 663.91 378.973333 
L 57.17 378.973333 
z
" style="fill: #ffffff"/>
   </g>
   <g id="matplotlib.axis_3">
    <g id="xtick_10">
     <g id="line2d_34">
      <path d="M 57.17 534.04 
L 57.17 378.973333 
" clip-path="url(#pda64d93cb1)" style="fill: none; stroke: #b0b0b0; stroke-opacity: 0.3; stroke-width: 0.8; stroke-linecap: square"/>
     </g>
     <g id="line2d_35">
      <g>
       <use xlink:href="#me50a121fc1" x="57.17" y="534.04" style="stroke: #000000; stroke-width: 0.8"/>
      </g>
     </g>
     <g id="text_20">
      <!-- 0 -->
      <g transform="translate(53.98875 548.638438) scale(0.1 -0.1)">
       <use xlink:href="#DejaVuSans-30"/>
      </g>
     </g>
    </g>
    <g id="xtick_11">
     <g id="line2d_36">
      <path d="M 81.4396 534.04 
L 81.4396 378.973333 
" clip-path="url(#pda64d93cb1)" style="fill: none; stroke: #b0b0b0; stroke-opacity: 0.3; stroke-width: 0.8; stroke-linecap: square"/>
     </g>
     <g id="line2d_37">
      <g>
       <use xlink:href="#me50a121fc1" x="81.4396" y="534.04" style="stroke: #000000; stroke-width: 0.8"/>
      </g>
     </g>
     <g id="text_21">
      <!-- 1 -->
      <g transform="translate(78.25835 548.638438) scale(0.1 -0.1)">
       <use xlink:href="#DejaVuSans-31"/>
      </g>
     </g>
    </g>
    <g id="xtick_12">
     <g id="line2d_38">
      <path d="M 105.7092 534.04 
L 105.7092 378.973333 
" clip-path="url(#pda64d93cb1)" style="fill: none; stroke: #b0b0b0; stroke-opacity: 0.3; stroke-width: 0.8; stroke-linecap: square"/>
     </g>
     <g id="line2d_39">
      <g>
       <use xlink:href="#me50a121fc1" x="105.7092" y="534.04" style="stroke: #000000; stroke-width: 0.8"/>
      </g>
     </g>
     <g id="text_22">
      <!-- 2 -->
      <g transform="translate(102.52795 548.638438) scale(0.1 -0.1)">
       <use xlink:href="#DejaVuSans-32"/>
      </g>
     </g>
    </g>
    <g id="xtick_13">
     <g id="line2d_40">
      <path d="M 129.9788 534.04 
L 129.9788 378.973333 
" clip-path="url(#pda64d93cb1)" style="fill: none; stroke: #b0b0b0; stroke-opacity: 0.3; stroke-width: 0.8; stroke-linecap: square"/>
     </g>
     <g id="line2d_41">
      <g>
       <use xlink:href="#me50a121fc1" x="129.9788" y="534.04" style="stroke: #000000; stroke-width: 0.8"/>
      </g>
     </g>
     <g id="text_23">
      <!-- 3 -->
      <g transform="translate(126.79755 548.638438) scale(0.1 -0.1)">
       <use xlink:href="#DejaVuSans-33"/>
      </g>
     </g>
    </g>
    <g id="xtick_14">
     <g id="line2d_42">
      <path d="M 154.2484 534.04 
L 154.2484 378.973333 
" clip-path="url(#pda64d93cb1)" style="fill: none; stroke: #b0b0b0; stroke-opacity: 0.3; stroke-width: 0.8; stroke-linecap: square"/>
     </g>
     <g id="line2d_43">
      <g>
       <use xlink:href="#me50a121fc1" x="154.2484" y="534.04" style="stroke: #000000; stroke-width: 0.8"/>
      </g>
     </g>
     <g id="text_24">
      <!-- 4 -->
      <g transform="translate(151.06715 548.638438) scale(0.1 -0.1)">
       <use xlink:href="#DejaVuSans-34"/>
      </g>
     </g>
    </g>
    <g id="xtick_15">
     <g id="line2d_44">
      <path d="M 178.518 534.04 
L 178.518 378.973333 
" clip-path="url(#pda64d93cb1)" style="fill: none; stroke: #b0b0b0; stroke-opacity: 0.3; stroke-width: 0.8; stroke-linecap: square"/>
     </g>
     <g id="line2d_45">
      <g>
       <use xlink:href="#me50a121fc1" x="178.518" y="534.04" style="stroke: #000000; stroke-width: 0.8"/>
      </g>
     </g>
     <g id="text_25">
      <!-- 5 -->
      <g transform="translate(175.33675 548.638438) scale(0.1 -0.1)">
       <use xlink:href="#DejaVuSans-35"/>
      </g>
     </g>
    </g>
    <g id="xtick_16">
     <g id="line2d_46">
      <path d="M 202.7876 534.04 
L 202.7876 378.973333 
" clip-path="url(#pda64d93cb1)" style="fill: none; stroke: #b0b0b0; stroke-opacity: 0.3; stroke-width: 0.8; stroke-linecap: square"/>
     </g>
     <g id="line2d_47">
      <g>
       <use xlink:href="#me50a121fc1" x="202.7876" y="534.04" style="stroke: #000000; stroke-width: 0.8"/>
      </g>
     </g>
     <g id="text_26">
      <!-- 6 -->
      <g transform="translate(199.60635 548.638438) scale(0.1 -0.1)">
       <use xlink:href="#DejaVuSans-36"/>
      </g>
     </g>
    </g>
    <g id="xtick_17">
     <g id="line2d_48">
      <path d="M 227.0572 534.04 
L 227.0572 378.973333 
" clip-path="url(#pda64d93cb1)" style="fill: none; stroke: #b0b0b0; stroke-opacity: 0.3; stroke-width: 0.8; stroke-linecap: square"/>
     </g>
     <g id="line2d_49">
      <g>
       <use xlink:href="#me50a121fc1" x="227.0572" y="534.04" style="stroke: #000000; stroke-width: 0.8"/>
      </g>
     </g>
     <g id="text_27">
      <!-- 7 -->
      <g transform="translate(223.87595 548.638438) scale(0.1 -0.1)">
       <use xlink:href="#DejaVuSans-37"/>
      </g>
     </g>
    </g>
    <g id="xtick_18">
     <g id="line2d_50">
      <path d="M 251.3268 534.04 
L 251.3268 378.973333 
" clip-path="url(#pda64d93cb1)" style="fill: none; stroke: #b0b0b0; stroke-opacity: 0.3; stroke-width: 0.8; stroke-linecap: square"/>
     </g>
     <g id="line2d_51">
      <g>
       <use xlink:href="#me50a121fc1" x="251.3268" y="534.04" style="stroke: #000000; stroke-width: 0.8"/>
      </g>
     </g>
     <g id="text_28">
      <!-- 8 -->
      <g transform="translate(248.14555 548.638438) scale(0.1 -0.1)">
       <use xlink:href="#DejaVuSans-38"/>
      </g>
     </g>
    </g>
    <g id="xtick_19">
     <g id="line2d_52">
      <path d="M 275.5964 534.04 
L 275.5964 378.973333 
" clip-path="url(#pda64d93cb1)" style="fill: none; stroke: #b0b0b0; stroke-opacity: 0.3; stroke-width: 0.8; stroke-linecap: square"/>
     </g>
     <g id="line2d_53">
      <g>
       <use xlink:href="#me50a121fc1" x="275.5964" y="534.04" style="stroke: #000000; stroke-width: 0.8"/>
      </g>
     </g>
     <g id="text_29">
      <!-- 9 -->
      <g transform="translate(272.41515 548.638438) scale(0.1 -0.1)">
       <use xlink:href="#DejaVuSans-39"/>
      </g>
     </g>
    </g>
    <g id="xtick_20">
     <g id="line2d_54">
      <path d="M 299.866 534.04 
L 299.866 378.973333 
" clip-path="url(#pda64d93cb1)" style="fill: none; stroke: #b0b0b0; stroke-opacity: 0.3; stroke-width: 0.8; stroke-linecap: square"/>
     </g>
     <g id="line2d_55">
      <g>
       <use xlink:href="#me50a121fc1" x="299.866" y="534.04" style="stroke: #000000; stroke-width: 0.8"/>
      </g>
     </g>
     <g id="text_30">
      <!-- 10 -->
      <g transform="translate(293.5035 548.638438) scale(0.1 -0.1)">
       <use xlink:href="#DejaVuSans-31"/>
       <use xlink:href="#DejaVuSans-30" transform="translate(63.623047 0)"/>
      </g>
     </g>
    </g>
    <g id="xtick_21">
     <g id="line2d_56">
      <path d="M 324.1356 534.04 
L 324.1356 378.973333 
" clip-path="url(#pda64d93cb1)" style="fill: none; stroke: #b0b0b0; stroke-opacity: 0.3; stroke-width: 0.8; stroke-linecap: square"/>
     </g>
     <g id="line2d_57">
      <g>
       <use xlink:href="#me50a121fc1" x="324.1356" y="534.04" style="stroke: #000000; stroke-width: 0.8"/>
      </g>
     </g>
     <g id="text_31">
      <!-- 11 -->
      <g transform="translate(317.7731 548.638438) scale(0.1 -0.1)">
       <use xlink:href="#DejaVuSans-31"/>
       <use xlink:href="#DejaVuSans-31" transform="translate(63.623047 0)"/>
      </g>
     </g>
    </g>
    <g id="xtick_22">
     <g id="line2d_58">
      <path d="M 348.4052 534.04 
L 348.4052 378.973333 
" clip-path="url(#pda64d93cb1)" style="fill: none; stroke: #b0b0b0; stroke-opacity: 0.3; stroke-width: 0.8; stroke-linecap: square"/>
     </g>
     <g id="line2d_59">
      <g>
       <use xlink:href="#me50a121fc1" x="348.4052" y="534.04" style="stroke: #000000; stroke-width: 0.8"/>
      </g>
     </g>
     <g id="text_32">
      <!-- 12 -->
      <g transform="translate(342.0427 548.638438) scale(0.1 -0.1)">
       <use xlink:href="#DejaVuSans-31"/>
       <use xlink:href="#DejaVuSans-32" transform="translate(63.623047 0)"/>
      </g>
     </g>
    </g>
    <g id="xtick_23">
     <g id="line2d_60">
      <path d="M 372.6748 534.04 
L 372.6748 378.973333 
" clip-path="url(#pda64d93cb1)" style="fill: none; stroke: #b0b0b0; stroke-opacity: 0.3; stroke-width: 0.8; stroke-linecap: square"/>
     </g>
     <g id="line2d_61">
      <g>
       <use xlink:href="#me50a121fc1" x="372.6748" y="534.04" style="stroke: #000000; stroke-width: 0.8"/>
      </g>
     </g>
     <g id="text_33">
      <!-- 13 -->
      <g transform="translate(366.3123 548.638438) scale(0.1 -0.1)">
       <use xlink:href="#DejaVuSans-31"/>
       <use xlink:href="#DejaVuSans-33" transform="translate(63.623047 0)"/>
      </g>
     </g>
    </g>
    <g id="xtick_24">
     <g id="line2d_62">
      <path d="M 396.9444 534.04 
L 396.9444 378.973333 
" clip-path="url(#pda64d93cb1)" style="fill: none; stroke: #b0b0b0; stroke-opacity: 0.3; stroke-width: 0.8; stroke-linecap: square"/>
     </g>
     <g id="line2d_63">
      <g>
       <use xlink:href="#me50a121fc1" x="396.9444" y="534.04" style="stroke: #000000; stroke-width: 0.8"/>
      </g>
     </g>
     <g id="text_34">
      <!-- 14 -->
      <g transform="translate(390.5819 548.638438) scale(0.1 -0.1)">
       <use xlink:href="#DejaVuSans-31"/>
       <use xlink:href="#DejaVuSans-34" transform="translate(63.623047 0)"/>
      </g>
     </g>
    </g>
    <g id="xtick_25">
     <g id="line2d_64">
      <path d="M 421.214 534.04 
L 421.214 378.973333 
" clip-path="url(#pda64d93cb1)" style="fill: none; stroke: #b0b0b0; stroke-opacity: 0.3; stroke-width: 0.8; stroke-linecap: square"/>
     </g>
     <g id="line2d_65">
      <g>
       <use xlink:href="#me50a121fc1" x="421.214" y="534.04" style="stroke: #000000; stroke-width: 0.8"/>
      </g>
     </g>
     <g id="text_35">
      <!-- 15 -->
      <g transform="translate(414.8515 548.638438) scale(0.1 -0.1)">
       <use xlink:href="#DejaVuSans-31"/>
       <use xlink:href="#DejaVuSans-35" transform="translate(63.623047 0)"/>
      </g>
     </g>
    </g>
    <g id="xtick_26">
     <g id="line2d_66">
      <path d="M 445.4836 534.04 
L 445.4836 378.973333 
" clip-path="url(#pda64d93cb1)" style="fill: none; stroke: #b0b0b0; stroke-opacity: 0.3; stroke-width: 0.8; stroke-linecap: square"/>
     </g>
     <g id="line2d_67">
      <g>
       <use xlink:href="#me50a121fc1" x="445.4836" y="534.04" style="stroke: #000000; stroke-width: 0.8"/>
      </g>
     </g>
     <g id="text_36">
      <!-- 16 -->
      <g transform="translate(439.1211 548.638438) scale(0.1 -0.1)">
       <use xlink:href="#DejaVuSans-31"/>
       <use xlink:href="#DejaVuSans-36" transform="translate(63.623047 0)"/>
      </g>
     </g>
    </g>
    <g id="xtick_27">
     <g id="line2d_68">
      <path d="M 469.7532 534.04 
L 469.7532 378.973333 
" clip-path="url(#pda64d93cb1)" style="fill: none; stroke: #b0b0b0; stroke-opacity: 0.3; stroke-width: 0.8; stroke-linecap: square"/>
     </g>
     <g id="line2d_69">
      <g>
       <use xlink:href="#me50a121fc1" x="469.7532" y="534.04" style="stroke: #000000; stroke-width: 0.8"/>
      </g>
     </g>
     <g id="text_37">
      <!-- 17 -->
      <g transform="translate(463.3907 548.638438) scale(0.1 -0.1)">
       <use xlink:href="#DejaVuSans-31"/>
       <use xlink:href="#DejaVuSans-37" transform="translate(63.623047 0)"/>
      </g>
     </g>
    </g>
    <g id="xtick_28">
     <g id="line2d_70">
      <path d="M 494.0228 534.04 
L 494.0228 378.973333 
" clip-path="url(#pda64d93cb1)" style="fill: none; stroke: #b0b0b0; stroke-opacity: 0.3; stroke-width: 0.8; stroke-linecap: square"/>
     </g>
     <g id="line2d_71">
      <g>
       <use xlink:href="#me50a121fc1" x="494.0228" y="534.04" style="stroke: #000000; stroke-width: 0.8"/>
      </g>
     </g>
     <g id="text_38">
      <!-- 18 -->
      <g transform="translate(487.6603 548.638438) scale(0.1 -0.1)">
       <use xlink:href="#DejaVuSans-31"/>
       <use xlink:href="#DejaVuSans-38" transform="translate(63.623047 0)"/>
      </g>
     </g>
    </g>
    <g id="xtick_29">
     <g id="line2d_72">
      <path d="M 518.2924 534.04 
L 518.2924 378.973333 
" clip-path="url(#pda64d93cb1)" style="fill: none; stroke: #b0b0b0; stroke-opacity: 0.3; stroke-width: 0.8; stroke-linecap: square"/>
     </g>
     <g id="line2d_73">
      <g>
       <use xlink:href="#me50a121fc1" x="518.2924" y="534.04" style="stroke: #000000; stroke-width: 0.8"/>
      </g>
     </g>
     <g id="text_39">
      <!-- 19 -->
      <g transform="translate(511.9299 548.638438) scale(0.1 -0.1)">
       <use xlink:href="#DejaVuSans-31"/>
       <use xlink:href="#DejaVuSans-39" transform="translate(63.623047 0)"/>
      </g>
     </g>
    </g>
    <g id="xtick_30">
     <g id="line2d_74">
      <path d="M 542.562 534.04 
L 542.562 378.973333 
" clip-path="url(#pda64d93cb1)" style="fill: none; stroke: #b0b0b0; stroke-opacity: 0.3; stroke-width: 0.8; stroke-linecap: square"/>
     </g>
     <g id="line2d_75">
      <g>
       <use xlink:href="#me50a121fc1" x="542.562" y="534.04" style="stroke: #000000; stroke-width: 0.8"/>
      </g>
     </g>
     <g id="text_40">
      <!-- 20 -->
      <g transform="translate(536.1995 548.638438) scale(0.1 -0.1)">
       <use xlink:href="#DejaVuSans-32"/>
       <use xlink:href="#DejaVuSans-30" transform="translate(63.623047 0)"/>
      </g>
     </g>
    </g>
    <g id="xtick_31">
     <g id="line2d_76">
      <path d="M 566.8316 534.04 
L 566.8316 378.973333 
" clip-path="url(#pda64d93cb1)" style="fill: none; stroke: #b0b0b0; stroke-opacity: 0.3; stroke-width: 0.8; stroke-linecap: square"/>
     </g>
     <g id="line2d_77">
      <g>
       <use xlink:href="#me50a121fc1" x="566.8316" y="534.04" style="stroke: #000000; stroke-width: 0.8"/>
      </g>
     </g>
     <g id="text_41">
      <!-- 21 -->
      <g transform="translate(560.4691 548.638438) scale(0.1 -0.1)">
       <use xlink:href="#DejaVuSans-32"/>
       <use xlink:href="#DejaVuSans-31" transform="translate(63.623047 0)"/>
      </g>
     </g>
    </g>
    <g id="xtick_32">
     <g id="line2d_78">
      <path d="M 591.1012 534.04 
L 591.1012 378.973333 
" clip-path="url(#pda64d93cb1)" style="fill: none; stroke: #b0b0b0; stroke-opacity: 0.3; stroke-width: 0.8; stroke-linecap: square"/>
     </g>
     <g id="line2d_79">
      <g>
       <use xlink:href="#me50a121fc1" x="591.1012" y="534.04" style="stroke: #000000; stroke-width: 0.8"/>
      </g>
     </g>
     <g id="text_42">
      <!-- 22 -->
      <g transform="translate(584.7387 548.638438) scale(0.1 -0.1)">
       <use xlink:href="#DejaVuSans-32"/>
       <use xlink:href="#DejaVuSans-32" transform="translate(63.623047 0)"/>
      </g>
     </g>
    </g>
    <g id="xtick_33">
     <g id="line2d_80">
      <path d="M 615.3708 534.04 
L 615.3708 378.973333 
" clip-path="url(#pda64d93cb1)" style="fill: none; stroke: #b0b0b0; stroke-opacity: 0.3; stroke-width: 0.8; stroke-linecap: square"/>
     </g>
     <g id="line2d_81">
      <g>
       <use xlink:href="#me50a121fc1" x="615.3708" y="534.04" style="stroke: #000000; stroke-width: 0.8"/>
      </g>
     </g>
     <g id="text_43">
      <!-- 23 -->
      <g transform="translate(609.0083 548.638438) scale(0.1 -0.1)">
       <use xlink:href="#DejaVuSans-32"/>
       <use xlink:href="#DejaVuSans-33" transform="translate(63.623047 0)"/>
      </g>
     </g>
    </g>
    <g id="xtick_34">
     <g id="line2d_82">
      <path d="M 639.6404 534.04 
L 639.6404 378.973333 
" clip-path="url(#pda64d93cb1)" style="fill: none; stroke: #b0b0b0; stroke-opacity: 0.3; stroke-width: 0.8; stroke-linecap: square"/>
     </g>
     <g id="line2d_83">
      <g>
       <use xlink:href="#me50a121fc1" x="639.6404" y="534.04" style="stroke: #000000; stroke-width: 0.8"/>
      </g>
     </g>
     <g id="text_44">
      <!-- 24 -->
      <g transform="translate(633.2779 548.638438) scale(0.1 -0.1)">
       <use xlink:href="#DejaVuSans-32"/>
       <use xlink:href="#DejaVuSans-34" transform="translate(63.623047 0)"/>
      </g>
     </g>
    </g>
    <g id="xtick_35">
     <g id="line2d_84">
      <path d="M 663.91 534.04 
L 663.91 378.973333 
" clip-path="url(#pda64d93cb1)" style="fill: none; stroke: #b0b0b0; stroke-opacity: 0.3; stroke-width: 0.8; stroke-linecap: square"/>
     </g>
     <g id="line2d_85">
      <g>
       <use xlink:href="#me50a121fc1" x="663.91" y="534.04" style="stroke: #000000; stroke-width: 0.8"/>
      </g>
     </g>
     <g id="text_45">
      <!-- 25 -->
      <g transform="translate(657.5475 548.638438) scale(0.1 -0.1)">
       <use xlink:href="#DejaVuSans-32"/>
       <use xlink:href="#DejaVuSans-35" transform="translate(63.623047 0)"/>
      </g>
     </g>
    </g>
    <g id="text_46">
     <!-- Frequency (Hz) -->
     <g transform="translate(322.835313 562.316562) scale(0.1 -0.1)">
      <defs>
       <path id="DejaVuSans-46" d="M 628 4666 
L 3309 4666 
L 3309 4134 
L 1259 4134 
L 1259 2759 
L 3109 2759 
L 3109 2228 
L 1259 2228 
L 1259 0 
L 628 0 
L 628 4666 
z
" transform="scale(0.015625)"/>
       <path id="DejaVuSans-71" d="M 947 1747 
Q 947 1113 1208 752 
Q 1469 391 1925 391 
Q 2381 391 2643 752 
Q 2906 1113 2906 1747 
Q 2906 2381 2643 2742 
Q 2381 3103 1925 3103 
Q 1469 3103 1208 2742 
Q 947 2381 947 1747 
z
M 2906 525 
Q 2725 213 2448 61 
Q 2172 -91 1784 -91 
Q 1150 -91 751 415 
Q 353 922 353 1747 
Q 353 2572 751 3078 
Q 1150 3584 1784 3584 
Q 2172 3584 2448 3432 
Q 2725 3281 2906 2969 
L 2906 3500 
L 3481 3500 
L 3481 -1331 
L 2906 -1331 
L 2906 525 
z
" transform="scale(0.015625)"/>
       <path id="DejaVuSans-75" d="M 544 1381 
L 544 3500 
L 1119 3500 
L 1119 1403 
Q 1119 906 1312 657 
Q 1506 409 1894 409 
Q 2359 409 2629 706 
Q 2900 1003 2900 1516 
L 2900 3500 
L 3475 3500 
L 3475 0 
L 2900 0 
L 2900 538 
Q 2691 219 2414 64 
Q 2138 -91 1772 -91 
Q 1169 -91 856 284 
Q 544 659 544 1381 
z
M 1991 3584 
L 1991 3584 
z
" transform="scale(0.015625)"/>
       <path id="DejaVuSans-48" d="M 628 4666 
L 1259 4666 
L 1259 2753 
L 3553 2753 
L 3553 4666 
L 4184 4666 
L 4184 0 
L 3553 0 
L 3553 2222 
L 1259 2222 
L 1259 0 
L 628 0 
L 628 4666 
z
" transform="scale(0.015625)"/>
       <path id="DejaVuSans-7a" d="M 353 3500 
L 3084 3500 
L 3084 2975 
L 922 459 
L 3084 459 
L 3084 0 
L 275 0 
L 275 525 
L 2438 3041 
L 353 3041 
L 353 3500 
z
" transform="scale(0.015625)"/>
      </defs>
      <use xlink:href="#DejaVuSans-46"/>
      <use xlink:href="#DejaVuSans-72" transform="translate(50.269531 0)"/>
      <use xlink:href="#DejaVuSans-65" transform="translate(89.132812 0)"/>
      <use xlink:href="#DejaVuSans-71" transform="translate(150.65625 0)"/>
      <use xlink:href="#DejaVuSans-75" transform="translate(214.132812 0)"/>
      <use xlink:href="#DejaVuSans-65" transform="translate(277.511719 0)"/>
      <use xlink:href="#DejaVuSans-6e" transform="translate(339.035156 0)"/>
      <use xlink:href="#DejaVuSans-63" transform="translate(402.414062 0)"/>
      <use xlink:href="#DejaVuSans-79" transform="translate(457.394531 0)"/>
      <use xlink:href="#DejaVuSans-20" transform="translate(516.574219 0)"/>
      <use xlink:href="#DejaVuSans-28" transform="translate(548.361328 0)"/>
      <use xlink:href="#DejaVuSans-48" transform="translate(587.375 0)"/>
      <use xlink:href="#DejaVuSans-7a" transform="translate(662.570312 0)"/>
      <use xlink:href="#DejaVuSans-29" transform="translate(715.060547 0)"/>
     </g>
    </g>
   </g>
   <g id="matplotlib.axis_4">
    <g id="ytick_8">
     <g id="line2d_86">
      <path d="M 57.17 526.991515 
L 663.91 526.991515 
" clip-path="url(#pda64d93cb1)" style="fill: none; stroke: #b0b0b0; stroke-opacity: 0.3; stroke-width: 0.8; stroke-linecap: square"/>
     </g>
     <g id="line2d_87">
      <g>
       <use xlink:href="#ma2f55ac669" x="57.17" y="526.991515" style="stroke: #000000; stroke-width: 0.8"/>
      </g>
     </g>
     <g id="text_47">
      <!-- 0 -->
      <g transform="translate(43.8075 530.790734) scale(0.1 -0.1)">
       <use xlink:href="#DejaVuSans-30"/>
      </g>
     </g>
    </g>
    <g id="ytick_9">
     <g id="line2d_88">
      <path d="M 57.17 487.749393 
L 663.91 487.749393 
" clip-path="url(#pda64d93cb1)" style="fill: none; stroke: #b0b0b0; stroke-opacity: 0.3; stroke-width: 0.8; stroke-linecap: square"/>
     </g>
     <g id="line2d_89">
      <g>
       <use xlink:href="#ma2f55ac669" x="57.17" y="487.749393" style="stroke: #000000; stroke-width: 0.8"/>
      </g>
     </g>
     <g id="text_48">
      <!-- 1000 -->
      <g transform="translate(24.72 491.548612) scale(0.1 -0.1)">
       <use xlink:href="#DejaVuSans-31"/>
       <use xlink:href="#DejaVuSans-30" transform="translate(63.623047 0)"/>
       <use xlink:href="#DejaVuSans-30" transform="translate(127.246094 0)"/>
       <use xlink:href="#DejaVuSans-30" transform="translate(190.869141 0)"/>
      </g>
     </g>
    </g>
    <g id="ytick_10">
     <g id="line2d_90">
      <path d="M 57.17 448.507272 
L 663.91 448.507272 
" clip-path="url(#pda64d93cb1)" style="fill: none; stroke: #b0b0b0; stroke-opacity: 0.3; stroke-width: 0.8; stroke-linecap: square"/>
     </g>
     <g id="line2d_91">
      <g>
       <use xlink:href="#ma2f55ac669" x="57.17" y="448.507272" style="stroke: #000000; stroke-width: 0.8"/>
      </g>
     </g>
     <g id="text_49">
      <!-- 2000 -->
      <g transform="translate(24.72 452.30649) scale(0.1 -0.1)">
       <use xlink:href="#DejaVuSans-32"/>
       <use xlink:href="#DejaVuSans-30" transform="translate(63.623047 0)"/>
       <use xlink:href="#DejaVuSans-30" transform="translate(127.246094 0)"/>
       <use xlink:href="#DejaVuSans-30" transform="translate(190.869141 0)"/>
      </g>
     </g>
    </g>
    <g id="ytick_11">
     <g id="line2d_92">
      <path d="M 57.17 409.26515 
L 663.91 409.26515 
" clip-path="url(#pda64d93cb1)" style="fill: none; stroke: #b0b0b0; stroke-opacity: 0.3; stroke-width: 0.8; stroke-linecap: square"/>
     </g>
     <g id="line2d_93">
      <g>
       <use xlink:href="#ma2f55ac669" x="57.17" y="409.26515" style="stroke: #000000; stroke-width: 0.8"/>
      </g>
     </g>
     <g id="text_50">
      <!-- 3000 -->
      <g transform="translate(24.72 413.064369) scale(0.1 -0.1)">
       <use xlink:href="#DejaVuSans-33"/>
       <use xlink:href="#DejaVuSans-30" transform="translate(63.623047 0)"/>
       <use xlink:href="#DejaVuSans-30" transform="translate(127.246094 0)"/>
       <use xlink:href="#DejaVuSans-30" transform="translate(190.869141 0)"/>
      </g>
     </g>
    </g>
    <g id="text_51">
     <!-- Amplitude -->
     <g transform="translate(18.640312 482.129323) rotate(-90) scale(0.1 -0.1)">
      <defs>
       <path id="DejaVuSans-41" d="M 2188 4044 
L 1331 1722 
L 3047 1722 
L 2188 4044 
z
M 1831 4666 
L 2547 4666 
L 4325 0 
L 3669 0 
L 3244 1197 
L 1141 1197 
L 716 0 
L 50 0 
L 1831 4666 
z
" transform="scale(0.015625)"/>
       <path id="DejaVuSans-70" d="M 1159 525 
L 1159 -1331 
L 581 -1331 
L 581 3500 
L 1159 3500 
L 1159 2969 
Q 1341 3281 1617 3432 
Q 1894 3584 2278 3584 
Q 2916 3584 3314 3078 
Q 3713 2572 3713 1747 
Q 3713 922 3314 415 
Q 2916 -91 2278 -91 
Q 1894 -91 1617 61 
Q 1341 213 1159 525 
z
M 3116 1747 
Q 3116 2381 2855 2742 
Q 2594 3103 2138 3103 
Q 1681 3103 1420 2742 
Q 1159 2381 1159 1747 
Q 1159 1113 1420 752 
Q 1681 391 2138 391 
Q 2594 391 2855 752 
Q 3116 1113 3116 1747 
z
" transform="scale(0.015625)"/>
      </defs>
      <use xlink:href="#DejaVuSans-41"/>
      <use xlink:href="#DejaVuSans-6d" transform="translate(68.408203 0)"/>
      <use xlink:href="#DejaVuSans-70" transform="translate(165.820312 0)"/>
      <use xlink:href="#DejaVuSans-6c" transform="translate(229.296875 0)"/>
      <use xlink:href="#DejaVuSans-69" transform="translate(257.080078 0)"/>
      <use xlink:href="#DejaVuSans-74" transform="translate(284.863281 0)"/>
      <use xlink:href="#DejaVuSans-75" transform="translate(324.072266 0)"/>
      <use xlink:href="#DejaVuSans-64" transform="translate(387.451172 0)"/>
      <use xlink:href="#DejaVuSans-65" transform="translate(450.927734 0)"/>
     </g>
    </g>
   </g>
   <g id="line2d_94">
    <path d="M 57.17 386.021818 
L 66.873964 526.944233 
L 71.725946 526.971911 
L 81.429911 520.523625 
L 91.133875 526.984957 
L 236.693338 526.990837 
L 721 526.990863 
L 721 526.990863 
" clip-path="url(#pda64d93cb1)" style="fill: none; stroke: #0000ff; stroke-width: 1.5; stroke-linecap: square"/>
   </g>
   <g id="line2d_95">
    <path d="M 57.17 526.979756 
L 120.877694 526.99147 
L 666.943641 526.991514 
L 666.943641 526.991514 
" clip-path="url(#pda64d93cb1)" style="fill: none; stroke: #ff0000; stroke-width: 1.5; stroke-linecap: square"/>
   </g>
   <g id="patch_8">
    <path d="M 57.17 534.04 
L 57.17 378.973333 
" style="fill: none; stroke: #000000; stroke-width: 0.8; stroke-linejoin: miter; stroke-linecap: square"/>
   </g>
   <g id="patch_9">
    <path d="M 663.91 534.04 
L 663.91 378.973333 
" style="fill: none; stroke: #000000; stroke-width: 0.8; stroke-linejoin: miter; stroke-linecap: square"/>
   </g>
   <g id="patch_10">
    <path d="M 57.17 534.04 
L 663.91 534.04 
" style="fill: none; stroke: #000000; stroke-width: 0.8; stroke-linejoin: miter; stroke-linecap: square"/>
   </g>
   <g id="patch_11">
    <path d="M 57.17 378.973333 
L 663.91 378.973333 
" style="fill: none; stroke: #000000; stroke-width: 0.8; stroke-linejoin: miter; stroke-linecap: square"/>
   </g>
   <g id="legend_1">
    <g id="patch_12">
     <path d="M 575.574062 416.329583 
L 656.91 416.329583 
Q 658.91 416.329583 658.91 414.329583 
L 658.91 385.973333 
Q 658.91 383.973333 656.91 383.973333 
L 575.574062 383.973333 
Q 573.574062 383.973333 573.574062 385.973333 
L 573.574062 414.329583 
Q 573.574062 416.329583 575.574062 416.329583 
z
" style="fill: #ffffff; opacity: 0.8; stroke: #cccccc; stroke-linejoin: miter"/>
    </g>
    <g id="line2d_96">
     <path d="M 577.574062 392.071771 
L 587.574062 392.071771 
L 597.574062 392.071771 
" style="fill: none; stroke: #0000ff; stroke-width: 1.5; stroke-linecap: square"/>
    </g>
    <g id="text_52">
     <!-- Telemetry -->
     <g transform="translate(605.574062 395.571771) scale(0.1 -0.1)">
      <use xlink:href="#DejaVuSans-54"/>
      <use xlink:href="#DejaVuSans-65" transform="translate(44.083984 0)"/>
      <use xlink:href="#DejaVuSans-6c" transform="translate(105.607422 0)"/>
      <use xlink:href="#DejaVuSans-65" transform="translate(133.390625 0)"/>
      <use xlink:href="#DejaVuSans-6d" transform="translate(194.914062 0)"/>
      <use xlink:href="#DejaVuSans-65" transform="translate(292.326172 0)"/>
      <use xlink:href="#DejaVuSans-74" transform="translate(353.849609 0)"/>
      <use xlink:href="#DejaVuSans-72" transform="translate(393.058594 0)"/>
      <use xlink:href="#DejaVuSans-79" transform="translate(434.171875 0)"/>
     </g>
    </g>
    <g id="line2d_97">
     <path d="M 577.574062 406.749896 
L 587.574062 406.749896 
L 597.574062 406.749896 
" style="fill: none; stroke: #ff0000; stroke-width: 1.5; stroke-linecap: square"/>
    </g>
    <g id="text_53">
     <!-- Encoder -->
     <g transform="translate(605.574062 410.249896) scale(0.1 -0.1)">
      <use xlink:href="#DejaVuSans-45"/>
      <use xlink:href="#DejaVuSans-6e" transform="translate(63.183594 0)"/>
      <use xlink:href="#DejaVuSans-63" transform="translate(126.5625 0)"/>
      <use xlink:href="#DejaVuSans-6f" transform="translate(181.542969 0)"/>
      <use xlink:href="#DejaVuSans-64" transform="translate(242.724609 0)"/>
      <use xlink:href="#DejaVuSans-65" transform="translate(306.201172 0)"/>
      <use xlink:href="#DejaVuSans-72" transform="translate(367.724609 0)"/>
     </g>
    </g>
   </g>
  </g>
  <g id="axes_3">
   <g id="matplotlib.axis_5">
    <g id="ytick_12">
     <g id="line2d_98">
      <defs>
       <path id="ma18cbed553" d="M 0 0 
L 3.5 0 
" style="stroke: #000000; stroke-width: 0.8"/>
      </defs>
      <g>
       <use xlink:href="#ma18cbed553" x="663.91" y="282.38587" style="stroke: #000000; stroke-width: 0.8"/>
      </g>
     </g>
     <g id="text_54">
      <!-- 1.0 -->
      <g style="fill: #ff0000" transform="translate(670.91 286.185089) scale(0.1 -0.1)">
       <defs>
        <path id="DejaVuSans-2212" d="M 678 2272 
L 4684 2272 
L 4684 1741 
L 678 1741 
L 678 2272 
z
" transform="scale(0.015625)"/>
        <path id="DejaVuSans-2e" d="M 684 794 
L 1344 794 
L 1344 0 
L 684 0 
L 684 794 
z
" transform="scale(0.015625)"/>
       </defs>
       <use xlink:href="#DejaVuSans-2212"/>
       <use xlink:href="#DejaVuSans-31" transform="translate(83.789062 0)"/>
       <use xlink:href="#DejaVuSans-2e" transform="translate(147.412109 0)"/>
       <use xlink:href="#DejaVuSans-30" transform="translate(179.199219 0)"/>
      </g>
     </g>
    </g>
    <g id="ytick_13">
     <g id="line2d_99">
      <g>
       <use xlink:href="#ma18cbed553" x="663.91" y="214.152716" style="stroke: #000000; stroke-width: 0.8"/>
      </g>
     </g>
     <g id="text_55">
      <!-- 0.5 -->
      <g style="fill: #ff0000" transform="translate(670.91 217.951934) scale(0.1 -0.1)">
       <use xlink:href="#DejaVuSans-2212"/>
       <use xlink:href="#DejaVuSans-30" transform="translate(83.789062 0)"/>
       <use xlink:href="#DejaVuSans-2e" transform="translate(147.412109 0)"/>
       <use xlink:href="#DejaVuSans-35" transform="translate(179.199219 0)"/>
      </g>
     </g>
    </g>
    <g id="ytick_14">
     <g id="line2d_100">
      <g>
       <use xlink:href="#ma18cbed553" x="663.91" y="145.919561" style="stroke: #000000; stroke-width: 0.8"/>
      </g>
     </g>
     <g id="text_56">
      <!-- 0.0 -->
      <g style="fill: #ff0000" transform="translate(670.91 149.71878) scale(0.1 -0.1)">
       <use xlink:href="#DejaVuSans-30"/>
       <use xlink:href="#DejaVuSans-2e" transform="translate(63.623047 0)"/>
       <use xlink:href="#DejaVuSans-30" transform="translate(95.410156 0)"/>
      </g>
     </g>
    </g>
    <g id="ytick_15">
     <g id="line2d_101">
      <g>
       <use xlink:href="#ma18cbed553" x="663.91" y="77.686407" style="stroke: #000000; stroke-width: 0.8"/>
      </g>
     </g>
     <g id="text_57">
      <!-- 0.5 -->
      <g style="fill: #ff0000" transform="translate(670.91 81.485626) scale(0.1 -0.1)">
       <use xlink:href="#DejaVuSans-30"/>
       <use xlink:href="#DejaVuSans-2e" transform="translate(63.623047 0)"/>
       <use xlink:href="#DejaVuSans-35" transform="translate(95.410156 0)"/>
      </g>
     </g>
    </g>
    <g id="text_58">
     <!-- Encoder -->
     <g style="fill: #ff0000" transform="translate(706.79125 202.389635) rotate(-90) scale(0.1 -0.1)">
      <use xlink:href="#DejaVuSans-45"/>
      <use xlink:href="#DejaVuSans-6e" transform="translate(63.183594 0)"/>
      <use xlink:href="#DejaVuSans-63" transform="translate(126.5625 0)"/>
      <use xlink:href="#DejaVuSans-6f" transform="translate(181.542969 0)"/>
      <use xlink:href="#DejaVuSans-64" transform="translate(242.724609 0)"/>
      <use xlink:href="#DejaVuSans-65" transform="translate(306.201172 0)"/>
      <use xlink:href="#DejaVuSans-72" transform="translate(367.724609 0)"/>
     </g>
    </g>
   </g>
   <g id="line2d_102">
    <path d="M 84.749091 145.919561 
L 85.18363 145.919561 
L 85.397451 146.056027 
L 85.611272 146.874825 
L 86.045811 151.51468 
L 86.687273 167.208305 
L 87.335633 187.814718 
L 88.197814 223.432425 
L 89.059994 267.647509 
L 89.922175 313.227256 
L 90.135996 313.227256 
L 90.570535 310.634396 
L 91.432716 307.90507 
L 91.646536 307.768603 
L 92.294896 307.768603 
L 92.943256 308.723868 
L 93.805437 311.180261 
L 95.743619 318.412975 
L 96.6058 320.323504 
L 97.46798 321.824633 
L 98.11634 322.506965 
L 98.543982 322.779897 
L 98.757803 322.779897 
L 98.978521 322.916364 
L 100.268343 322.916364 
L 100.489062 322.779897 
L 101.344345 321.551701 
L 101.992705 320.187037 
L 102.641065 317.86711 
L 103.289424 315.001318 
L 104.579247 307.90507 
L 105.875966 299.444159 
L 107.814149 284.023466 
L 109.973049 262.598255 
L 111.476692 245.676433 
L 112.552694 233.530931 
L 117.511957 171.029362 
L 120.098499 136.093987 
L 121.395219 120.946227 
L 123.11958 103.342073 
L 125.271583 83.690924 
L 126.782124 71.136024 
L 128.720306 57.079994 
L 130.444667 48.073218 
L 131.520669 44.252161 
L 132.389747 42.341633 
L 132.603568 42.205166 
L 133.031209 41.795768 
L 133.24503 41.795768 
L 133.89339 41.522835 
L 134.54175 41.522835 
L 134.755571 41.659301 
L 135.19011 42.341633 
L 135.617751 43.160431 
L 136.914471 47.663819 
L 137.342113 49.710813 
L 138.638833 56.807062 
L 139.714834 63.630377 
L 140.790835 71.545423 
L 144.239558 104.297337 
L 145.96392 124.084952 
L 151.571543 194.7745 
L 153.509725 219.338435 
L 156.744627 257.549002 
L 159.54499 285.115196 
L 160.19335 290.16445 
L 161.917711 302.71935 
L 162.779892 307.768603 
L 163.855893 312.817857 
L 164.504253 315.410717 
L 166.656256 320.869369 
L 166.876974 321.005835 
L 167.304616 321.415234 
L 167.518437 321.415234 
L 167.952976 321.688167 
L 168.166797 321.688167 
L 168.380617 321.824633 
L 169.242798 321.824633 
L 169.891158 321.415234 
L 170.3188 320.732903 
L 170.96716 319.504706 
L 171.82934 316.502447 
L 172.691521 312.408458 
L 173.553702 307.632137 
L 174.850421 299.03476 
L 175.926423 290.710315 
L 177.002424 281.703538 
L 178.299144 269.558037 
L 181.527149 233.530931 
L 184.54823 194.910966 
L 189.507493 129.816537 
L 191.445675 107.572528 
L 192.521677 96.382291 
L 195.542758 68.406698 
L 196.191118 63.90331 
L 198.770762 49.574347 
L 200.502021 43.56983 
L 200.715842 43.296897 
L 201.143484 42.478099 
L 201.364202 42.341633 
L 201.791843 41.795768 
L 202.219485 41.795768 
L 202.440203 41.522835 
L 203.516205 41.522835 
L 203.730026 41.659301 
L 204.378385 42.478099 
L 205.454387 45.480358 
L 206.751107 51.757808 
L 207.827108 57.762326 
L 209.123828 66.359703 
L 211.275831 85.055587 
L 214.724554 121.355626 
L 223.99472 238.580185 
L 228.084906 281.976471 
L 231.540526 306.949806 
L 232.395809 311.453194 
L 233.692529 316.638913 
L 235.203069 320.45997 
L 236.279071 321.688167 
L 236.927431 322.097566 
L 238.437971 322.097566 
L 238.651792 321.961099 
L 239.293254 321.142302 
L 240.589974 318.003577 
L 241.665976 312.817857 
L 242.528156 308.041536 
L 243.824876 299.307692 
L 246.197597 280.475342 
L 247.701241 265.464048 
L 249.425602 245.812899 
L 250.508501 233.394465 
L 253.522685 195.593298 
L 255.033225 175.942149 
L 259.130308 124.90375 
L 260.42013 111.120652 
L 262.358312 92.288302 
L 265.165573 68.133765 
L 267.103755 55.305932 
L 267.965935 50.802544 
L 269.904118 43.706296 
L 270.766298 42.205166 
L 271.628479 41.113436 
L 272.056121 41.113436 
L 272.276839 40.97697 
L 272.70448 40.97697 
L 273.35284 41.932234 
L 274.215021 44.252161 
L 275.077202 47.936751 
L 277.663744 63.220978 
L 278.739745 71.27249 
L 281.974647 102.113876 
L 283.271367 116.442838 
L 287.147731 164.751912 
L 288.437554 181.537268 
L 290.382633 206.783535 
L 291.886276 225.479419 
L 294.045177 250.862153 
L 295.983359 271.877964 
L 297.280079 284.023466 
L 298.569901 293.84904 
L 300.728801 308.178002 
L 302.880804 317.457711 
L 303.315344 318.685908 
L 303.956806 320.45997 
L 304.825884 321.688167 
L 305.039705 322.097566 
L 305.253526 322.097566 
L 305.901886 322.506965 
L 307.191708 322.506965 
L 307.840068 322.097566 
L 309.12989 319.641172 
L 309.564429 318.140043 
L 310.854251 311.999059 
L 312.364792 302.992283 
L 313.013152 298.352428 
L 314.951334 282.795269 
L 315.599694 276.381352 
L 316.675695 265.191115 
L 322.71096 196.957961 
L 325.945862 159.020327 
L 328.966943 125.449615 
L 333.057128 87.239048 
L 333.705488 82.462728 
L 334.353848 78.095806 
L 335.857491 69.089029 
L 336.719672 64.722107 
L 338.444033 57.625859 
L 340.175292 52.576606 
L 341.251294 50.120212 
L 341.892756 48.892016 
L 342.113474 48.755549 
L 342.761834 48.755549 
L 342.975655 48.892016 
L 344.265477 50.393145 
L 344.913837 52.713072 
L 345.776018 57.489393 
L 347.934918 73.046552 
L 349.438561 87.102582 
L 350.735281 100.066881 
L 352.025104 114.122911 
L 353.749465 135.138723 
L 362.585093 246.90463 
L 365.819995 279.929476 
L 366.895996 289.072719 
L 369.268717 305.858075 
L 370.351616 311.726126 
L 372.289798 318.822374 
L 373.3658 321.278768 
L 374.441801 322.506965 
L 374.66252 322.643431 
L 376.166163 322.643431 
L 376.814523 322.234032 
L 377.462883 321.278768 
L 378.325063 319.504706 
L 379.401065 315.001318 
L 380.477066 308.9968 
L 381.125426 304.766345 
L 382.635967 293.576107 
L 384.360328 278.564813 
L 386.29851 259.186597 
L 389.319591 225.342953 
L 391.037055 205.828271 
L 392.333775 190.407578 
L 393.623597 175.123351 
L 395.134138 157.109798 
L 396.430858 142.64437 
L 398.155219 123.812019 
L 401.817763 89.695442 
L 403.114482 79.733401 
L 403.969766 74.001816 
L 405.052664 67.724366 
L 406.990847 59.536388 
L 408.066848 55.715331 
L 410.00503 49.983746 
L 410.65339 48.482617 
L 410.867211 48.34615 
L 411.087929 48.34615 
L 411.736289 48.755549 
L 413.239932 50.802544 
L 414.315934 55.305932 
L 415.178114 60.628118 
L 416.688655 71.545423 
L 418.847555 91.742437 
L 421.434097 119.172165 
L 424.88282 162.295518 
L 426.386463 181.946667 
L 432.856267 260.687727 
L 434.152987 274.60729 
L 435.442809 285.933994 
L 436.518811 294.258439 
L 437.60171 301.627619 
L 438.46389 306.949806 
L 439.539892 312.544924 
L 440.402073 316.093048 
L 441.691895 319.914105 
L 442.126434 320.869369 
L 443.202435 322.097566 
L 443.850795 322.506965 
L 445.361336 322.506965 
L 445.575157 322.370498 
L 446.223517 321.415234 
L 447.299518 319.504706 
L 447.947878 316.77538 
L 449.672239 307.495671 
L 450.748241 299.990024 
L 452.258781 288.253921 
L 453.120962 281.157673 
L 454.845323 263.826452 
L 456.135146 250.179821 
L 457.211147 238.443719 
L 459.156227 215.653845 
L 460.446049 200.642551 
L 462.60495 175.669216 
L 463.46713 165.434243 
L 465.191492 144.827831 
L 468.205675 113.031181 
L 471.654398 83.145059 
L 474.454761 65.950304 
L 476.827482 56.12473 
L 478.765664 50.256679 
L 479.627845 48.34615 
L 480.276205 48.34615 
L 480.710744 48.619083 
L 481.786746 49.84728 
L 482.000566 49.983746 
L 482.435105 51.211943 
L 483.297286 54.760067 
L 484.159467 60.355186 
L 485.883828 73.046552 
L 487.608189 89.286043 
L 488.684191 99.930415 
L 489.546372 108.937191 
L 491.484554 132.136464 
L 494.284917 168.300036 
L 499.030359 228.208745 
L 500.106361 241.855376 
L 502.044543 262.871188 
L 504.417264 285.661061 
L 506.789985 303.128749 
L 507.865987 309.542665 
L 508.728168 313.500188 
L 509.376527 316.093048 
L 509.804169 317.457711 
L 510.452529 319.641172 
L 511.100889 321.005835 
L 511.31471 321.551701 
L 511.52853 321.688167 
L 512.390711 322.643431 
L 513.039071 322.916364 
L 514.115072 322.916364 
L 514.549612 322.643431 
L 515.411792 321.415234 
L 515.839434 320.45997 
L 516.273973 319.36824 
L 517.136154 315.683649 
L 517.998334 311.58966 
L 519.722696 299.990024 
L 521.012518 290.16445 
L 523.171418 270.649767 
L 525.75796 243.220039 
L 527.268501 225.752352 
L 531.358686 177.443278 
L 532.220867 167.481238 
L 534.593588 139.505645 
L 538.690671 98.702218 
L 539.980493 87.102582 
L 543.001574 67.178501 
L 544.291397 60.901051 
L 546.450297 53.258937 
L 548.388479 48.209684 
L 549.25066 48.209684 
L 549.89902 48.619083 
L 551.188842 50.393145 
L 551.623381 51.757808 
L 552.485562 55.988264 
L 553.561563 63.220978 
L 554.858283 73.183019 
L 555.499745 78.914604 
L 556.582644 89.149577 
L 559.169186 116.579305 
L 569.080816 241.855376 
L 572.529538 278.291881 
L 574.040079 290.983247 
L 575.76444 303.538148 
L 577.488802 312.817857 
L 578.778624 317.457711 
L 579.861523 320.45997 
L 580.289165 321.278768 
L 581.365166 322.506965 
L 581.585884 322.643431 
L 583.089527 322.643431 
L 583.524066 322.370498 
L 584.172426 321.415234 
L 585.676069 317.321245 
L 586.324429 314.591919 
L 586.972789 311.453194 
L 589.124792 297.124231 
L 589.986973 290.027983 
L 591.069872 280.611808 
L 592.359694 268.193374 
L 597.532778 210.877524 
L 602.057502 157.246265 
L 602.705862 150.01355 
L 605.292404 121.355626 
L 606.589124 109.210124 
L 608.741127 89.286043 
L 609.389487 84.373256 
L 609.817129 80.825132 
L 611.327669 71.27249 
L 613.265851 60.764584 
L 614.990213 53.668336 
L 616.073112 49.84728 
L 616.714574 48.073218 
L 616.935292 48.073218 
L 617.149113 47.800285 
L 617.797473 47.800285 
L 618.659654 48.34615 
L 620.163297 50.393145 
L 620.597836 51.894274 
L 621.246196 55.033 
L 622.108376 60.355186 
L 624.694919 80.961598 
L 628.571283 121.628558 
L 636.330909 220.430166 
L 636.330909 220.430166 
" clip-path="url(#p09ad1d1935)" style="fill: none; stroke: #ff0000; stroke-width: 1.5; stroke-linecap: square"/>
   </g>
   <g id="patch_13">
    <path d="M 57.17 337.013333 
L 57.17 26.88 
" style="fill: none; stroke: #000000; stroke-width: 0.8; stroke-linejoin: miter; stroke-linecap: square"/>
   </g>
   <g id="patch_14">
    <path d="M 663.91 337.013333 
L 663.91 26.88 
" style="fill: none; stroke: #000000; stroke-width: 0.8; stroke-linejoin: miter; stroke-linecap: square"/>
   </g>
   <g id="patch_15">
    <path d="M 57.17 337.013333 
L 663.91 337.013333 
" style="fill: none; stroke: #000000; stroke-width: 0.8; stroke-linejoin: miter; stroke-linecap: square"/>
   </g>
   <g id="patch_16">
    <path d="M 57.17 26.88 
L 663.91 26.88 
" style="fill: none; stroke: #000000; stroke-width: 0.8; stroke-linejoin: miter; stroke-linecap: square"/>
   </g>
  </g>
 </g>
 <defs>
  <clipPath id="p09ad1d1935">
   <rect x="57.17" y="26.88" width="606.74" height="310.133333"/>
  </clipPath>
  <clipPath id="pda64d93cb1">
   <rect x="57.17" y="378.973333" width="606.74" height="155.066667"/>
  </clipPath>
 </defs>
</svg>
